<?xml version="1.0" encoding="iso-8859-1"?>
<!-- Generator: Adobe Illustrator 19.0.0, SVG Export Plug-In . SVG Version: 6.00 Build 0)  -->
<svg version="1.1" id="Capa_1" xmlns="http://www.w3.org/2000/svg" xmlns:xlink="http://www.w3.org/1999/xlink" x="0px" y="0px"
	 viewBox="0 0 480.518 480.518" style="enable-background:new 0 0 480.518 480.518;" xml:space="preserve">
<linearGradient id="SVGID_1_" gradientUnits="userSpaceOnUse" x1="-53.1162" y1="617.289" x2="-53.1162" y2="554.985" gradientTransform="matrix(8 0 0 -8 453.1883 4941)">
	<stop  offset="0" style="stop-color:#FC5C7D"/>
	<stop  offset="0.129" style="stop-color:#F35E85"/>
	<stop  offset="0.343" style="stop-color:#D9659B"/>
	<stop  offset="0.616" style="stop-color:#B070BF"/>
	<stop  offset="0.934" style="stop-color:#777FF0"/>
	<stop  offset="1" style="stop-color:#6A82FB"/>
</linearGradient>
<path style="fill:url(#SVGID_1_);" d="M0.259,432h56v16h-56V432z"/>
<g>
	
		<linearGradient id="SVGID_2_" gradientUnits="userSpaceOnUse" x1="-49.1162" y1="617.289" x2="-49.1162" y2="554.985" gradientTransform="matrix(8 0 0 -8 453.1883 4941)">
		<stop  offset="0" style="stop-color:#FC5C7D"/>
		<stop  offset="0.129" style="stop-color:#F35E85"/>
		<stop  offset="0.343" style="stop-color:#D9659B"/>
		<stop  offset="0.616" style="stop-color:#B070BF"/>
		<stop  offset="0.934" style="stop-color:#777FF0"/>
		<stop  offset="1" style="stop-color:#6A82FB"/>
	</linearGradient>
	<path style="fill:url(#SVGID_2_);" d="M32.259,400h56v16h-56V400z"/>
	
		<linearGradient id="SVGID_3_" gradientUnits="userSpaceOnUse" x1="-55.6162" y1="617.289" x2="-55.6162" y2="554.985" gradientTransform="matrix(8 0 0 -8 453.1883 4941)">
		<stop  offset="0" style="stop-color:#FC5C7D"/>
		<stop  offset="0.129" style="stop-color:#F35E85"/>
		<stop  offset="0.343" style="stop-color:#D9659B"/>
		<stop  offset="0.616" style="stop-color:#B070BF"/>
		<stop  offset="0.934" style="stop-color:#777FF0"/>
		<stop  offset="1" style="stop-color:#6A82FB"/>
	</linearGradient>
	<path style="fill:url(#SVGID_3_);" d="M0.259,400h16v16h-16V400z"/>
	
		<linearGradient id="SVGID_4_" gradientUnits="userSpaceOnUse" x1="-49.1162" y1="617.289" x2="-49.1162" y2="554.985" gradientTransform="matrix(8 0 0 -8 453.1883 4941)">
		<stop  offset="0" style="stop-color:#FC5C7D"/>
		<stop  offset="0.129" style="stop-color:#F35E85"/>
		<stop  offset="0.343" style="stop-color:#D9659B"/>
		<stop  offset="0.616" style="stop-color:#B070BF"/>
		<stop  offset="0.934" style="stop-color:#777FF0"/>
		<stop  offset="1" style="stop-color:#6A82FB"/>
	</linearGradient>
	<path style="fill:url(#SVGID_4_);" d="M32.259,464h56v16h-56V464z"/>
	
		<linearGradient id="SVGID_5_" gradientUnits="userSpaceOnUse" x1="-55.6162" y1="617.289" x2="-55.6162" y2="554.985" gradientTransform="matrix(8 0 0 -8 453.1883 4941)">
		<stop  offset="0" style="stop-color:#FC5C7D"/>
		<stop  offset="0.129" style="stop-color:#F35E85"/>
		<stop  offset="0.343" style="stop-color:#D9659B"/>
		<stop  offset="0.616" style="stop-color:#B070BF"/>
		<stop  offset="0.934" style="stop-color:#777FF0"/>
		<stop  offset="1" style="stop-color:#6A82FB"/>
	</linearGradient>
	<path style="fill:url(#SVGID_5_);" d="M0.259,464h16v16h-16V464z"/>
	
		<linearGradient id="SVGID_6_" gradientUnits="userSpaceOnUse" x1="-46.6162" y1="617.289" x2="-46.6162" y2="554.985" gradientTransform="matrix(8 0 0 -8 453.1883 4941)">
		<stop  offset="0" style="stop-color:#FC5C7D"/>
		<stop  offset="0.129" style="stop-color:#F35E85"/>
		<stop  offset="0.343" style="stop-color:#D9659B"/>
		<stop  offset="0.616" style="stop-color:#B070BF"/>
		<stop  offset="0.934" style="stop-color:#777FF0"/>
		<stop  offset="1" style="stop-color:#6A82FB"/>
	</linearGradient>
	<path style="fill:url(#SVGID_6_);" d="M72.259,432h16v16h-16V432z"/>
	
		<linearGradient id="SVGID_7_" gradientUnits="userSpaceOnUse" x1="-4.1162" y1="617.289" x2="-4.1162" y2="554.985" gradientTransform="matrix(8 0 0 -8 453.1883 4941)">
		<stop  offset="0" style="stop-color:#FC5C7D"/>
		<stop  offset="0.129" style="stop-color:#F35E85"/>
		<stop  offset="0.343" style="stop-color:#D9659B"/>
		<stop  offset="0.616" style="stop-color:#B070BF"/>
		<stop  offset="0.934" style="stop-color:#777FF0"/>
		<stop  offset="1" style="stop-color:#6A82FB"/>
	</linearGradient>
	<path style="fill:url(#SVGID_7_);" d="M392.259,432h56v16h-56V432z"/>
	
		<linearGradient id="SVGID_8_" gradientUnits="userSpaceOnUse" x1="-0.1162" y1="617.289" x2="-0.1162" y2="554.985" gradientTransform="matrix(8 0 0 -8 453.1883 4941)">
		<stop  offset="0" style="stop-color:#FC5C7D"/>
		<stop  offset="0.129" style="stop-color:#F35E85"/>
		<stop  offset="0.343" style="stop-color:#D9659B"/>
		<stop  offset="0.616" style="stop-color:#B070BF"/>
		<stop  offset="0.934" style="stop-color:#777FF0"/>
		<stop  offset="1" style="stop-color:#6A82FB"/>
	</linearGradient>
	<path style="fill:url(#SVGID_8_);" d="M424.259,400h56v16h-56V400z"/>
	
		<linearGradient id="SVGID_9_" gradientUnits="userSpaceOnUse" x1="-6.6162" y1="617.289" x2="-6.6162" y2="554.985" gradientTransform="matrix(8 0 0 -8 453.1883 4941)">
		<stop  offset="0" style="stop-color:#FC5C7D"/>
		<stop  offset="0.129" style="stop-color:#F35E85"/>
		<stop  offset="0.343" style="stop-color:#D9659B"/>
		<stop  offset="0.616" style="stop-color:#B070BF"/>
		<stop  offset="0.934" style="stop-color:#777FF0"/>
		<stop  offset="1" style="stop-color:#6A82FB"/>
	</linearGradient>
	<path style="fill:url(#SVGID_9_);" d="M392.259,400h16v16h-16V400z"/>
	
		<linearGradient id="SVGID_10_" gradientUnits="userSpaceOnUse" x1="-0.1162" y1="617.289" x2="-0.1162" y2="554.985" gradientTransform="matrix(8 0 0 -8 453.1883 4941)">
		<stop  offset="0" style="stop-color:#FC5C7D"/>
		<stop  offset="0.129" style="stop-color:#F35E85"/>
		<stop  offset="0.343" style="stop-color:#D9659B"/>
		<stop  offset="0.616" style="stop-color:#B070BF"/>
		<stop  offset="0.934" style="stop-color:#777FF0"/>
		<stop  offset="1" style="stop-color:#6A82FB"/>
	</linearGradient>
	<path style="fill:url(#SVGID_10_);" d="M424.259,464h56v16h-56V464z"/>
	
		<linearGradient id="SVGID_11_" gradientUnits="userSpaceOnUse" x1="-6.6162" y1="617.289" x2="-6.6162" y2="554.985" gradientTransform="matrix(8 0 0 -8 453.1883 4941)">
		<stop  offset="0" style="stop-color:#FC5C7D"/>
		<stop  offset="0.129" style="stop-color:#F35E85"/>
		<stop  offset="0.343" style="stop-color:#D9659B"/>
		<stop  offset="0.616" style="stop-color:#B070BF"/>
		<stop  offset="0.934" style="stop-color:#777FF0"/>
		<stop  offset="1" style="stop-color:#6A82FB"/>
	</linearGradient>
	<path style="fill:url(#SVGID_11_);" d="M392.259,464h16v16h-16V464z"/>
	
		<linearGradient id="SVGID_12_" gradientUnits="userSpaceOnUse" x1="2.3838" y1="617.289" x2="2.3838" y2="554.985" gradientTransform="matrix(8 0 0 -8 453.1883 4941)">
		<stop  offset="0" style="stop-color:#FC5C7D"/>
		<stop  offset="0.129" style="stop-color:#F35E85"/>
		<stop  offset="0.343" style="stop-color:#D9659B"/>
		<stop  offset="0.616" style="stop-color:#B070BF"/>
		<stop  offset="0.934" style="stop-color:#777FF0"/>
		<stop  offset="1" style="stop-color:#6A82FB"/>
	</linearGradient>
	<path style="fill:url(#SVGID_12_);" d="M464.259,432h16v16h-16V432z"/>
</g>
<linearGradient id="SVGID_13_" gradientUnits="userSpaceOnUse" x1="-53.1162" y1="617.289" x2="-53.1162" y2="554.985" gradientTransform="matrix(8 0 0 -8 453.1883 4941)">
	<stop  offset="0" style="stop-color:#FC5C7D"/>
	<stop  offset="0.129" style="stop-color:#F35E85"/>
	<stop  offset="0.343" style="stop-color:#D9659B"/>
	<stop  offset="0.616" style="stop-color:#B070BF"/>
	<stop  offset="0.934" style="stop-color:#777FF0"/>
	<stop  offset="1" style="stop-color:#6A82FB"/>
</linearGradient>
<path style="fill:url(#SVGID_13_);" d="M0.259,40h56v16h-56V40z"/>
<g>
	
		<linearGradient id="SVGID_14_" gradientUnits="userSpaceOnUse" x1="-49.1162" y1="617.289" x2="-49.1162" y2="554.985" gradientTransform="matrix(8 0 0 -8 453.1883 4941)">
		<stop  offset="0" style="stop-color:#FC5C7D"/>
		<stop  offset="0.129" style="stop-color:#F35E85"/>
		<stop  offset="0.343" style="stop-color:#D9659B"/>
		<stop  offset="0.616" style="stop-color:#B070BF"/>
		<stop  offset="0.934" style="stop-color:#777FF0"/>
		<stop  offset="1" style="stop-color:#6A82FB"/>
	</linearGradient>
	<path style="fill:url(#SVGID_14_);" d="M32.259,8h56v16h-56V8z"/>
	
		<linearGradient id="SVGID_15_" gradientUnits="userSpaceOnUse" x1="-55.6162" y1="617.289" x2="-55.6162" y2="554.985" gradientTransform="matrix(8 0 0 -8 453.1883 4941)">
		<stop  offset="0" style="stop-color:#FC5C7D"/>
		<stop  offset="0.129" style="stop-color:#F35E85"/>
		<stop  offset="0.343" style="stop-color:#D9659B"/>
		<stop  offset="0.616" style="stop-color:#B070BF"/>
		<stop  offset="0.934" style="stop-color:#777FF0"/>
		<stop  offset="1" style="stop-color:#6A82FB"/>
	</linearGradient>
	<path style="fill:url(#SVGID_15_);" d="M0.259,8h16v16h-16V8z"/>
	
		<linearGradient id="SVGID_16_" gradientUnits="userSpaceOnUse" x1="-49.1162" y1="617.289" x2="-49.1162" y2="554.985" gradientTransform="matrix(8 0 0 -8 453.1883 4941)">
		<stop  offset="0" style="stop-color:#FC5C7D"/>
		<stop  offset="0.129" style="stop-color:#F35E85"/>
		<stop  offset="0.343" style="stop-color:#D9659B"/>
		<stop  offset="0.616" style="stop-color:#B070BF"/>
		<stop  offset="0.934" style="stop-color:#777FF0"/>
		<stop  offset="1" style="stop-color:#6A82FB"/>
	</linearGradient>
	<path style="fill:url(#SVGID_16_);" d="M32.259,72h56v16h-56V72z"/>
	
		<linearGradient id="SVGID_17_" gradientUnits="userSpaceOnUse" x1="-55.6162" y1="617.289" x2="-55.6162" y2="554.985" gradientTransform="matrix(8 0 0 -8 453.1883 4941)">
		<stop  offset="0" style="stop-color:#FC5C7D"/>
		<stop  offset="0.129" style="stop-color:#F35E85"/>
		<stop  offset="0.343" style="stop-color:#D9659B"/>
		<stop  offset="0.616" style="stop-color:#B070BF"/>
		<stop  offset="0.934" style="stop-color:#777FF0"/>
		<stop  offset="1" style="stop-color:#6A82FB"/>
	</linearGradient>
	<path style="fill:url(#SVGID_17_);" d="M0.259,72h16v16h-16V72z"/>
	
		<linearGradient id="SVGID_18_" gradientUnits="userSpaceOnUse" x1="-46.6162" y1="617.289" x2="-46.6162" y2="554.985" gradientTransform="matrix(8 0 0 -8 453.1883 4941)">
		<stop  offset="0" style="stop-color:#FC5C7D"/>
		<stop  offset="0.129" style="stop-color:#F35E85"/>
		<stop  offset="0.343" style="stop-color:#D9659B"/>
		<stop  offset="0.616" style="stop-color:#B070BF"/>
		<stop  offset="0.934" style="stop-color:#777FF0"/>
		<stop  offset="1" style="stop-color:#6A82FB"/>
	</linearGradient>
	<path style="fill:url(#SVGID_18_);" d="M72.259,40h16v16h-16V40z"/>
	
		<linearGradient id="SVGID_19_" gradientUnits="userSpaceOnUse" x1="-4.1162" y1="617.289" x2="-4.1162" y2="554.985" gradientTransform="matrix(8 0 0 -8 453.1883 4941)">
		<stop  offset="0" style="stop-color:#FC5C7D"/>
		<stop  offset="0.129" style="stop-color:#F35E85"/>
		<stop  offset="0.343" style="stop-color:#D9659B"/>
		<stop  offset="0.616" style="stop-color:#B070BF"/>
		<stop  offset="0.934" style="stop-color:#777FF0"/>
		<stop  offset="1" style="stop-color:#6A82FB"/>
	</linearGradient>
	<path style="fill:url(#SVGID_19_);" d="M392.259,40h56v16h-56V40z"/>
	
		<linearGradient id="SVGID_20_" gradientUnits="userSpaceOnUse" x1="-0.1162" y1="617.289" x2="-0.1162" y2="554.985" gradientTransform="matrix(8 0 0 -8 453.1883 4941)">
		<stop  offset="0" style="stop-color:#FC5C7D"/>
		<stop  offset="0.129" style="stop-color:#F35E85"/>
		<stop  offset="0.343" style="stop-color:#D9659B"/>
		<stop  offset="0.616" style="stop-color:#B070BF"/>
		<stop  offset="0.934" style="stop-color:#777FF0"/>
		<stop  offset="1" style="stop-color:#6A82FB"/>
	</linearGradient>
	<path style="fill:url(#SVGID_20_);" d="M424.259,8h56v16h-56V8z"/>
	
		<linearGradient id="SVGID_21_" gradientUnits="userSpaceOnUse" x1="-6.6162" y1="617.289" x2="-6.6162" y2="554.985" gradientTransform="matrix(8 0 0 -8 453.1883 4941)">
		<stop  offset="0" style="stop-color:#FC5C7D"/>
		<stop  offset="0.129" style="stop-color:#F35E85"/>
		<stop  offset="0.343" style="stop-color:#D9659B"/>
		<stop  offset="0.616" style="stop-color:#B070BF"/>
		<stop  offset="0.934" style="stop-color:#777FF0"/>
		<stop  offset="1" style="stop-color:#6A82FB"/>
	</linearGradient>
	<path style="fill:url(#SVGID_21_);" d="M392.259,8h16v16h-16V8z"/>
	
		<linearGradient id="SVGID_22_" gradientUnits="userSpaceOnUse" x1="-0.1162" y1="617.289" x2="-0.1162" y2="554.985" gradientTransform="matrix(8 0 0 -8 453.1883 4941)">
		<stop  offset="0" style="stop-color:#FC5C7D"/>
		<stop  offset="0.129" style="stop-color:#F35E85"/>
		<stop  offset="0.343" style="stop-color:#D9659B"/>
		<stop  offset="0.616" style="stop-color:#B070BF"/>
		<stop  offset="0.934" style="stop-color:#777FF0"/>
		<stop  offset="1" style="stop-color:#6A82FB"/>
	</linearGradient>
	<path style="fill:url(#SVGID_22_);" d="M424.259,72h56v16h-56V72z"/>
	
		<linearGradient id="SVGID_23_" gradientUnits="userSpaceOnUse" x1="-6.6162" y1="617.289" x2="-6.6162" y2="554.985" gradientTransform="matrix(8 0 0 -8 453.1883 4941)">
		<stop  offset="0" style="stop-color:#FC5C7D"/>
		<stop  offset="0.129" style="stop-color:#F35E85"/>
		<stop  offset="0.343" style="stop-color:#D9659B"/>
		<stop  offset="0.616" style="stop-color:#B070BF"/>
		<stop  offset="0.934" style="stop-color:#777FF0"/>
		<stop  offset="1" style="stop-color:#6A82FB"/>
	</linearGradient>
	<path style="fill:url(#SVGID_23_);" d="M392.259,72h16v16h-16V72z"/>
	
		<linearGradient id="SVGID_24_" gradientUnits="userSpaceOnUse" x1="2.3838" y1="617.289" x2="2.3838" y2="554.985" gradientTransform="matrix(8 0 0 -8 453.1883 4941)">
		<stop  offset="0" style="stop-color:#FC5C7D"/>
		<stop  offset="0.129" style="stop-color:#F35E85"/>
		<stop  offset="0.343" style="stop-color:#D9659B"/>
		<stop  offset="0.616" style="stop-color:#B070BF"/>
		<stop  offset="0.934" style="stop-color:#777FF0"/>
		<stop  offset="1" style="stop-color:#6A82FB"/>
	</linearGradient>
	<path style="fill:url(#SVGID_24_);" d="M464.259,40h16v16h-16V40z"/>
	
		<linearGradient id="SVGID_25_" gradientUnits="userSpaceOnUse" x1="-26.6162" y1="617.289" x2="-26.6162" y2="554.985" gradientTransform="matrix(8 0 0 -8 453.1883 4941)">
		<stop  offset="0" style="stop-color:#FC5C7D"/>
		<stop  offset="0.129" style="stop-color:#F35E85"/>
		<stop  offset="0.343" style="stop-color:#D9659B"/>
		<stop  offset="0.616" style="stop-color:#B070BF"/>
		<stop  offset="0.934" style="stop-color:#777FF0"/>
		<stop  offset="1" style="stop-color:#6A82FB"/>
	</linearGradient>
	<path style="fill:url(#SVGID_25_);" d="M86.851,113.36c-12.46-12.496-32.691-12.525-45.187-0.065s-12.525,32.691-0.065,45.187
		c4.047,4.058,9.11,6.953,14.66,8.382v146.272c-17.081,4.414-27.35,21.839-22.936,38.92c4.414,17.081,21.839,27.35,38.92,22.936
		c5.528-1.429,10.572-4.313,14.607-8.352l122.792,72.56c-5.141,16.909,4.398,34.784,21.307,39.925s34.784-4.398,39.925-21.307
		c1.845-6.069,1.845-12.549,0-18.618l122.792-72.56c12.46,12.496,32.691,12.525,45.187,0.065
		c12.496-12.46,12.525-32.691,0.065-45.187c-4.047-4.058-9.11-6.953-14.66-8.382V166.864c17.081-4.414,27.35-21.839,22.936-38.92
		c-4.414-17.081-21.839-27.35-38.92-22.936c-5.528,1.429-10.572,4.313-14.607,8.352L270.875,40.8c0.873-2.854,1.339-5.816,1.384-8.8
		c0-17.673-14.327-32-32-32s-32,14.327-32,32c0.045,2.984,0.511,5.946,1.384,8.8L86.851,113.36z M384.259,344
		c0.045,2.984,0.511,5.946,1.384,8.8l-122.792,72.56c-4.045-3.991-9.083-6.83-14.592-8.224V244.568l145.408-85.928
		c4.045,3.991,9.083,6.83,14.592,8.224v146.272C394.173,316.773,384.313,329.453,384.259,344L384.259,344z M72.259,313.136V166.864
		c5.508-1.392,10.543-4.231,14.584-8.224l145.416,85.928v172.568c-5.509,1.394-10.547,4.233-14.592,8.224L94.875,352.8
		c5.09-16.527-4.181-34.051-20.708-39.142C73.537,313.464,72.9,313.29,72.259,313.136z M385.643,144.8l-145.384,85.904L94.875,144.8
		c1.845-5.722,1.845-11.878,0-17.6l122.792-72.56c12.473,12.477,32.698,12.481,45.176,0.008c0.003-0.003,0.006-0.006,0.008-0.008
		l122.792,72.56C383.798,132.922,383.798,139.078,385.643,144.8L385.643,144.8z M48.259,136c0-8.837,7.163-16,16-16s16,7.163,16,16
		s-7.163,16-16,16S48.259,144.837,48.259,136z M64.259,360c-8.837,0-16-7.163-16-16s7.163-16,16-16s16,7.163,16,16
		S73.095,360,64.259,360z M240.259,464c-8.837,0-16-7.163-16-16s7.163-16,16-16c8.837,0,16,7.163,16,16S249.095,464,240.259,464z
		 M432.259,344c0,8.837-7.163,16-16,16s-16-7.163-16-16s7.163-16,16-16S432.259,335.163,432.259,344z M416.259,120
		c8.837,0,16,7.163,16,16s-7.163,16-16,16s-16-7.163-16-16S407.422,120,416.259,120z M240.259,16c8.837,0,16,7.163,16,16
		s-7.163,16-16,16c-8.837,0-16-7.163-16-16S231.422,16,240.259,16z"/>
</g>
<linearGradient id="SVGID_26_" gradientUnits="userSpaceOnUse" x1="-25.7575" y1="611.9298" x2="-57.4605" y2="558.2868" gradientTransform="matrix(6.887 -4.0706 -4.0706 -6.887 2856.5928 4112.2236)">
	<stop  offset="0" style="stop-color:#FC5C7D"/>
	<stop  offset="0.129" style="stop-color:#F35E85"/>
	<stop  offset="0.343" style="stop-color:#D9659B"/>
	<stop  offset="0.616" style="stop-color:#B070BF"/>
	<stop  offset="0.934" style="stop-color:#777FF0"/>
	<stop  offset="1" style="stop-color:#6A82FB"/>
</linearGradient>
<path style="fill:url(#SVGID_26_);" d="M177.805,267.614l12.872-7.608l8.141,13.774l-12.872,7.608L177.805,267.614z"/>
<linearGradient id="SVGID_27_" gradientUnits="userSpaceOnUse" x1="-28.0079" y1="611.6642" x2="-59.7089" y2="558.0262" gradientTransform="matrix(6.887 -4.0706 -4.0706 -6.887 2845.2808 4101.2397)">
	<stop  offset="0" style="stop-color:#FC5C7D"/>
	<stop  offset="0.129" style="stop-color:#F35E85"/>
	<stop  offset="0.343" style="stop-color:#D9659B"/>
	<stop  offset="0.616" style="stop-color:#B070BF"/>
	<stop  offset="0.934" style="stop-color:#777FF0"/>
	<stop  offset="1" style="stop-color:#6A82FB"/>
</linearGradient>
<path style="fill:url(#SVGID_27_);" d="M152.073,282.828l12.872-7.608l8.141,13.774l-12.872,7.608L152.073,282.828z"/>
<linearGradient id="SVGID_28_" gradientUnits="userSpaceOnUse" x1="-23.5053" y1="612.1935" x2="-55.2083" y2="558.5555" gradientTransform="matrix(6.887 -4.0706 -4.0706 -6.887 2867.9207 4123.208)">
	<stop  offset="0" style="stop-color:#FC5C7D"/>
	<stop  offset="0.129" style="stop-color:#F35E85"/>
	<stop  offset="0.343" style="stop-color:#D9659B"/>
	<stop  offset="0.616" style="stop-color:#B070BF"/>
	<stop  offset="0.934" style="stop-color:#777FF0"/>
	<stop  offset="1" style="stop-color:#6A82FB"/>
</linearGradient>
<path style="fill:url(#SVGID_28_);" d="M203.56,252.396l12.872-7.608l8.141,13.774l-12.872,7.608L203.56,252.396z"/>
<linearGradient id="SVGID_29_" gradientUnits="userSpaceOnUse" x1="-30.2584" y1="611.3995" x2="-61.9594" y2="557.7656" gradientTransform="matrix(6.887 -4.0706 -4.0706 -6.887 2833.9526 4090.2559)">
	<stop  offset="0" style="stop-color:#FC5C7D"/>
	<stop  offset="0.129" style="stop-color:#F35E85"/>
	<stop  offset="0.343" style="stop-color:#D9659B"/>
	<stop  offset="0.616" style="stop-color:#B070BF"/>
	<stop  offset="0.934" style="stop-color:#777FF0"/>
	<stop  offset="1" style="stop-color:#6A82FB"/>
</linearGradient>
<path style="fill:url(#SVGID_29_);" d="M126.314,298.04l12.872-7.608l8.141,13.774l-12.872,7.608L126.314,298.04z"/>
<linearGradient id="SVGID_30_" gradientUnits="userSpaceOnUse" x1="-32.5096" y1="611.1353" x2="-64.2116" y2="557.4963" gradientTransform="matrix(6.887 -4.0706 -4.0706 -6.887 2822.6248 4079.2717)">
	<stop  offset="0" style="stop-color:#FC5C7D"/>
	<stop  offset="0.129" style="stop-color:#F35E85"/>
	<stop  offset="0.343" style="stop-color:#D9659B"/>
	<stop  offset="0.616" style="stop-color:#B070BF"/>
	<stop  offset="0.934" style="stop-color:#777FF0"/>
	<stop  offset="1" style="stop-color:#6A82FB"/>
</linearGradient>
<path style="fill:url(#SVGID_30_);" d="M100.565,313.254l12.872-7.608l8.141,13.774l-12.872,7.608L100.565,313.254z"/>
<linearGradient id="SVGID_31_" gradientUnits="userSpaceOnUse" x1="5.3153" y1="601.2905" x2="-48.3237" y2="569.5975" gradientTransform="matrix(4.0698 -6.8874 -6.8874 -4.0698 4489.1646 2486.4592)">
	<stop  offset="0" style="stop-color:#FC5C7D"/>
	<stop  offset="0.129" style="stop-color:#F35E85"/>
	<stop  offset="0.343" style="stop-color:#D9659B"/>
	<stop  offset="0.616" style="stop-color:#B070BF"/>
	<stop  offset="0.934" style="stop-color:#777FF0"/>
	<stop  offset="1" style="stop-color:#6A82FB"/>
</linearGradient>
<path style="fill:url(#SVGID_31_);" d="M358.927,319.417l8.14-13.775l12.873,7.607l-8.14,13.775L358.927,319.417z"/>
<linearGradient id="SVGID_32_" gradientUnits="userSpaceOnUse" x1="0.4629" y1="602.2256" x2="-53.1861" y2="570.5316" gradientTransform="matrix(4.0689 -6.888 -6.888 -4.0689 4489.939 2456.2195)">
	<stop  offset="0" style="stop-color:#FC5C7D"/>
	<stop  offset="0.129" style="stop-color:#F35E85"/>
	<stop  offset="0.343" style="stop-color:#D9659B"/>
	<stop  offset="0.616" style="stop-color:#B070BF"/>
	<stop  offset="0.934" style="stop-color:#777FF0"/>
	<stop  offset="1" style="stop-color:#6A82FB"/>
</linearGradient>
<path style="fill:url(#SVGID_32_);" d="M333.197,304.19l8.138-13.776l12.874,7.605l-8.138,13.776L333.197,304.19z"/>
<linearGradient id="SVGID_33_" gradientUnits="userSpaceOnUse" x1="-4.3926" y1="603.1577" x2="-58.0346" y2="571.4657" gradientTransform="matrix(4.0698 -6.8874 -6.8874 -4.0698 4490.0527 2427.187)">
	<stop  offset="0" style="stop-color:#FC5C7D"/>
	<stop  offset="0.129" style="stop-color:#F35E85"/>
	<stop  offset="0.343" style="stop-color:#D9659B"/>
	<stop  offset="0.616" style="stop-color:#B070BF"/>
	<stop  offset="0.934" style="stop-color:#777FF0"/>
	<stop  offset="1" style="stop-color:#6A82FB"/>
</linearGradient>
<path style="fill:url(#SVGID_33_);" d="M307.435,288.999l8.14-13.775l12.873,7.607l-8.14,13.775L307.435,288.999z"/>
<linearGradient id="SVGID_34_" gradientUnits="userSpaceOnUse" x1="-14.1042" y1="605.0284" x2="-67.7462" y2="573.3325" gradientTransform="matrix(4.0698 -6.8874 -6.8874 -4.0698 4490.9565 2367.9072)">
	<stop  offset="0" style="stop-color:#FC5C7D"/>
	<stop  offset="0.129" style="stop-color:#F35E85"/>
	<stop  offset="0.343" style="stop-color:#D9659B"/>
	<stop  offset="0.616" style="stop-color:#B070BF"/>
	<stop  offset="0.934" style="stop-color:#777FF0"/>
	<stop  offset="1" style="stop-color:#6A82FB"/>
</linearGradient>
<path style="fill:url(#SVGID_34_);" d="M255.946,258.565l8.14-13.775l12.873,7.607l-8.14,13.775L255.946,258.565z"/>
<linearGradient id="SVGID_35_" gradientUnits="userSpaceOnUse" x1="-9.247" y1="604.0934" x2="-62.896" y2="572.4015" gradientTransform="matrix(4.0689 -6.888 -6.888 -4.0689 4490.8188 2396.9475)">
	<stop  offset="0" style="stop-color:#FC5C7D"/>
	<stop  offset="0.129" style="stop-color:#F35E85"/>
	<stop  offset="0.343" style="stop-color:#D9659B"/>
	<stop  offset="0.616" style="stop-color:#B070BF"/>
	<stop  offset="0.934" style="stop-color:#777FF0"/>
	<stop  offset="1" style="stop-color:#6A82FB"/>
</linearGradient>
<path style="fill:url(#SVGID_35_);" d="M281.694,273.775l8.138-13.776l12.874,7.605l-8.138,13.776L281.694,273.775z"/>
<g>
	
		<linearGradient id="SVGID_36_" gradientUnits="userSpaceOnUse" x1="-26.6162" y1="617.289" x2="-26.6162" y2="554.985" gradientTransform="matrix(8 0 0 -8 453.1883 4941)">
		<stop  offset="0" style="stop-color:#FC5C7D"/>
		<stop  offset="0.129" style="stop-color:#F35E85"/>
		<stop  offset="0.343" style="stop-color:#D9659B"/>
		<stop  offset="0.616" style="stop-color:#B070BF"/>
		<stop  offset="0.934" style="stop-color:#777FF0"/>
		<stop  offset="1" style="stop-color:#6A82FB"/>
	</linearGradient>
	<path style="fill:url(#SVGID_36_);" d="M232.259,200.024h16v16h-16V200.024z"/>
	
		<linearGradient id="SVGID_37_" gradientUnits="userSpaceOnUse" x1="-26.6162" y1="617.289" x2="-26.6162" y2="554.985" gradientTransform="matrix(8 0 0 -8 453.1883 4941)">
		<stop  offset="0" style="stop-color:#FC5C7D"/>
		<stop  offset="0.129" style="stop-color:#F35E85"/>
		<stop  offset="0.343" style="stop-color:#D9659B"/>
		<stop  offset="0.616" style="stop-color:#B070BF"/>
		<stop  offset="0.934" style="stop-color:#777FF0"/>
		<stop  offset="1" style="stop-color:#6A82FB"/>
	</linearGradient>
	<path style="fill:url(#SVGID_37_);" d="M232.259,168.024h16v16h-16V168.024z"/>
	
		<linearGradient id="SVGID_38_" gradientUnits="userSpaceOnUse" x1="-26.6162" y1="617.289" x2="-26.6162" y2="554.985" gradientTransform="matrix(8 0 0 -8 453.1883 4941)">
		<stop  offset="0" style="stop-color:#FC5C7D"/>
		<stop  offset="0.129" style="stop-color:#F35E85"/>
		<stop  offset="0.343" style="stop-color:#D9659B"/>
		<stop  offset="0.616" style="stop-color:#B070BF"/>
		<stop  offset="0.934" style="stop-color:#777FF0"/>
		<stop  offset="1" style="stop-color:#6A82FB"/>
	</linearGradient>
	<path style="fill:url(#SVGID_38_);" d="M232.259,136.024h16v16h-16V136.024z"/>
	
		<linearGradient id="SVGID_39_" gradientUnits="userSpaceOnUse" x1="-26.6162" y1="617.289" x2="-26.6162" y2="554.985" gradientTransform="matrix(8 0 0 -8 453.1883 4941)">
		<stop  offset="0" style="stop-color:#FC5C7D"/>
		<stop  offset="0.129" style="stop-color:#F35E85"/>
		<stop  offset="0.343" style="stop-color:#D9659B"/>
		<stop  offset="0.616" style="stop-color:#B070BF"/>
		<stop  offset="0.934" style="stop-color:#777FF0"/>
		<stop  offset="1" style="stop-color:#6A82FB"/>
	</linearGradient>
	<path style="fill:url(#SVGID_39_);" d="M232.259,104.024h16v16h-16V104.024z"/>
	
		<linearGradient id="SVGID_40_" gradientUnits="userSpaceOnUse" x1="-26.6162" y1="617.289" x2="-26.6162" y2="554.985" gradientTransform="matrix(8 0 0 -8 453.1883 4941)">
		<stop  offset="0" style="stop-color:#FC5C7D"/>
		<stop  offset="0.129" style="stop-color:#F35E85"/>
		<stop  offset="0.343" style="stop-color:#D9659B"/>
		<stop  offset="0.616" style="stop-color:#B070BF"/>
		<stop  offset="0.934" style="stop-color:#777FF0"/>
		<stop  offset="1" style="stop-color:#6A82FB"/>
	</linearGradient>
	<path style="fill:url(#SVGID_40_);" d="M232.259,72.024h16v16h-16V72.024z"/>
</g>
<g>
</g>
<g>
</g>
<g>
</g>
<g>
</g>
<g>
</g>
<g>
</g>
<g>
</g>
<g>
</g>
<g>
</g>
<g>
</g>
<g>
</g>
<g>
</g>
<g>
</g>
<g>
</g>
<g>
</g>
</svg>
