<?xml version="1.0" encoding="UTF-8" standalone="no"?>
<svg
   xmlns:dc="http://purl.org/dc/elements/1.1/"
   xmlns:cc="http://creativecommons.org/ns#"
   xmlns:rdf="http://www.w3.org/1999/02/22-rdf-syntax-ns#"
   xmlns:svg="http://www.w3.org/2000/svg"
   xmlns="http://www.w3.org/2000/svg"
   xmlns:sodipodi="http://sodipodi.sourceforge.net/DTD/sodipodi-0.dtd"
   xmlns:inkscape="http://www.inkscape.org/namespaces/inkscape"
   height="512pt"
   viewBox="-20 0 512 512"
   width="512pt"
   version="1.1"
   id="svg1751"
   sodipodi:docname="c.svg"
   inkscape:version="0.92.5 (2060ec1f9f, 2020-04-08)">
  <metadata
     id="metadata1757">
    <rdf:RDF>
      <cc:Work
         rdf:about="">
        <dc:format>image/svg+xml</dc:format>
        <dc:type
           rdf:resource="http://purl.org/dc/dcmitype/StillImage" />
      </cc:Work>
    </rdf:RDF>
  </metadata>
  <defs
     id="defs1755" />
  <sodipodi:namedview
     pagecolor="#ffffff"
     bordercolor="#666666"
     borderopacity="1"
     objecttolerance="10"
     gridtolerance="10"
     guidetolerance="10"
     inkscape:pageopacity="0"
     inkscape:pageshadow="2"
     inkscape:window-width="1366"
     inkscape:window-height="712"
     id="namedview1753"
     showgrid="false"
     inkscape:zoom="0.34570312"
     inkscape:cx="1066.8488"
     inkscape:cy="288.04297"
     inkscape:window-x="0"
     inkscape:window-y="0"
     inkscape:window-maximized="1"
     inkscape:current-layer="svg1751">
    <inkscape:grid
       type="xygrid"
       id="grid1761" />
  </sodipodi:namedview>
  <path
     d="m311 0h-255c-8.285156 0-15 6.714844-15 15v482c0 8.285156 6.714844 15 15 15h360c8.285156 0 15-6.714844 15-15v-377zm0 0"
     fill="#e6f0f0"
     id="path1731" />
  <path
     d="m311 0h-75v512h180c8.285156 0 15-6.714844 15-15v-377zm0 0"
     fill="#cdd7d7"
     id="path1733" />
  <path
     d="m311 0v105c0 8.285156 6.714844 15 15 15h105zm0 0"
     fill="#46465a"
     id="path1735" />
  <path
     d="m457 442h-442c-8.285156 0-15-6.714844-15-15v-240c0-8.285156 6.714844-15 15-15h442c8.285156 0 15 6.714844 15 15v240c0 8.285156-6.714844 15-15 15zm0 0"
     id="path1737"
     fill="#feef55" />
  <path
     d="m457 172h-221v270h221c8.285156 0 15-6.714844 15-15v-240c0-8.285156-6.714844-15-15-15zm0 0"
     fill="#fedc00"
     id="path1739" />
  <path
     style="fill:#5a5a6e;fill-opacity:0.17063365;stroke:#5a5a6e;stroke-width:14.22834206;stroke-linecap:round;stroke-linejoin:bevel;stroke-miterlimit:4;stroke-dasharray:none;stroke-opacity:1"
     id="path2340"
     d="m 123.68681,367.53959 c -0.77636,-2.26842 -1.13682,-4.62051 -1.36561,-6.97868 -0.15182,-2.29923 -0.1385,-4.59624 -0.36226,-6.89092 -0.26349,-2.89569 -0.37917,-5.7965 -0.64594,-8.69186 -0.22353,-3.45854 -0.5235,-6.90985 -0.81695,-10.36395 -0.27906,-3.61397 -0.69784,-7.2147 -0.91598,-10.83314 -0.38826,-3.72571 -0.64185,-7.45877 -0.787,-11.19824 -0.1201,-3.7776 -0.12572,-7.55711 -0.13191,-11.33595 -0.11674,-3.57393 0.20824,-7.13638 0.43291,-10.70079 0.32537,-3.5209 0.71644,-7.035 1.29694,-10.52923 0.53645,-3.24873 1.21579,-6.47772 2.02167,-9.68015 0.65494,-2.82098 1.53178,-5.59896 2.60661,-8.31121 0.99008,-2.44356 2.15659,-4.80248 3.56481,-7.07028 1.47043,-2.39164 3.36881,-4.44326 5.70301,-6.17048 1.95162,-1.51517 4.18957,-2.61096 6.50526,-3.58862 2.71873,-1.11558 5.66339,-1.49642 8.61036,-1.6957 2.86744,-0.21104 5.71782,-0.0607 8.55447,0.33568 3.28004,0.39901 6.38716,1.41643 9.4267,2.55873 3.36171,1.46066 6.36715,3.48246 9.26953,5.58071 3.22241,2.4042 5.82741,5.33833 8.18977,8.43255 2.28641,3.23113 4.071,6.72348 5.52212,10.32152 1.42469,3.59635 2.30706,7.33474 2.86266,11.11463 0.41551,3.65994 0.56435,7.34578 0.42082,11.02199 -0.0382,3.67953 -1.09249,7.2102 -2.22391,10.71076 -1.05095,3.33114 -2.72743,6.45295 -4.6567,9.43031 -1.86547,2.98097 -4.41993,5.51763 -7.01803,7.9805 -2.97794,2.67915 -6.30274,4.98932 -9.83298,7.03224 -3.81567,2.08519 -7.7635,3.97322 -11.79872,5.68427 -3.71911,1.52257 -7.58885,2.75282 -11.47382,3.88208 -3.06211,0.9422 -6.20715,1.61539 -9.34425,2.30983 -1.80432,0.41996 -3.66621,0.6956 -5.43073,1.24866 -0.4921,0.16429 -0.6018,0.15249 -0.29073,0.14415 -7.79643,3.78504 -13.70424,-6.205 -5.90782,-9.99003 v 0 c 1.81995,-0.80031 1.00054,-0.50451 2.42488,-0.95982 2.0557,-0.56951 4.14429,-1.03354 6.24282,-1.45448 2.85559,-0.6291 5.71942,-1.23501 8.50489,-2.09616 3.38165,-0.97001 6.74596,-2.0486 9.98629,-3.35525 3.55907,-1.49876 7.03072,-3.17278 10.40223,-4.99277 2.70114,-1.52465 5.20258,-3.30681 7.49863,-5.30586 1.95063,-1.82569 3.89176,-3.69556 5.28474,-5.91855 1.43121,-2.13926 2.62776,-4.4187 3.40465,-6.82446 0.84393,-2.61103 1.73006,-5.22159 1.72956,-7.97481 0.15417,-3.03617 -0.0326,-6.08418 -0.326,-9.10959 -0.41435,-2.97694 -1.1232,-5.91764 -2.23228,-8.7497 -1.03788,-2.69708 -2.42325,-5.28352 -4.05508,-7.7272 -1.65146,-2.19301 -3.45258,-4.28613 -5.70327,-6.00902 -1.98535,-1.44814 -4.03549,-2.83724 -6.26437,-3.9661 -2.13531,-0.81277 -4.305,-1.57195 -6.62084,-1.83255 -1.87485,-0.30529 -3.75933,-0.33932 -5.65917,-0.21698 -1.42424,0.0843 -2.87423,0.18488 -4.21476,0.66431 -1.42065,0.59933 -2.80586,1.19414 -3.97754,2.1684 -0.19508,0.13377 -0.44402,0.20431 -0.61514,0.36272 -0.79936,0.74005 -1.37881,1.67153 -2.00507,2.52699 -1.07542,1.71729 -1.94324,3.50714 -2.6976,5.36146 -0.9222,2.27092 -1.61746,4.6163 -2.17401,6.98191 -0.74658,2.92487 -1.35048,5.87966 -1.84673,8.84765 -0.53294,3.14324 -0.86321,6.30738 -1.17545,9.47409 -0.21135,3.34353 -0.52898,6.68427 -0.41251,10.03692 0.006,3.65251 0.0104,7.30566 0.12431,10.957 0.14036,3.66717 0.40487,7.32631 0.77627,10.98047 0.20959,3.53342 0.63176,7.04855 0.89754,10.57798 0.2905,3.42955 0.59039,6.8565 0.81045,10.29046 0.26496,2.88034 0.39027,5.76521 0.64163,8.64624 0.22057,2.30392 0.26088,4.60703 0.36468,6.9163 0.13178,1.46894 0.33395,2.93263 0.76889,4.35697 2.79706,7.60291 -9.06987,11.18696 -11.86694,3.58405 z"
     inkscape:connector-curvature="0" />
  <path
     style="fill:#46465a;fill-opacity:1;stroke:#46465a;stroke-width:9.77250004;stroke-linecap:round;stroke-linejoin:bevel;stroke-miterlimit:4;stroke-dasharray:none;stroke-opacity:1"
     id="path2348"
     d="m 287.55621,250.63111 c 1.45293,1.68493 2.7912,3.39643 3.96469,5.14762 1.59067,2.31441 2.83324,4.69653 4.10869,7.06938 2.16623,3.83429 3.83958,7.7471 5.94154,11.59098 2.42891,4.4705 5.01667,8.91086 7.63404,13.34785 2.3297,3.64893 4.37503,7.35004 6.58495,11.02092 1.20525,2.06789 2.90462,4.01743 4.42777,6.01236 0.37927,0.4459 0.70146,0.90653 1.17414,1.32519 0.0949,0.084 0.37054,0.33873 0.28753,0.25093 -0.28755,-0.30419 -0.32585,-0.31366 -0.65041,-0.53675 -2.82705,-1.52266 -7.0334,-1.33577 -10.09691,-0.24448 0.081,-0.12938 0.97182,-1.29422 1.29485,-1.73735 1.89428,-2.51264 3.57512,-5.06931 5.1074,-7.65666 2.77456,-4.02233 4.95739,-8.1547 7.30608,-12.25636 2.65727,-4.35723 4.97467,-8.77431 7.39842,-13.17244 1.99776,-3.47073 3.91556,-6.9562 5.7018,-10.46259 1.24002,-2.23782 2.41285,-4.48831 3.74618,-6.70953 0.74163,-1.18177 1.13162,-2.40785 1.86497,-3.59211 0.0879,-0.10597 1.00621,-1.42618 0.45538,-0.63401 -1.23503,3.56165 5.95209,1.96733 16.78537,4.33416 0.20872,0.0456 0.48384,-0.41648 0.40217,-0.30022 -0.10827,0.15409 -0.32274,0.27788 -0.4841,0.41681 0.045,-0.0309 0.16772,-0.12805 0.13489,-0.0927 -0.66854,0.71969 -1.14327,1.41447 -1.69163,2.17535 -1.34654,1.93491 -2.44014,3.91511 -3.4719,5.90769 -1.99276,3.78027 -3.77656,7.59307 -5.54627,11.40714 -2.42096,4.95114 -3.94084,10.01335 -5.58328,15.05662 -1.95872,5.86287 -3.97356,11.71978 -6.0252,17.57278 -2.13075,6.27367 -4.25866,12.54502 -6.73446,18.77957 -2.29899,6.06012 -4.89769,12.07778 -7.65643,18.0773 -2.11722,4.68235 -4.50542,9.32365 -6.74991,13.987 -1.27229,2.76503 -3.22132,5.40874 -4.84461,8.10992 -0.9834,1.29941 -1.57606,2.66628 -2.42907,3.99015 -0.13066,0.045 -0.67897,1.17928 -0.40547,0.63812 -2.07813,7.47163 -21.05422,5.83513 -18.97608,-1.6365 v 0 c 0.29033,-0.89509 0.67757,-1.77347 1.30932,-2.61559 0.80984,-1.25416 1.3494,-2.56159 2.30511,-3.79186 1.51239,-2.48451 3.28244,-4.92292 4.49315,-7.46237 2.22628,-4.62476 4.5936,-9.22786 6.6954,-13.8712 2.70666,-5.88567 5.25702,-11.78874 7.50948,-17.73432 2.44298,-6.14756 4.53223,-12.33263 6.63691,-18.51861 2.03529,-5.80621 4.03403,-11.6163 5.97771,-17.43226 1.72634,-5.30089 3.34471,-10.61925 5.88571,-15.82366 1.81534,-3.9119 3.64662,-7.82226 5.68993,-11.69961 1.21491,-2.33805 2.51377,-4.66114 4.10437,-6.92986 0.97871,-1.35159 1.88524,-2.72207 3.31201,-3.95421 0.33609,-0.27211 5.69422,-4.08104 0.98963,-0.82338 6.0045,-6.04476 16.29047,-0.60368 17.84642,3.52658 -0.2729,0.70735 -1.2914,2.27139 -1.84524,2.92858 -0.79792,1.09436 2.30994,-2.92035 1.39469,-1.83444 -1.27577,2.04357 -5.43665,9.41371 -6.62506,11.47319 -1.83023,3.57641 -3.77105,7.13529 -5.81489,10.67567 -2.44584,4.43566 -4.78201,8.89087 -7.462,13.28553 -2.37249,4.13612 -4.56522,8.30604 -7.36772,12.362 -1.6787,2.82114 -3.50418,5.61225 -5.56993,8.35348 -1.55807,2.10435 -3.31087,4.19631 -6.43006,5.73637 -0.6457,0.27431 -1.2227,0.60779 -1.93707,0.82294 -4.68659,1.41155 -9.51134,1.22979 -13.59242,-0.75725 -2.47672,-1.35938 -4.23184,-2.95858 -5.51184,-4.75735 -1.68383,-2.25022 -3.60613,-4.44422 -4.94393,-6.77345 -2.21632,-3.69113 -4.28126,-7.40981 -6.61931,-11.07862 -2.6634,-4.51569 -5.29475,-9.03524 -7.76829,-13.58465 -2.08998,-3.85904 -3.81025,-7.77657 -5.96068,-11.62642 -1.16484,-2.16963 -2.28323,-4.34993 -3.74762,-6.46367 -0.86954,-1.38322 -2.00802,-2.70557 -3.104,-4.03586 -6.07228,-6.76251 11.10278,-11.54432 17.17509,-4.78181 z"
     inkscape:connector-curvature="0"
     sodipodi:nodetypes="cccccccccccccccccccccccccccccccccccccccccccccccccccccccccccccccccccc" />
</svg>
