<?xml version="1.0" encoding="UTF-8" standalone="no"?>
<!DOCTYPE svg PUBLIC "-//W3C//DTD SVG 1.1//EN"
 "http://www.w3.org/Graphics/SVG/1.1/DTD/svg11.dtd">
<!-- Generated by graphviz version 2.43.0 (0)
 -->
<!-- Pages: 1 -->
<svg width="133pt" height="332pt"
 viewBox="0.00 0.00 133.21 332.00" xmlns="http://www.w3.org/2000/svg" xmlns:xlink="http://www.w3.org/1999/xlink">
<g id="graph0" class="graph" transform="scale(1 1) rotate(0) translate(4 328)">
<polygon fill="white" stroke="transparent" points="-4,4 -4,-328 129.21,-328 129.21,4 -4,4"/>
<!-- A4 -->
<g id="node1" class="node">
<title>A4</title>
<ellipse fill="#aaaaaa" stroke="black" cx="87" cy="-306" rx="18" ry="18"/>
<text text-anchor="middle" x="87" y="-302.3" font-family="Times,serif" font-size="14.00">MY LOVELY LABEL</text>
</g>
<!-- F#4 -->
<g id="node2" class="node">
<title>F#4</title>
<ellipse fill="lightgrey" stroke="black" cx="32" cy="-234" rx="18" ry="18"/>
<text text-anchor="middle" x="32" y="-230.3" font-family="Times,serif" font-size="14.00">F#4</text>
</g>
<!-- A4&#45;&gt;F#4 -->
<g id="edge1" class="edge">
<title>A4&#45;&gt;F#4</title>
<path fill="none" stroke="black" d="M73.34,-294.06C63.62,-283.9 51.12,-268.5 42.23,-255.97"/>
<polygon fill="black" stroke="black" points="43.8,-254.54 38.66,-250.8 40.34,-256.93 43.8,-254.54"/>
</g>
<!-- G#4 -->
<g id="node3" class="node">
<title>G#4</title>
<ellipse fill="lightgrey" stroke="black" cx="87" cy="-162" rx="18" ry="18"/>
<text text-anchor="middle" x="87" y="-158.3" font-family="Times,serif" font-size="14.00">G#4</text>
</g>
<!-- A4&#45;&gt;G#4 -->
<g id="edge2" class="edge">
<title>A4&#45;&gt;G#4</title>
<path fill="none" stroke="black" d="M82.48,-288.43C79.71,-262.99 79.52,-214.26 81.9,-185.6"/>
<polygon fill="black" stroke="black" points="84.01,-185.63 82.49,-179.46 79.83,-185.23 84.01,-185.63"/>
</g>
<!-- F#4&#45;&gt;A4 -->
<g id="edge3" class="edge">
<title>F#4&#45;&gt;A4</title>
<path fill="none" stroke="black" d="M45.95,-246.24C55.62,-256.4 67.94,-271.6 76.74,-284"/>
<polygon fill="black" stroke="black" points="75.14,-285.38 80.28,-289.12 78.6,-282.99 75.14,-285.38"/>
</g>
<!-- F#4&#45;&gt;G#4 -->
<g id="edge4" class="edge">
<title>F#4&#45;&gt;G#4</title>
<path fill="none" stroke="black" d="M42.87,-219.17C51.3,-208.43 63.09,-193.44 72.36,-181.64"/>
<polygon fill="black" stroke="black" points="74.1,-182.82 76.16,-176.8 70.8,-180.22 74.1,-182.82"/>
</g>
<!-- A3 -->
<g id="node4" class="node">
<title>A3</title>
<ellipse fill="lightgrey" stroke="black" cx="87" cy="-90" rx="18" ry="18"/>
<text text-anchor="middle" x="87" y="-86.3" font-family="Times,serif" font-size="14.00">A3</text>
</g>
<!-- F#4&#45;&gt;A3 -->
<g id="edge5" class="edge">
<title>F#4&#45;&gt;A3</title>
<path fill="none" stroke="black" d="M36.36,-216.31C41.28,-198.2 49.95,-168.59 60,-144 64.51,-132.97 70.44,-121.12 75.59,-111.43"/>
<polygon fill="black" stroke="black" points="77.52,-112.27 78.52,-105.99 73.82,-110.28 77.52,-112.27"/>
</g>
<!-- G#4&#45;&gt;A4 -->
<g id="edge6" class="edge">
<title>G#4&#45;&gt;A4</title>
<path fill="none" stroke="black" d="M91.51,-179.46C94.28,-204.84 94.48,-253.57 92.11,-282.28"/>
<polygon fill="black" stroke="black" points="90,-282.26 91.52,-288.43 94.18,-282.65 90,-282.26"/>
</g>
<!-- G#4&#45;&gt;A3 -->
<g id="edge7" class="edge">
<title>G#4&#45;&gt;A3</title>
<path fill="none" stroke="black" d="M87,-143.7C87,-134.8 87,-123.82 87,-114.2"/>
<polygon fill="black" stroke="black" points="89.1,-114.1 87,-108.1 84.9,-114.1 89.1,-114.1"/>
</g>
<!-- C#4 -->
<g id="node5" class="node">
<title>C#4</title>
<ellipse fill="lightgrey" stroke="black" cx="18" cy="-90" rx="18" ry="18"/>
<text text-anchor="middle" x="18" y="-86.3" font-family="Times,serif" font-size="14.00">C#4</text>
</g>
<!-- G#4&#45;&gt;C#4 -->
<g id="edge8" class="edge">
<title>G#4&#45;&gt;C#4</title>
<path fill="none" stroke="black" d="M74.66,-148.49C63.48,-137.14 46.9,-120.32 34.56,-107.8"/>
<polygon fill="black" stroke="black" points="35.94,-106.2 30.23,-103.41 32.95,-109.15 35.94,-106.2"/>
</g>
<!-- A3&#45;&gt;A4 -->
<g id="edge9" class="edge">
<title>A3&#45;&gt;A4</title>
<path fill="none" stroke="black" d="M96.8,-105.57C103.09,-115.82 110.67,-130.14 114,-144 125.21,-190.71 121.07,-205.26 110,-252 107.4,-262.99 102.63,-274.57 98.11,-284.09"/>
<polygon fill="black" stroke="black" points="96.1,-283.42 95.35,-289.73 99.88,-285.26 96.1,-283.42"/>
</g>
<!-- C4 -->
<g id="node6" class="node">
<title>C4</title>
<ellipse fill="lightgrey" stroke="black" cx="87" cy="-18" rx="18" ry="18"/>
<text text-anchor="middle" x="87" y="-14.3" font-family="Times,serif" font-size="14.00">C4</text>
</g>
<!-- A3&#45;&gt;C4 -->
<g id="edge10" class="edge">
<title>A3&#45;&gt;C4</title>
<path fill="none" stroke="black" d="M87,-71.7C87,-62.8 87,-51.82 87,-42.2"/>
<polygon fill="black" stroke="black" points="89.1,-42.1 87,-36.1 84.9,-42.1 89.1,-42.1"/>
</g>
<!-- C#4&#45;&gt;F#4 -->
<g id="edge11" class="edge">
<title>C#4&#45;&gt;F#4</title>
<path fill="none" stroke="black" d="M19.7,-108.19C22.2,-133.6 26.9,-181.24 29.71,-209.75"/>
<polygon fill="black" stroke="black" points="27.63,-210.1 30.31,-215.87 31.81,-209.69 27.63,-210.1"/>
</g>
<!-- C4&#45;&gt;C4 -->
<g id="edge12" class="edge">
<title>C4&#45;&gt;C4</title>
<path fill="none" stroke="black" d="M101.04,-29.76C111.91,-34.15 123,-30.23 123,-18 123,-8.06 115.68,-3.61 107.1,-4.65"/>
<polygon fill="black" stroke="black" points="106.31,-2.68 101.04,-6.24 107.38,-6.75 106.31,-2.68"/>
</g>
</g>
</svg>
