<?xml version="1.0" encoding="utf-8" standalone="no"?>
<!DOCTYPE svg PUBLIC "-//W3C//DTD SVG 1.1//EN"
  "http://www.w3.org/Graphics/SVG/1.1/DTD/svg11.dtd">
<!-- Created with matplotlib (https://matplotlib.org/) -->
<svg height="720pt" version="1.1" viewBox="0 0 720 720" width="720pt" xmlns="http://www.w3.org/2000/svg" xmlns:xlink="http://www.w3.org/1999/xlink">
 <metadata>
  <rdf:RDF xmlns:cc="http://creativecommons.org/ns#" xmlns:dc="http://purl.org/dc/elements/1.1/" xmlns:rdf="http://www.w3.org/1999/02/22-rdf-syntax-ns#">
   <cc:Work>
    <dc:type rdf:resource="http://purl.org/dc/dcmitype/StillImage"/>
    <dc:date>2020-11-21T00:28:00.626223</dc:date>
    <dc:format>image/svg+xml</dc:format>
    <dc:creator>
     <cc:Agent>
      <dc:title>Matplotlib v3.3.2, https://matplotlib.org/</dc:title>
     </cc:Agent>
    </dc:creator>
   </cc:Work>
  </rdf:RDF>
 </metadata>
 <defs>
  <style type="text/css">*{stroke-linecap:butt;stroke-linejoin:round;}</style>
 </defs>
 <g id="figure_1">
  <g id="patch_1">
   <path d="M 0 720 
L 720 720 
L 720 0 
L 0 0 
z
" style="fill:#f1f6f4;"/>
  </g>
  <g id="axes_1">
   <g id="patch_2">
    <path clip-path="url(#p303f43f498)" d="M 598.36071 207.251902 
Q 431.407725 171.121963 264.454741 134.992024 
L 264.454741 134.992024 
Q 431.084024 172.586619 597.713307 210.181214 
z
" style="fill:#f7fbff;opacity:0.833333;stroke:#f7fbff;stroke-linecap:round;stroke-width:2;"/>
   </g>
   <g id="patch_3">
    <path clip-path="url(#p303f43f498)" d="M 140.282436 591.554718 
Q 200.984555 364.110201 261.686675 136.665684 
L 261.686675 136.665684 
Q 199.536522 363.718793 137.38637 590.771902 
z
" style="fill:#08306b;stroke:#08306b;stroke-linecap:round;stroke-width:2;"/>
   </g>
   <g id="PathCollection_1">
    <path clip-path="url(#p303f43f498)" d="M 599.578512 210.638382 
C 599.997835 210.638382 600.40004 210.471784 600.696546 210.175278 
C 600.993052 209.878771 601.159651 209.476566 601.159651 209.057244 
C 601.159651 208.637921 600.993052 208.235716 600.696546 207.93921 
C 600.40004 207.642703 599.997835 207.476105 599.578512 207.476105 
C 599.159189 207.476105 598.756984 207.642703 598.460478 207.93921 
C 598.163972 208.235716 597.997374 208.637921 597.997374 209.057244 
C 597.997374 209.476566 598.163972 209.878771 598.460478 210.175278 
C 598.756984 210.471784 599.159189 210.638382 599.578512 210.638382 
z
" style="fill:#0000ff;stroke:#0000ff;"/>
    <path clip-path="url(#p303f43f498)" d="M 262.269609 136.745159 
C 262.862621 136.745159 263.431425 136.509553 263.850748 136.09023 
C 264.270071 135.670907 264.505677 135.102103 264.505677 134.509091 
C 264.505677 133.916079 264.270071 133.347275 263.850748 132.927952 
C 263.431425 132.508629 262.862621 132.273023 262.269609 132.273023 
C 261.676597 132.273023 261.107793 132.508629 260.68847 132.927952 
C 260.269148 133.347275 260.033541 133.916079 260.033541 134.509091 
C 260.033541 135.102103 260.269148 135.670907 260.68847 136.09023 
C 261.107793 136.509553 261.676597 136.745159 262.269609 136.745159 
z
" style="fill:#00ff80;stroke:#00ff80;"/>
    <path clip-path="url(#p303f43f498)" d="M 138.421488 594.272048 
C 138.840811 594.272048 139.243016 594.105449 139.539522 593.808943 
C 139.836028 593.512437 140.002626 593.110232 140.002626 592.690909 
C 140.002626 592.271586 139.836028 591.869381 139.539522 591.572875 
C 139.243016 591.276369 138.840811 591.10977 138.421488 591.10977 
C 138.002165 591.10977 137.59996 591.276369 137.303454 591.572875 
C 137.006948 591.869381 136.840349 592.271586 136.840349 592.690909 
C 136.840349 593.110232 137.006948 593.512437 137.303454 593.808943 
C 137.59996 594.105449 138.002165 594.272048 138.421488 594.272048 
z
" style="fill:#0000ff;stroke:#0000ff;"/>
   </g>
   <g id="text_1">
    <g clip-path="url(#p303f43f498)">
     <!-- B3 -->
     <g style="fill:#0f1010;" transform="translate(594.475622 210.988806)scale(0.07 -0.07)">
      <defs>
       <path d="M 38.375 44.671875 
Q 42.828125 44.671875 45.109375 46.625 
Q 47.40625 48.578125 47.40625 52.390625 
Q 47.40625 56.15625 45.109375 58.125 
Q 42.828125 60.109375 38.375 60.109375 
L 27.984375 60.109375 
L 27.984375 44.671875 
z
M 39.015625 12.796875 
Q 44.671875 12.796875 47.53125 15.1875 
Q 50.390625 17.578125 50.390625 22.40625 
Q 50.390625 27.15625 47.5625 29.515625 
Q 44.734375 31.890625 39.015625 31.890625 
L 27.984375 31.890625 
L 27.984375 12.796875 
z
M 56.5 39.015625 
Q 62.546875 37.25 65.859375 32.515625 
Q 69.1875 27.78125 69.1875 20.90625 
Q 69.1875 10.359375 62.0625 5.171875 
Q 54.9375 0 40.375 0 
L 9.1875 0 
L 9.1875 72.90625 
L 37.40625 72.90625 
Q 52.59375 72.90625 59.40625 68.3125 
Q 66.21875 63.71875 66.21875 53.609375 
Q 66.21875 48.296875 63.71875 44.5625 
Q 61.234375 40.828125 56.5 39.015625 
z
" id="DejaVuSans-Bold-66"/>
       <path d="M 46.578125 39.3125 
Q 53.953125 37.40625 57.78125 32.6875 
Q 61.625 27.984375 61.625 20.703125 
Q 61.625 9.859375 53.3125 4.21875 
Q 45.015625 -1.421875 29.109375 -1.421875 
Q 23.484375 -1.421875 17.84375 -0.515625 
Q 12.203125 0.390625 6.6875 2.203125 
L 6.6875 16.703125 
Q 11.96875 14.0625 17.15625 12.71875 
Q 22.359375 11.375 27.390625 11.375 
Q 34.859375 11.375 38.84375 13.953125 
Q 42.828125 16.546875 42.828125 21.390625 
Q 42.828125 26.375 38.75 28.9375 
Q 34.671875 31.5 26.703125 31.5 
L 19.1875 31.5 
L 19.1875 43.609375 
L 27.09375 43.609375 
Q 34.1875 43.609375 37.640625 45.828125 
Q 41.109375 48.046875 41.109375 52.59375 
Q 41.109375 56.78125 37.734375 59.078125 
Q 34.375 61.375 28.21875 61.375 
Q 23.6875 61.375 19.046875 60.34375 
Q 14.40625 59.328125 9.8125 57.328125 
L 9.8125 71.09375 
Q 15.375 72.65625 20.84375 73.4375 
Q 26.3125 74.21875 31.59375 74.21875 
Q 45.796875 74.21875 52.84375 69.546875 
Q 59.90625 64.890625 59.90625 55.515625 
Q 59.90625 49.125 56.53125 45.046875 
Q 53.171875 40.96875 46.578125 39.3125 
z
" id="DejaVuSans-Bold-51"/>
      </defs>
      <use xlink:href="#DejaVuSans-Bold-66"/>
      <use x="76.220703" xlink:href="#DejaVuSans-Bold-51"/>
     </g>
    </g>
   </g>
   <g id="text_2">
    <g clip-path="url(#p303f43f498)">
     <!-- B5 -->
     <g style="fill:#0f1010;" transform="translate(257.166719 136.440653)scale(0.07 -0.07)">
      <defs>
       <path d="M 10.59375 72.90625 
L 57.328125 72.90625 
L 57.328125 59.078125 
L 25.59375 59.078125 
L 25.59375 47.796875 
Q 27.734375 48.390625 29.90625 48.703125 
Q 32.078125 49.03125 34.421875 49.03125 
Q 47.75 49.03125 55.171875 42.359375 
Q 62.59375 35.6875 62.59375 23.78125 
Q 62.59375 11.96875 54.515625 5.265625 
Q 46.4375 -1.421875 32.078125 -1.421875 
Q 25.875 -1.421875 19.796875 -0.21875 
Q 13.71875 0.984375 7.71875 3.421875 
L 7.71875 18.21875 
Q 13.671875 14.796875 19.015625 13.078125 
Q 24.359375 11.375 29.109375 11.375 
Q 35.9375 11.375 39.859375 14.71875 
Q 43.796875 18.0625 43.796875 23.78125 
Q 43.796875 29.546875 39.859375 32.859375 
Q 35.9375 36.1875 29.109375 36.1875 
Q 25.046875 36.1875 20.453125 35.125 
Q 15.875 34.078125 10.59375 31.890625 
z
" id="DejaVuSans-Bold-53"/>
      </defs>
      <use xlink:href="#DejaVuSans-Bold-66"/>
      <use x="76.220703" xlink:href="#DejaVuSans-Bold-53"/>
     </g>
    </g>
   </g>
   <g id="text_3">
    <g clip-path="url(#p303f43f498)">
     <!-- D3 -->
     <g style="fill:#0f1010;" transform="translate(133.080706 594.622472)scale(0.07 -0.07)">
      <defs>
       <path d="M 27.984375 58.6875 
L 27.984375 14.203125 
L 34.71875 14.203125 
Q 46.234375 14.203125 52.3125 19.921875 
Q 58.40625 25.640625 58.40625 36.53125 
Q 58.40625 47.359375 52.34375 53.015625 
Q 46.296875 58.6875 34.71875 58.6875 
z
M 9.1875 72.90625 
L 29 72.90625 
Q 45.609375 72.90625 53.734375 70.53125 
Q 61.859375 68.171875 67.671875 62.5 
Q 72.796875 57.5625 75.28125 51.109375 
Q 77.78125 44.671875 77.78125 36.53125 
Q 77.78125 28.265625 75.28125 21.796875 
Q 72.796875 15.328125 67.671875 10.40625 
Q 61.8125 4.734375 53.609375 2.359375 
Q 45.40625 0 29 0 
L 9.1875 0 
z
" id="DejaVuSans-Bold-68"/>
      </defs>
      <use xlink:href="#DejaVuSans-Bold-68"/>
      <use x="83.007812" xlink:href="#DejaVuSans-Bold-51"/>
     </g>
    </g>
   </g>
  </g>
 </g>
 <defs>
  <clipPath id="p303f43f498">
   <rect height="554.4" width="558" x="90" y="86.4"/>
  </clipPath>
 </defs>
</svg>
