<?xml version="1.0" encoding="utf-8" standalone="no"?>
<!DOCTYPE svg PUBLIC "-//W3C//DTD SVG 1.1//EN"
  "http://www.w3.org/Graphics/SVG/1.1/DTD/svg11.dtd">
<!-- Created with matplotlib (https://matplotlib.org/) -->
<svg height="720pt" version="1.1" viewBox="0 0 720 720" width="720pt" xmlns="http://www.w3.org/2000/svg" xmlns:xlink="http://www.w3.org/1999/xlink">
 <metadata>
  <rdf:RDF xmlns:cc="http://creativecommons.org/ns#" xmlns:dc="http://purl.org/dc/elements/1.1/" xmlns:rdf="http://www.w3.org/1999/02/22-rdf-syntax-ns#">
   <cc:Work>
    <dc:type rdf:resource="http://purl.org/dc/dcmitype/StillImage"/>
    <dc:date>2020-11-20T00:00:40.590059</dc:date>
    <dc:format>image/svg+xml</dc:format>
    <dc:creator>
     <cc:Agent>
      <dc:title>Matplotlib v3.3.2, https://matplotlib.org/</dc:title>
     </cc:Agent>
    </dc:creator>
   </cc:Work>
  </rdf:RDF>
 </metadata>
 <defs>
  <style type="text/css">*{stroke-linecap:butt;stroke-linejoin:round;}</style>
 </defs>
 <g id="figure_1">
  <g id="patch_1">
   <path d="M 0 720 
L 720 720 
L 720 0 
L 0 0 
z
" style="fill:none;"/>
  </g>
  <g id="axes_1">
   <g id="LineCollection_1">
    <path clip-path="url(#p3312d39646)" d="M 260.298701 111.6 
L 260.298701 153.6 
" style="fill:none;stroke:#f7fbff;stroke-width:2;"/>
    <path clip-path="url(#p3312d39646)" d="M 260.298701 153.6 
L 260.298701 195.6 
" style="fill:none;stroke:#f1f7fd;stroke-width:2;"/>
    <path clip-path="url(#p3312d39646)" d="M 260.298701 195.6 
L 260.298701 237.6 
" style="fill:none;stroke:#eaf2fb;stroke-width:2;"/>
    <path clip-path="url(#p3312d39646)" d="M 260.298701 237.6 
L 115.363636 279.6 
" style="fill:none;stroke:#e3eef8;stroke-width:2;"/>
    <path clip-path="url(#p3312d39646)" d="M 260.298701 237.6 
L 260.298701 279.6 
" style="fill:none;stroke:#dce9f6;stroke-width:2;"/>
    <path clip-path="url(#p3312d39646)" d="M 260.298701 237.6 
L 405.233766 279.6 
" style="fill:none;stroke:#d5e5f4;stroke-width:2;"/>
    <path clip-path="url(#p3312d39646)" d="M 115.363636 279.6 
L 115.363636 321.6 
" style="fill:none;stroke:#cfe1f2;stroke-width:2;"/>
    <path clip-path="url(#p3312d39646)" d="M 260.298701 279.6 
L 260.298701 321.6 
" style="fill:none;stroke:#c8dcf0;stroke-width:2;"/>
    <path clip-path="url(#p3312d39646)" d="M 405.233766 279.6 
L 405.233766 321.6 
" style="fill:none;stroke:#bed8ec;stroke-width:2;"/>
    <path clip-path="url(#p3312d39646)" d="M 405.233766 321.6 
L 260.298701 363.6 
" style="fill:none;stroke:#b3d3e8;stroke-width:2;"/>
    <path clip-path="url(#p3312d39646)" d="M 405.233766 321.6 
L 405.233766 363.6 
" style="fill:none;stroke:#a8cee4;stroke-width:2;"/>
    <path clip-path="url(#p3312d39646)" d="M 405.233766 321.6 
L 550.168831 363.6 
" style="fill:none;stroke:#9cc9e1;stroke-width:2;"/>
    <path clip-path="url(#p3312d39646)" d="M 260.298701 363.6 
L 260.298701 405.6 
" style="fill:none;stroke:#8fc2de;stroke-width:2;"/>
    <path clip-path="url(#p3312d39646)" d="M 260.298701 405.6 
L 187.831169 447.6 
" style="fill:none;stroke:#81badb;stroke-width:2;"/>
    <path clip-path="url(#p3312d39646)" d="M 260.298701 405.6 
L 332.766234 447.6 
" style="fill:none;stroke:#72b2d8;stroke-width:2;"/>
    <path clip-path="url(#p3312d39646)" d="M 187.831169 447.6 
L 115.363636 489.6 
" style="fill:none;stroke:#65aad4;stroke-width:2;"/>
    <path clip-path="url(#p3312d39646)" d="M 187.831169 447.6 
L 260.298701 489.6 
" style="fill:none;stroke:#5aa2cf;stroke-width:2;"/>
    <path clip-path="url(#p3312d39646)" d="M 115.363636 489.6 
L 115.363636 531.6 
" style="fill:none;stroke:#4e9acb;stroke-width:2;"/>
    <path clip-path="url(#p3312d39646)" d="M 260.298701 489.6 
L 260.298701 531.6 
" style="fill:none;stroke:#4493c7;stroke-width:2;"/>
    <path clip-path="url(#p3312d39646)" d="M 260.298701 531.6 
L 260.298701 573.6 
" style="fill:none;stroke:#3a8ac2;stroke-width:2;"/>
    <path clip-path="url(#p3312d39646)" d="M 405.233766 363.6 
L 405.233766 405.6 
" style="fill:none;stroke:#3181bd;stroke-width:2;"/>
    <path clip-path="url(#p3312d39646)" d="M 550.168831 363.6 
L 550.168831 405.6 
" style="fill:none;stroke:#2777b8;stroke-width:2;"/>
    <path clip-path="url(#p3312d39646)" d="M 550.168831 405.6 
L 477.701299 447.6 
" style="fill:none;stroke:#1f6eb3;stroke-width:2;"/>
    <path clip-path="url(#p3312d39646)" d="M 550.168831 405.6 
L 622.636364 447.6 
" style="fill:none;stroke:#1865ac;stroke-width:2;"/>
    <path clip-path="url(#p3312d39646)" d="M 622.636364 447.6 
L 622.636364 489.6 
" style="fill:none;stroke:#125da6;stroke-width:2;"/>
    <path clip-path="url(#p3312d39646)" d="M 622.636364 489.6 
L 622.636364 531.6 
" style="fill:none;stroke:#0a549e;stroke-width:2;"/>
    <path clip-path="url(#p3312d39646)" d="M 622.636364 531.6 
L 477.701299 573.6 
" style="fill:none;stroke:#084b93;stroke-width:2;"/>
    <path clip-path="url(#p3312d39646)" d="M 622.636364 531.6 
L 622.636364 573.6 
" style="fill:none;stroke:#084285;stroke-width:2;"/>
    <path clip-path="url(#p3312d39646)" d="M 477.701299 573.6 
L 477.701299 615.6 
" style="fill:none;stroke:#083877;stroke-width:2;"/>
    <path clip-path="url(#p3312d39646)" d="M 622.636364 573.6 
L 622.636364 615.6 
" style="fill:none;stroke:#08306b;stroke-width:2;"/>
   </g>
   <g id="PathCollection_1">
    <path clip-path="url(#p3312d39646)" d="M 260.298701 113.181139 
C 260.718024 113.181139 261.120229 113.01454 261.416735 112.718034 
C 261.713241 112.421528 261.87984 112.019323 261.87984 111.6 
C 261.87984 111.180677 261.713241 110.778472 261.416735 110.481966 
C 261.120229 110.18546 260.718024 110.018861 260.298701 110.018861 
C 259.879378 110.018861 259.477173 110.18546 259.180667 110.481966 
C 258.884161 110.778472 258.717562 111.180677 258.717562 111.6 
C 258.717562 112.019323 258.884161 112.421528 259.180667 112.718034 
C 259.477173 113.01454 259.879378 113.181139 260.298701 113.181139 
z
" style="fill:#0000ff;stroke:#0000ff;"/>
    <path clip-path="url(#p3312d39646)" d="M 260.298701 155.836068 
C 260.891713 155.836068 261.460517 155.600462 261.87984 155.181139 
C 262.299163 154.761816 262.534769 154.193012 262.534769 153.6 
C 262.534769 153.006988 262.299163 152.438184 261.87984 152.018861 
C 261.460517 151.599538 260.891713 151.363932 260.298701 151.363932 
C 259.705689 151.363932 259.136885 151.599538 258.717562 152.018861 
C 258.29824 152.438184 258.062633 153.006988 258.062633 153.6 
C 258.062633 154.193012 258.29824 154.761816 258.717562 155.181139 
C 259.136885 155.600462 259.705689 155.836068 260.298701 155.836068 
z
" style="fill:#0055d4;stroke:#0055d4;"/>
    <path clip-path="url(#p3312d39646)" d="M 260.298701 197.836068 
C 260.891713 197.836068 261.460517 197.600462 261.87984 197.181139 
C 262.299163 196.761816 262.534769 196.193012 262.534769 195.6 
C 262.534769 195.006988 262.299163 194.438184 261.87984 194.018861 
C 261.460517 193.599538 260.891713 193.363932 260.298701 193.363932 
C 259.705689 193.363932 259.136885 193.599538 258.717562 194.018861 
C 258.29824 194.438184 258.062633 195.006988 258.062633 195.6 
C 258.062633 196.193012 258.29824 196.761816 258.717562 197.181139 
C 259.136885 197.600462 259.705689 197.836068 260.298701 197.836068 
z
" style="fill:#0055d4;stroke:#0055d4;"/>
    <path clip-path="url(#p3312d39646)" d="M 260.298701 240.762278 
C 261.137347 240.762278 261.941757 240.42908 262.534769 239.836068 
C 263.127781 239.243056 263.460979 238.438646 263.460979 237.6 
C 263.460979 236.761354 263.127781 235.956944 262.534769 235.363932 
C 261.941757 234.77092 261.137347 234.437722 260.298701 234.437722 
C 259.460055 234.437722 258.655645 234.77092 258.062633 235.363932 
C 257.469621 235.956944 257.136424 236.761354 257.136424 237.6 
C 257.136424 238.438646 257.469621 239.243056 258.062633 239.836068 
C 258.655645 240.42908 259.460055 240.762278 260.298701 240.762278 
z
" style="fill:#00ff80;stroke:#00ff80;"/>
    <path clip-path="url(#p3312d39646)" d="M 115.363636 281.836068 
C 115.956649 281.836068 116.525452 281.600462 116.944775 281.181139 
C 117.364098 280.761816 117.599704 280.193012 117.599704 279.6 
C 117.599704 279.006988 117.364098 278.438184 116.944775 278.018861 
C 116.525452 277.599538 115.956649 277.363932 115.363636 277.363932 
C 114.770624 277.363932 114.20182 277.599538 113.782498 278.018861 
C 113.363175 278.438184 113.127568 279.006988 113.127568 279.6 
C 113.127568 280.193012 113.363175 280.761816 113.782498 281.181139 
C 114.20182 281.600462 114.770624 281.836068 115.363636 281.836068 
z
" style="fill:#0055d4;stroke:#0055d4;"/>
    <path clip-path="url(#p3312d39646)" d="M 115.363636 323.181139 
C 115.782959 323.181139 116.185164 323.01454 116.48167 322.718034 
C 116.778176 322.421528 116.944775 322.019323 116.944775 321.6 
C 116.944775 321.180677 116.778176 320.778472 116.48167 320.481966 
C 116.185164 320.18546 115.782959 320.018861 115.363636 320.018861 
C 114.944313 320.018861 114.542108 320.18546 114.245602 320.481966 
C 113.949096 320.778472 113.782498 321.180677 113.782498 321.6 
C 113.782498 322.019323 113.949096 322.421528 114.245602 322.718034 
C 114.542108 323.01454 114.944313 323.181139 115.363636 323.181139 
z
" style="fill:#0000ff;stroke:#0000ff;"/>
    <path clip-path="url(#p3312d39646)" d="M 260.298701 281.836068 
C 260.891713 281.836068 261.460517 281.600462 261.87984 281.181139 
C 262.299163 280.761816 262.534769 280.193012 262.534769 279.6 
C 262.534769 279.006988 262.299163 278.438184 261.87984 278.018861 
C 261.460517 277.599538 260.891713 277.363932 260.298701 277.363932 
C 259.705689 277.363932 259.136885 277.599538 258.717562 278.018861 
C 258.29824 278.438184 258.062633 279.006988 258.062633 279.6 
C 258.062633 280.193012 258.29824 280.761816 258.717562 281.181139 
C 259.136885 281.600462 259.705689 281.836068 260.298701 281.836068 
z
" style="fill:#0055d4;stroke:#0055d4;"/>
    <path clip-path="url(#p3312d39646)" d="M 260.298701 323.181139 
C 260.718024 323.181139 261.120229 323.01454 261.416735 322.718034 
C 261.713241 322.421528 261.87984 322.019323 261.87984 321.6 
C 261.87984 321.180677 261.713241 320.778472 261.416735 320.481966 
C 261.120229 320.18546 260.718024 320.018861 260.298701 320.018861 
C 259.879378 320.018861 259.477173 320.18546 259.180667 320.481966 
C 258.884161 320.778472 258.717562 321.180677 258.717562 321.6 
C 258.717562 322.019323 258.884161 322.421528 259.180667 322.718034 
C 259.477173 323.01454 259.879378 323.181139 260.298701 323.181139 
z
" style="fill:#0000ff;stroke:#0000ff;"/>
    <path clip-path="url(#p3312d39646)" d="M 405.233766 281.836068 
C 405.826778 281.836068 406.395582 281.600462 406.814905 281.181139 
C 407.234228 280.761816 407.469834 280.193012 407.469834 279.6 
C 407.469834 279.006988 407.234228 278.438184 406.814905 278.018861 
C 406.395582 277.599538 405.826778 277.363932 405.233766 277.363932 
C 404.640754 277.363932 404.07195 277.599538 403.652627 278.018861 
C 403.233304 278.438184 402.997698 279.006988 402.997698 279.6 
C 402.997698 280.193012 403.233304 280.761816 403.652627 281.181139 
C 404.07195 281.600462 404.640754 281.836068 405.233766 281.836068 
z
" style="fill:#0055d4;stroke:#0055d4;"/>
    <path clip-path="url(#p3312d39646)" d="M 405.233766 324.762278 
C 406.072412 324.762278 406.876822 324.42908 407.469834 323.836068 
C 408.062846 323.243056 408.396044 322.438646 408.396044 321.6 
C 408.396044 320.761354 408.062846 319.956944 407.469834 319.363932 
C 406.876822 318.77092 406.072412 318.437722 405.233766 318.437722 
C 404.39512 318.437722 403.59071 318.77092 402.997698 319.363932 
C 402.404686 319.956944 402.071489 320.761354 402.071489 321.6 
C 402.071489 322.438646 402.404686 323.243056 402.997698 323.836068 
C 403.59071 324.42908 404.39512 324.762278 405.233766 324.762278 
z
" style="fill:#00ff80;stroke:#00ff80;"/>
    <path clip-path="url(#p3312d39646)" d="M 260.298701 365.836068 
C 260.891713 365.836068 261.460517 365.600462 261.87984 365.181139 
C 262.299163 364.761816 262.534769 364.193012 262.534769 363.6 
C 262.534769 363.006988 262.299163 362.438184 261.87984 362.018861 
C 261.460517 361.599538 260.891713 361.363932 260.298701 361.363932 
C 259.705689 361.363932 259.136885 361.599538 258.717562 362.018861 
C 258.29824 362.438184 258.062633 363.006988 258.062633 363.6 
C 258.062633 364.193012 258.29824 364.761816 258.717562 365.181139 
C 259.136885 365.600462 259.705689 365.836068 260.298701 365.836068 
z
" style="fill:#0055d4;stroke:#0055d4;"/>
    <path clip-path="url(#p3312d39646)" d="M 260.298701 408.338613 
C 261.02499 408.338613 261.721629 408.050055 262.235193 407.536492 
C 262.748757 407.022928 263.037314 406.326289 263.037314 405.6 
C 263.037314 404.873711 262.748757 404.177072 262.235193 403.663508 
C 261.721629 403.149945 261.02499 402.861387 260.298701 402.861387 
C 259.572413 402.861387 258.875773 403.149945 258.36221 403.663508 
C 257.848646 404.177072 257.560089 404.873711 257.560089 405.6 
C 257.560089 406.326289 257.848646 407.022928 258.36221 407.536492 
C 258.875773 408.050055 259.572413 408.338613 260.298701 408.338613 
z
" style="fill:#00aaaa;stroke:#00aaaa;"/>
    <path clip-path="url(#p3312d39646)" d="M 187.831169 450.338613 
C 188.557457 450.338613 189.254097 450.050055 189.767661 449.536492 
C 190.281224 449.022928 190.569782 448.326289 190.569782 447.6 
C 190.569782 446.873711 190.281224 446.177072 189.767661 445.663508 
C 189.254097 445.149945 188.557457 444.861387 187.831169 444.861387 
C 187.10488 444.861387 186.408241 445.149945 185.894677 445.663508 
C 185.381114 446.177072 185.092556 446.873711 185.092556 447.6 
C 185.092556 448.326289 185.381114 449.022928 185.894677 449.536492 
C 186.408241 450.050055 187.10488 450.338613 187.831169 450.338613 
z
" style="fill:#00aaaa;stroke:#00aaaa;"/>
    <path clip-path="url(#p3312d39646)" d="M 115.363636 491.836068 
C 115.956649 491.836068 116.525452 491.600462 116.944775 491.181139 
C 117.364098 490.761816 117.599704 490.193012 117.599704 489.6 
C 117.599704 489.006988 117.364098 488.438184 116.944775 488.018861 
C 116.525452 487.599538 115.956649 487.363932 115.363636 487.363932 
C 114.770624 487.363932 114.20182 487.599538 113.782498 488.018861 
C 113.363175 488.438184 113.127568 489.006988 113.127568 489.6 
C 113.127568 490.193012 113.363175 490.761816 113.782498 491.181139 
C 114.20182 491.600462 114.770624 491.836068 115.363636 491.836068 
z
" style="fill:#0055d4;stroke:#0055d4;"/>
    <path clip-path="url(#p3312d39646)" d="M 115.363636 533.181139 
C 115.782959 533.181139 116.185164 533.01454 116.48167 532.718034 
C 116.778176 532.421528 116.944775 532.019323 116.944775 531.6 
C 116.944775 531.180677 116.778176 530.778472 116.48167 530.481966 
C 116.185164 530.18546 115.782959 530.018861 115.363636 530.018861 
C 114.944313 530.018861 114.542108 530.18546 114.245602 530.481966 
C 113.949096 530.778472 113.782498 531.180677 113.782498 531.6 
C 113.782498 532.019323 113.949096 532.421528 114.245602 532.718034 
C 114.542108 533.01454 114.944313 533.181139 115.363636 533.181139 
z
" style="fill:#0000ff;stroke:#0000ff;"/>
    <path clip-path="url(#p3312d39646)" d="M 260.298701 491.836068 
C 260.891713 491.836068 261.460517 491.600462 261.87984 491.181139 
C 262.299163 490.761816 262.534769 490.193012 262.534769 489.6 
C 262.534769 489.006988 262.299163 488.438184 261.87984 488.018861 
C 261.460517 487.599538 260.891713 487.363932 260.298701 487.363932 
C 259.705689 487.363932 259.136885 487.599538 258.717562 488.018861 
C 258.29824 488.438184 258.062633 489.006988 258.062633 489.6 
C 258.062633 490.193012 258.29824 490.761816 258.717562 491.181139 
C 259.136885 491.600462 259.705689 491.836068 260.298701 491.836068 
z
" style="fill:#0055d4;stroke:#0055d4;"/>
    <path clip-path="url(#p3312d39646)" d="M 260.298701 533.836068 
C 260.891713 533.836068 261.460517 533.600462 261.87984 533.181139 
C 262.299163 532.761816 262.534769 532.193012 262.534769 531.6 
C 262.534769 531.006988 262.299163 530.438184 261.87984 530.018861 
C 261.460517 529.599538 260.891713 529.363932 260.298701 529.363932 
C 259.705689 529.363932 259.136885 529.599538 258.717562 530.018861 
C 258.29824 530.438184 258.062633 531.006988 258.062633 531.6 
C 258.062633 532.193012 258.29824 532.761816 258.717562 533.181139 
C 259.136885 533.600462 259.705689 533.836068 260.298701 533.836068 
z
" style="fill:#0055d4;stroke:#0055d4;"/>
    <path clip-path="url(#p3312d39646)" d="M 260.298701 575.181139 
C 260.718024 575.181139 261.120229 575.01454 261.416735 574.718034 
C 261.713241 574.421528 261.87984 574.019323 261.87984 573.6 
C 261.87984 573.180677 261.713241 572.778472 261.416735 572.481966 
C 261.120229 572.18546 260.718024 572.018861 260.298701 572.018861 
C 259.879378 572.018861 259.477173 572.18546 259.180667 572.481966 
C 258.884161 572.778472 258.717562 573.180677 258.717562 573.6 
C 258.717562 574.019323 258.884161 574.421528 259.180667 574.718034 
C 259.477173 575.01454 259.879378 575.181139 260.298701 575.181139 
z
" style="fill:#0000ff;stroke:#0000ff;"/>
    <path clip-path="url(#p3312d39646)" d="M 332.766234 449.181139 
C 333.185557 449.181139 333.587762 449.01454 333.884268 448.718034 
C 334.180774 448.421528 334.347373 448.019323 334.347373 447.6 
C 334.347373 447.180677 334.180774 446.778472 333.884268 446.481966 
C 333.587762 446.18546 333.185557 446.018861 332.766234 446.018861 
C 332.346911 446.018861 331.944706 446.18546 331.6482 446.481966 
C 331.351694 446.778472 331.185095 447.180677 331.185095 447.6 
C 331.185095 448.019323 331.351694 448.421528 331.6482 448.718034 
C 331.944706 449.01454 332.346911 449.181139 332.766234 449.181139 
z
" style="fill:#0000ff;stroke:#0000ff;"/>
    <path clip-path="url(#p3312d39646)" d="M 405.233766 365.836068 
C 405.826778 365.836068 406.395582 365.600462 406.814905 365.181139 
C 407.234228 364.761816 407.469834 364.193012 407.469834 363.6 
C 407.469834 363.006988 407.234228 362.438184 406.814905 362.018861 
C 406.395582 361.599538 405.826778 361.363932 405.233766 361.363932 
C 404.640754 361.363932 404.07195 361.599538 403.652627 362.018861 
C 403.233304 362.438184 402.997698 363.006988 402.997698 363.6 
C 402.997698 364.193012 403.233304 364.761816 403.652627 365.181139 
C 404.07195 365.600462 404.640754 365.836068 405.233766 365.836068 
z
" style="fill:#0055d4;stroke:#0055d4;"/>
    <path clip-path="url(#p3312d39646)" d="M 405.233766 407.181139 
C 405.653089 407.181139 406.055294 407.01454 406.3518 406.718034 
C 406.648306 406.421528 406.814905 406.019323 406.814905 405.6 
C 406.814905 405.180677 406.648306 404.778472 406.3518 404.481966 
C 406.055294 404.18546 405.653089 404.018861 405.233766 404.018861 
C 404.814443 404.018861 404.412238 404.18546 404.115732 404.481966 
C 403.819226 404.778472 403.652627 405.180677 403.652627 405.6 
C 403.652627 406.019323 403.819226 406.421528 404.115732 406.718034 
C 404.412238 407.01454 404.814443 407.181139 405.233766 407.181139 
z
" style="fill:#0000ff;stroke:#0000ff;"/>
    <path clip-path="url(#p3312d39646)" d="M 550.168831 365.836068 
C 550.761843 365.836068 551.330647 365.600462 551.74997 365.181139 
C 552.169293 364.761816 552.404899 364.193012 552.404899 363.6 
C 552.404899 363.006988 552.169293 362.438184 551.74997 362.018861 
C 551.330647 361.599538 550.761843 361.363932 550.168831 361.363932 
C 549.575819 361.363932 549.007015 361.599538 548.587692 362.018861 
C 548.168369 362.438184 547.932763 363.006988 547.932763 363.6 
C 547.932763 364.193012 548.168369 364.761816 548.587692 365.181139 
C 549.007015 365.600462 549.575819 365.836068 550.168831 365.836068 
z
" style="fill:#0055d4;stroke:#0055d4;"/>
    <path clip-path="url(#p3312d39646)" d="M 550.168831 408.338613 
C 550.89512 408.338613 551.591759 408.050055 552.105323 407.536492 
C 552.618886 407.022928 552.907444 406.326289 552.907444 405.6 
C 552.907444 404.873711 552.618886 404.177072 552.105323 403.663508 
C 551.591759 403.149945 550.89512 402.861387 550.168831 402.861387 
C 549.442543 402.861387 548.745903 403.149945 548.232339 403.663508 
C 547.718776 404.177072 547.430218 404.873711 547.430218 405.6 
C 547.430218 406.326289 547.718776 407.022928 548.232339 407.536492 
C 548.745903 408.050055 549.442543 408.338613 550.168831 408.338613 
z
" style="fill:#00aaaa;stroke:#00aaaa;"/>
    <path clip-path="url(#p3312d39646)" d="M 477.701299 449.181139 
C 478.120622 449.181139 478.522827 449.01454 478.819333 448.718034 
C 479.115839 448.421528 479.282438 448.019323 479.282438 447.6 
C 479.282438 447.180677 479.115839 446.778472 478.819333 446.481966 
C 478.522827 446.18546 478.120622 446.018861 477.701299 446.018861 
C 477.281976 446.018861 476.879771 446.18546 476.583265 446.481966 
C 476.286759 446.778472 476.12016 447.180677 476.12016 447.6 
C 476.12016 448.019323 476.286759 448.421528 476.583265 448.718034 
C 476.879771 449.01454 477.281976 449.181139 477.701299 449.181139 
z
" style="fill:#0000ff;stroke:#0000ff;"/>
    <path clip-path="url(#p3312d39646)" d="M 622.636364 449.836068 
C 623.229376 449.836068 623.79818 449.600462 624.217502 449.181139 
C 624.636825 448.761816 624.872432 448.193012 624.872432 447.6 
C 624.872432 447.006988 624.636825 446.438184 624.217502 446.018861 
C 623.79818 445.599538 623.229376 445.363932 622.636364 445.363932 
C 622.043351 445.363932 621.474548 445.599538 621.055225 446.018861 
C 620.635902 446.438184 620.400296 447.006988 620.400296 447.6 
C 620.400296 448.193012 620.635902 448.761816 621.055225 449.181139 
C 621.474548 449.600462 622.043351 449.836068 622.636364 449.836068 
z
" style="fill:#0055d4;stroke:#0055d4;"/>
    <path clip-path="url(#p3312d39646)" d="M 622.636364 491.836068 
C 623.229376 491.836068 623.79818 491.600462 624.217502 491.181139 
C 624.636825 490.761816 624.872432 490.193012 624.872432 489.6 
C 624.872432 489.006988 624.636825 488.438184 624.217502 488.018861 
C 623.79818 487.599538 623.229376 487.363932 622.636364 487.363932 
C 622.043351 487.363932 621.474548 487.599538 621.055225 488.018861 
C 620.635902 488.438184 620.400296 489.006988 620.400296 489.6 
C 620.400296 490.193012 620.635902 490.761816 621.055225 491.181139 
C 621.474548 491.600462 622.043351 491.836068 622.636364 491.836068 
z
" style="fill:#0055d4;stroke:#0055d4;"/>
    <path clip-path="url(#p3312d39646)" d="M 622.636364 534.338613 
C 623.362652 534.338613 624.059292 534.050055 624.572855 533.536492 
C 625.086419 533.022928 625.374976 532.326289 625.374976 531.6 
C 625.374976 530.873711 625.086419 530.177072 624.572855 529.663508 
C 624.059292 529.149945 623.362652 528.861387 622.636364 528.861387 
C 621.910075 528.861387 621.213436 529.149945 620.699872 529.663508 
C 620.186308 530.177072 619.897751 530.873711 619.897751 531.6 
C 619.897751 532.326289 620.186308 533.022928 620.699872 533.536492 
C 621.213436 534.050055 621.910075 534.338613 622.636364 534.338613 
z
" style="fill:#00aaaa;stroke:#00aaaa;"/>
    <path clip-path="url(#p3312d39646)" d="M 477.701299 575.836068 
C 478.294311 575.836068 478.863115 575.600462 479.282438 575.181139 
C 479.70176 574.761816 479.937367 574.193012 479.937367 573.6 
C 479.937367 573.006988 479.70176 572.438184 479.282438 572.018861 
C 478.863115 571.599538 478.294311 571.363932 477.701299 571.363932 
C 477.108287 571.363932 476.539483 571.599538 476.12016 572.018861 
C 475.700837 572.438184 475.465231 573.006988 475.465231 573.6 
C 475.465231 574.193012 475.700837 574.761816 476.12016 575.181139 
C 476.539483 575.600462 477.108287 575.836068 477.701299 575.836068 
z
" style="fill:#0055d4;stroke:#0055d4;"/>
    <path clip-path="url(#p3312d39646)" d="M 477.701299 617.181139 
C 478.120622 617.181139 478.522827 617.01454 478.819333 616.718034 
C 479.115839 616.421528 479.282438 616.019323 479.282438 615.6 
C 479.282438 615.180677 479.115839 614.778472 478.819333 614.481966 
C 478.522827 614.18546 478.120622 614.018861 477.701299 614.018861 
C 477.281976 614.018861 476.879771 614.18546 476.583265 614.481966 
C 476.286759 614.778472 476.12016 615.180677 476.12016 615.6 
C 476.12016 616.019323 476.286759 616.421528 476.583265 616.718034 
C 476.879771 617.01454 477.281976 617.181139 477.701299 617.181139 
z
" style="fill:#0000ff;stroke:#0000ff;"/>
    <path clip-path="url(#p3312d39646)" d="M 622.636364 575.836068 
C 623.229376 575.836068 623.79818 575.600462 624.217502 575.181139 
C 624.636825 574.761816 624.872432 574.193012 624.872432 573.6 
C 624.872432 573.006988 624.636825 572.438184 624.217502 572.018861 
C 623.79818 571.599538 623.229376 571.363932 622.636364 571.363932 
C 622.043351 571.363932 621.474548 571.599538 621.055225 572.018861 
C 620.635902 572.438184 620.400296 573.006988 620.400296 573.6 
C 620.400296 574.193012 620.635902 574.761816 621.055225 575.181139 
C 621.474548 575.600462 622.043351 575.836068 622.636364 575.836068 
z
" style="fill:#0055d4;stroke:#0055d4;"/>
    <path clip-path="url(#p3312d39646)" d="M 622.636364 617.181139 
C 623.055687 617.181139 623.457892 617.01454 623.754398 616.718034 
C 624.050904 616.421528 624.217502 616.019323 624.217502 615.6 
C 624.217502 615.180677 624.050904 614.778472 623.754398 614.481966 
C 623.457892 614.18546 623.055687 614.018861 622.636364 614.018861 
C 622.217041 614.018861 621.814836 614.18546 621.51833 614.481966 
C 621.221824 614.778472 621.055225 615.180677 621.055225 615.6 
C 621.055225 616.019323 621.221824 616.421528 621.51833 616.718034 
C 621.814836 617.01454 622.217041 617.181139 622.636364 617.181139 
z
" style="fill:#0000ff;stroke:#0000ff;"/>
   </g>
   <g id="text_1">
    <g clip-path="url(#p3312d39646)">
     <!-- C4 -->
     <g style="fill:#ffffff;" transform="translate(255.627842 113.531563)scale(0.07 -0.07)">
      <defs>
       <path d="M 64.40625 67.28125 
L 64.40625 56.890625 
Q 59.421875 61.53125 53.78125 63.8125 
Q 48.140625 66.109375 41.796875 66.109375 
Q 29.296875 66.109375 22.65625 58.46875 
Q 16.015625 50.828125 16.015625 36.375 
Q 16.015625 21.96875 22.65625 14.328125 
Q 29.296875 6.6875 41.796875 6.6875 
Q 48.140625 6.6875 53.78125 8.984375 
Q 59.421875 11.28125 64.40625 15.921875 
L 64.40625 5.609375 
Q 59.234375 2.09375 53.4375 0.328125 
Q 47.65625 -1.421875 41.21875 -1.421875 
Q 24.65625 -1.421875 15.125 8.703125 
Q 5.609375 18.84375 5.609375 36.375 
Q 5.609375 53.953125 15.125 64.078125 
Q 24.65625 74.21875 41.21875 74.21875 
Q 47.75 74.21875 53.53125 72.484375 
Q 59.328125 70.75 64.40625 67.28125 
z
" id="DejaVuSans-67"/>
       <path d="M 37.796875 64.3125 
L 12.890625 25.390625 
L 37.796875 25.390625 
z
M 35.203125 72.90625 
L 47.609375 72.90625 
L 47.609375 25.390625 
L 58.015625 25.390625 
L 58.015625 17.1875 
L 47.609375 17.1875 
L 47.609375 0 
L 37.796875 0 
L 37.796875 17.1875 
L 4.890625 17.1875 
L 4.890625 26.703125 
z
" id="DejaVuSans-52"/>
      </defs>
      <use xlink:href="#DejaVuSans-67"/>
      <use x="69.824219" xlink:href="#DejaVuSans-52"/>
     </g>
    </g>
   </g>
   <g id="text_2">
    <g clip-path="url(#p3312d39646)">
     <!-- Eb4 -->
     <g style="fill:#ffffff;" transform="translate(253.638311 155.531562)scale(0.07 -0.07)">
      <defs>
       <path d="M 9.8125 72.90625 
L 55.90625 72.90625 
L 55.90625 64.59375 
L 19.671875 64.59375 
L 19.671875 43.015625 
L 54.390625 43.015625 
L 54.390625 34.71875 
L 19.671875 34.71875 
L 19.671875 8.296875 
L 56.78125 8.296875 
L 56.78125 0 
L 9.8125 0 
z
" id="DejaVuSans-69"/>
       <path d="M 48.6875 27.296875 
Q 48.6875 37.203125 44.609375 42.84375 
Q 40.53125 48.484375 33.40625 48.484375 
Q 26.265625 48.484375 22.1875 42.84375 
Q 18.109375 37.203125 18.109375 27.296875 
Q 18.109375 17.390625 22.1875 11.75 
Q 26.265625 6.109375 33.40625 6.109375 
Q 40.53125 6.109375 44.609375 11.75 
Q 48.6875 17.390625 48.6875 27.296875 
z
M 18.109375 46.390625 
Q 20.953125 51.265625 25.265625 53.625 
Q 29.59375 56 35.59375 56 
Q 45.5625 56 51.78125 48.09375 
Q 58.015625 40.1875 58.015625 27.296875 
Q 58.015625 14.40625 51.78125 6.484375 
Q 45.5625 -1.421875 35.59375 -1.421875 
Q 29.59375 -1.421875 25.265625 0.953125 
Q 20.953125 3.328125 18.109375 8.203125 
L 18.109375 0 
L 9.078125 0 
L 9.078125 75.984375 
L 18.109375 75.984375 
z
" id="DejaVuSans-98"/>
      </defs>
      <use xlink:href="#DejaVuSans-69"/>
      <use x="63.183594" xlink:href="#DejaVuSans-98"/>
      <use x="126.660156" xlink:href="#DejaVuSans-52"/>
     </g>
    </g>
   </g>
   <g id="text_3">
    <g clip-path="url(#p3312d39646)">
     <!-- G4 -->
     <g style="fill:#ffffff;" transform="translate(255.359873 197.531563)scale(0.07 -0.07)">
      <defs>
       <path d="M 59.515625 10.40625 
L 59.515625 29.984375 
L 43.40625 29.984375 
L 43.40625 38.09375 
L 69.28125 38.09375 
L 69.28125 6.78125 
Q 63.578125 2.734375 56.6875 0.65625 
Q 49.8125 -1.421875 42 -1.421875 
Q 24.90625 -1.421875 15.25 8.5625 
Q 5.609375 18.5625 5.609375 36.375 
Q 5.609375 54.25 15.25 64.234375 
Q 24.90625 74.21875 42 74.21875 
Q 49.125 74.21875 55.546875 72.453125 
Q 61.96875 70.703125 67.390625 67.28125 
L 67.390625 56.78125 
Q 61.921875 61.421875 55.765625 63.765625 
Q 49.609375 66.109375 42.828125 66.109375 
Q 29.4375 66.109375 22.71875 58.640625 
Q 16.015625 51.171875 16.015625 36.375 
Q 16.015625 21.625 22.71875 14.15625 
Q 29.4375 6.6875 42.828125 6.6875 
Q 48.046875 6.6875 52.140625 7.59375 
Q 56.25 8.5 59.515625 10.40625 
z
" id="DejaVuSans-71"/>
      </defs>
      <use xlink:href="#DejaVuSans-71"/>
      <use x="77.490234" xlink:href="#DejaVuSans-52"/>
     </g>
    </g>
   </g>
   <g id="text_4">
    <g clip-path="url(#p3312d39646)">
     <!-- Ab4 -->
     <g style="fill:#ffffff;" transform="translate(253.455654 239.531563)scale(0.07 -0.07)">
      <defs>
       <path d="M 34.1875 63.1875 
L 20.796875 26.90625 
L 47.609375 26.90625 
z
M 28.609375 72.90625 
L 39.796875 72.90625 
L 67.578125 0 
L 57.328125 0 
L 50.6875 18.703125 
L 17.828125 18.703125 
L 11.1875 0 
L 0.78125 0 
z
" id="DejaVuSans-65"/>
      </defs>
      <use xlink:href="#DejaVuSans-65"/>
      <use x="68.408203" xlink:href="#DejaVuSans-98"/>
      <use x="131.884766" xlink:href="#DejaVuSans-52"/>
     </g>
    </g>
   </g>
   <g id="text_5">
    <g clip-path="url(#p3312d39646)">
     <!-- B3 -->
     <g style="fill:#ffffff;" transform="translate(110.735433 281.531563)scale(0.07 -0.07)">
      <defs>
       <path d="M 19.671875 34.8125 
L 19.671875 8.109375 
L 35.5 8.109375 
Q 43.453125 8.109375 47.28125 11.40625 
Q 51.125 14.703125 51.125 21.484375 
Q 51.125 28.328125 47.28125 31.5625 
Q 43.453125 34.8125 35.5 34.8125 
z
M 19.671875 64.796875 
L 19.671875 42.828125 
L 34.28125 42.828125 
Q 41.5 42.828125 45.03125 45.53125 
Q 48.578125 48.25 48.578125 53.8125 
Q 48.578125 59.328125 45.03125 62.0625 
Q 41.5 64.796875 34.28125 64.796875 
z
M 9.8125 72.90625 
L 35.015625 72.90625 
Q 46.296875 72.90625 52.390625 68.21875 
Q 58.5 63.53125 58.5 54.890625 
Q 58.5 48.1875 55.375 44.234375 
Q 52.25 40.28125 46.1875 39.3125 
Q 53.46875 37.75 57.5 32.78125 
Q 61.53125 27.828125 61.53125 20.40625 
Q 61.53125 10.640625 54.890625 5.3125 
Q 48.25 0 35.984375 0 
L 9.8125 0 
z
" id="DejaVuSans-66"/>
       <path d="M 40.578125 39.3125 
Q 47.65625 37.796875 51.625 33 
Q 55.609375 28.21875 55.609375 21.1875 
Q 55.609375 10.40625 48.1875 4.484375 
Q 40.765625 -1.421875 27.09375 -1.421875 
Q 22.515625 -1.421875 17.65625 -0.515625 
Q 12.796875 0.390625 7.625 2.203125 
L 7.625 11.71875 
Q 11.71875 9.328125 16.59375 8.109375 
Q 21.484375 6.890625 26.8125 6.890625 
Q 36.078125 6.890625 40.9375 10.546875 
Q 45.796875 14.203125 45.796875 21.1875 
Q 45.796875 27.640625 41.28125 31.265625 
Q 36.765625 34.90625 28.71875 34.90625 
L 20.21875 34.90625 
L 20.21875 43.015625 
L 29.109375 43.015625 
Q 36.375 43.015625 40.234375 45.921875 
Q 44.09375 48.828125 44.09375 54.296875 
Q 44.09375 59.90625 40.109375 62.90625 
Q 36.140625 65.921875 28.71875 65.921875 
Q 24.65625 65.921875 20.015625 65.03125 
Q 15.375 64.15625 9.8125 62.3125 
L 9.8125 71.09375 
Q 15.4375 72.65625 20.34375 73.4375 
Q 25.25 74.21875 29.59375 74.21875 
Q 40.828125 74.21875 47.359375 69.109375 
Q 53.90625 64.015625 53.90625 55.328125 
Q 53.90625 49.265625 50.4375 45.09375 
Q 46.96875 40.921875 40.578125 39.3125 
z
" id="DejaVuSans-51"/>
      </defs>
      <use xlink:href="#DejaVuSans-66"/>
      <use x="68.603516" xlink:href="#DejaVuSans-51"/>
     </g>
    </g>
   </g>
   <g id="text_6">
    <g clip-path="url(#p3312d39646)">
     <!-- G3 -->
     <g style="fill:#ffffff;" transform="translate(110.424808 323.531563)scale(0.07 -0.07)">
      <use xlink:href="#DejaVuSans-71"/>
      <use x="77.490234" xlink:href="#DejaVuSans-51"/>
     </g>
    </g>
   </g>
   <g id="text_7">
    <g clip-path="url(#p3312d39646)">
     <!-- D4 -->
     <g style="fill:#ffffff;" transform="translate(255.376826 281.531563)scale(0.07 -0.07)">
      <defs>
       <path d="M 19.671875 64.796875 
L 19.671875 8.109375 
L 31.59375 8.109375 
Q 46.6875 8.109375 53.6875 14.9375 
Q 60.6875 21.78125 60.6875 36.53125 
Q 60.6875 51.171875 53.6875 57.984375 
Q 46.6875 64.796875 31.59375 64.796875 
z
M 9.8125 72.90625 
L 30.078125 72.90625 
Q 51.265625 72.90625 61.171875 64.09375 
Q 71.09375 55.28125 71.09375 36.53125 
Q 71.09375 17.671875 61.125 8.828125 
Q 51.171875 0 30.078125 0 
L 9.8125 0 
z
" id="DejaVuSans-68"/>
      </defs>
      <use xlink:href="#DejaVuSans-68"/>
      <use x="77.001953" xlink:href="#DejaVuSans-52"/>
     </g>
    </g>
   </g>
   <g id="text_8">
    <g clip-path="url(#p3312d39646)">
     <!-- Db4 -->
     <g style="fill:#ffffff;" transform="translate(253.154873 323.531563)scale(0.07 -0.07)">
      <use xlink:href="#DejaVuSans-68"/>
      <use x="77.001953" xlink:href="#DejaVuSans-98"/>
      <use x="140.478516" xlink:href="#DejaVuSans-52"/>
     </g>
    </g>
   </g>
   <g id="text_9">
    <g clip-path="url(#p3312d39646)">
     <!-- Bb4 -->
     <g style="fill:#ffffff;" transform="translate(398.38361 281.531563)scale(0.07 -0.07)">
      <use xlink:href="#DejaVuSans-66"/>
      <use x="68.603516" xlink:href="#DejaVuSans-98"/>
      <use x="132.080078" xlink:href="#DejaVuSans-52"/>
     </g>
    </g>
   </g>
   <g id="text_10">
    <g clip-path="url(#p3312d39646)">
     <!-- C5 -->
     <g style="fill:#ffffff;" transform="translate(400.562907 323.531563)scale(0.07 -0.07)">
      <defs>
       <path d="M 10.796875 72.90625 
L 49.515625 72.90625 
L 49.515625 64.59375 
L 19.828125 64.59375 
L 19.828125 46.734375 
Q 21.96875 47.46875 24.109375 47.828125 
Q 26.265625 48.1875 28.421875 48.1875 
Q 40.625 48.1875 47.75 41.5 
Q 54.890625 34.8125 54.890625 23.390625 
Q 54.890625 11.625 47.5625 5.09375 
Q 40.234375 -1.421875 26.90625 -1.421875 
Q 22.3125 -1.421875 17.546875 -0.640625 
Q 12.796875 0.140625 7.71875 1.703125 
L 7.71875 11.625 
Q 12.109375 9.234375 16.796875 8.0625 
Q 21.484375 6.890625 26.703125 6.890625 
Q 35.15625 6.890625 40.078125 11.328125 
Q 45.015625 15.765625 45.015625 23.390625 
Q 45.015625 31 40.078125 35.4375 
Q 35.15625 39.890625 26.703125 39.890625 
Q 22.75 39.890625 18.8125 39.015625 
Q 14.890625 38.140625 10.796875 36.28125 
z
" id="DejaVuSans-53"/>
      </defs>
      <use xlink:href="#DejaVuSans-67"/>
      <use x="69.824219" xlink:href="#DejaVuSans-53"/>
     </g>
    </g>
   </g>
   <g id="text_11">
    <g clip-path="url(#p3312d39646)">
     <!-- Db5 -->
     <g style="fill:#ffffff;" transform="translate(253.154873 365.531563)scale(0.07 -0.07)">
      <use xlink:href="#DejaVuSans-68"/>
      <use x="77.001953" xlink:href="#DejaVuSans-98"/>
      <use x="140.478516" xlink:href="#DejaVuSans-53"/>
     </g>
    </g>
   </g>
   <g id="text_12">
    <g clip-path="url(#p3312d39646)">
     <!-- Eb5 -->
     <g style="fill:#ffffff;" transform="translate(253.638311 407.531563)scale(0.07 -0.07)">
      <use xlink:href="#DejaVuSans-69"/>
      <use x="63.183594" xlink:href="#DejaVuSans-98"/>
      <use x="126.660156" xlink:href="#DejaVuSans-53"/>
     </g>
    </g>
   </g>
   <g id="text_13">
    <g clip-path="url(#p3312d39646)">
     <!-- F5 -->
     <g style="fill:#ffffff;" transform="translate(183.591247 449.531563)scale(0.07 -0.07)">
      <defs>
       <path d="M 9.8125 72.90625 
L 51.703125 72.90625 
L 51.703125 64.59375 
L 19.671875 64.59375 
L 19.671875 43.109375 
L 48.578125 43.109375 
L 48.578125 34.8125 
L 19.671875 34.8125 
L 19.671875 0 
L 9.8125 0 
z
" id="DejaVuSans-70"/>
      </defs>
      <use xlink:href="#DejaVuSans-70"/>
      <use x="57.519531" xlink:href="#DejaVuSans-53"/>
     </g>
    </g>
   </g>
   <g id="text_14">
    <g clip-path="url(#p3312d39646)">
     <!-- D5 -->
     <g style="fill:#ffffff;" transform="translate(110.441761 491.531563)scale(0.07 -0.07)">
      <use xlink:href="#DejaVuSans-68"/>
      <use x="77.001953" xlink:href="#DejaVuSans-53"/>
     </g>
    </g>
   </g>
   <g id="text_15">
    <g clip-path="url(#p3312d39646)">
     <!-- E5 -->
     <g style="fill:#ffffff;" transform="translate(110.925199 533.531563)scale(0.07 -0.07)">
      <use xlink:href="#DejaVuSans-69"/>
      <use x="63.183594" xlink:href="#DejaVuSans-53"/>
     </g>
    </g>
   </g>
   <g id="text_16">
    <g clip-path="url(#p3312d39646)">
     <!-- G5 -->
     <g style="fill:#ffffff;" transform="translate(255.359873 491.531563)scale(0.07 -0.07)">
      <use xlink:href="#DejaVuSans-71"/>
      <use x="77.490234" xlink:href="#DejaVuSans-53"/>
     </g>
    </g>
   </g>
   <g id="text_17">
    <g clip-path="url(#p3312d39646)">
     <!-- Ab5 -->
     <g style="fill:#ffffff;" transform="translate(253.455654 533.531563)scale(0.07 -0.07)">
      <use xlink:href="#DejaVuSans-65"/>
      <use x="68.408203" xlink:href="#DejaVuSans-98"/>
      <use x="131.884766" xlink:href="#DejaVuSans-53"/>
     </g>
    </g>
   </g>
   <g id="text_18">
    <g clip-path="url(#p3312d39646)">
     <!-- Bb5 -->
     <g style="fill:#ffffff;" transform="translate(253.448545 575.531563)scale(0.07 -0.07)">
      <use xlink:href="#DejaVuSans-66"/>
      <use x="68.603516" xlink:href="#DejaVuSans-98"/>
      <use x="132.080078" xlink:href="#DejaVuSans-53"/>
     </g>
    </g>
   </g>
   <g id="text_19">
    <g clip-path="url(#p3312d39646)">
     <!-- Gb5 -->
     <g style="fill:#ffffff;" transform="translate(325.605453 449.531563)scale(0.07 -0.07)">
      <use xlink:href="#DejaVuSans-71"/>
      <use x="77.490234" xlink:href="#DejaVuSans-98"/>
      <use x="140.966797" xlink:href="#DejaVuSans-53"/>
     </g>
    </g>
   </g>
   <g id="text_20">
    <g clip-path="url(#p3312d39646)">
     <!-- B4 -->
     <g style="fill:#ffffff;" transform="translate(400.605563 365.531563)scale(0.07 -0.07)">
      <use xlink:href="#DejaVuSans-66"/>
      <use x="68.603516" xlink:href="#DejaVuSans-52"/>
     </g>
    </g>
   </g>
   <g id="text_21">
    <g clip-path="url(#p3312d39646)">
     <!-- A4 -->
     <g style="fill:#ffffff;" transform="translate(400.612672 407.531563)scale(0.07 -0.07)">
      <use xlink:href="#DejaVuSans-65"/>
      <use x="68.408203" xlink:href="#DejaVuSans-52"/>
     </g>
    </g>
   </g>
   <g id="text_22">
    <g clip-path="url(#p3312d39646)">
     <!-- E4 -->
     <g style="fill:#ffffff;" transform="translate(545.730394 365.531563)scale(0.07 -0.07)">
      <use xlink:href="#DejaVuSans-69"/>
      <use x="63.183594" xlink:href="#DejaVuSans-52"/>
     </g>
    </g>
   </g>
   <g id="text_23">
    <g clip-path="url(#p3312d39646)">
     <!-- F4 -->
     <g style="fill:#ffffff;" transform="translate(545.928909 407.531563)scale(0.07 -0.07)">
      <use xlink:href="#DejaVuSans-70"/>
      <use x="57.519531" xlink:href="#DejaVuSans-52"/>
     </g>
    </g>
   </g>
   <g id="text_24">
    <g clip-path="url(#p3312d39646)">
     <!-- Gb4 -->
     <g style="fill:#ffffff;" transform="translate(470.540517 449.531563)scale(0.07 -0.07)">
      <use xlink:href="#DejaVuSans-71"/>
      <use x="77.490234" xlink:href="#DejaVuSans-98"/>
      <use x="140.966797" xlink:href="#DejaVuSans-52"/>
     </g>
    </g>
   </g>
   <g id="text_25">
    <g clip-path="url(#p3312d39646)">
     <!-- C2 -->
     <g style="fill:#ffffff;" transform="translate(617.965504 449.531563)scale(0.07 -0.07)">
      <defs>
       <path d="M 19.1875 8.296875 
L 53.609375 8.296875 
L 53.609375 0 
L 7.328125 0 
L 7.328125 8.296875 
Q 12.9375 14.109375 22.625 23.890625 
Q 32.328125 33.6875 34.8125 36.53125 
Q 39.546875 41.84375 41.421875 45.53125 
Q 43.3125 49.21875 43.3125 52.78125 
Q 43.3125 58.59375 39.234375 62.25 
Q 35.15625 65.921875 28.609375 65.921875 
Q 23.96875 65.921875 18.8125 64.3125 
Q 13.671875 62.703125 7.8125 59.421875 
L 7.8125 69.390625 
Q 13.765625 71.78125 18.9375 73 
Q 24.125 74.21875 28.421875 74.21875 
Q 39.75 74.21875 46.484375 68.546875 
Q 53.21875 62.890625 53.21875 53.421875 
Q 53.21875 48.921875 51.53125 44.890625 
Q 49.859375 40.875 45.40625 35.40625 
Q 44.1875 33.984375 37.640625 27.21875 
Q 31.109375 20.453125 19.1875 8.296875 
z
" id="DejaVuSans-50"/>
      </defs>
      <use xlink:href="#DejaVuSans-67"/>
      <use x="69.824219" xlink:href="#DejaVuSans-50"/>
     </g>
    </g>
   </g>
   <g id="text_26">
    <g clip-path="url(#p3312d39646)">
     <!-- G2 -->
     <g style="fill:#ffffff;" transform="translate(617.697536 491.531563)scale(0.07 -0.07)">
      <use xlink:href="#DejaVuSans-71"/>
      <use x="77.490234" xlink:href="#DejaVuSans-50"/>
     </g>
    </g>
   </g>
   <g id="text_27">
    <g clip-path="url(#p3312d39646)">
     <!-- D2 -->
     <g style="fill:#ffffff;" transform="translate(617.714489 533.531563)scale(0.07 -0.07)">
      <use xlink:href="#DejaVuSans-68"/>
      <use x="77.001953" xlink:href="#DejaVuSans-50"/>
     </g>
    </g>
   </g>
   <g id="text_28">
    <g clip-path="url(#p3312d39646)">
     <!-- F2 -->
     <g style="fill:#ffffff;" transform="translate(473.461377 575.531563)scale(0.07 -0.07)">
      <use xlink:href="#DejaVuSans-70"/>
      <use x="57.519531" xlink:href="#DejaVuSans-50"/>
     </g>
    </g>
   </g>
   <g id="text_29">
    <g clip-path="url(#p3312d39646)">
     <!-- E2 -->
     <g style="fill:#ffffff;" transform="translate(473.262861 617.531563)scale(0.07 -0.07)">
      <use xlink:href="#DejaVuSans-69"/>
      <use x="63.183594" xlink:href="#DejaVuSans-50"/>
     </g>
    </g>
   </g>
   <g id="text_30">
    <g clip-path="url(#p3312d39646)">
     <!-- C#2 -->
     <g style="fill:#ffffff;" transform="translate(615.032614 575.531563)scale(0.07 -0.07)">
      <defs>
       <path d="M 51.125 44 
L 36.921875 44 
L 32.8125 27.6875 
L 47.125 27.6875 
z
M 43.796875 71.78125 
L 38.71875 51.515625 
L 52.984375 51.515625 
L 58.109375 71.78125 
L 65.921875 71.78125 
L 60.890625 51.515625 
L 76.125 51.515625 
L 76.125 44 
L 58.984375 44 
L 54.984375 27.6875 
L 70.515625 27.6875 
L 70.515625 20.21875 
L 53.078125 20.21875 
L 48 0 
L 40.1875 0 
L 45.21875 20.21875 
L 30.90625 20.21875 
L 25.875 0 
L 18.015625 0 
L 23.09375 20.21875 
L 7.71875 20.21875 
L 7.71875 27.6875 
L 24.90625 27.6875 
L 29 44 
L 13.28125 44 
L 13.28125 51.515625 
L 30.90625 51.515625 
L 35.890625 71.78125 
z
" id="DejaVuSans-35"/>
      </defs>
      <use xlink:href="#DejaVuSans-67"/>
      <use x="69.824219" xlink:href="#DejaVuSans-35"/>
      <use x="153.613281" xlink:href="#DejaVuSans-50"/>
     </g>
    </g>
   </g>
   <g id="text_31">
    <g clip-path="url(#p3312d39646)">
     <!-- B1 -->
     <g style="fill:#ffffff;" transform="translate(618.008161 617.531563)scale(0.07 -0.07)">
      <defs>
       <path d="M 12.40625 8.296875 
L 28.515625 8.296875 
L 28.515625 63.921875 
L 10.984375 60.40625 
L 10.984375 69.390625 
L 28.421875 72.90625 
L 38.28125 72.90625 
L 38.28125 8.296875 
L 54.390625 8.296875 
L 54.390625 0 
L 12.40625 0 
z
" id="DejaVuSans-49"/>
      </defs>
      <use xlink:href="#DejaVuSans-66"/>
      <use x="68.603516" xlink:href="#DejaVuSans-49"/>
     </g>
    </g>
   </g>
  </g>
 </g>
 <defs>
  <clipPath id="p3312d39646">
   <rect height="554.4" width="558" x="90" y="86.4"/>
  </clipPath>
 </defs>
</svg>
