<?xml version="1.0" encoding="utf-8" standalone="no"?>
<!DOCTYPE svg PUBLIC "-//W3C//DTD SVG 1.1//EN"
  "http://www.w3.org/Graphics/SVG/1.1/DTD/svg11.dtd">
<!-- Created with matplotlib (https://matplotlib.org/) -->
<svg height="720pt" version="1.1" viewBox="0 0 720 720" width="720pt" xmlns="http://www.w3.org/2000/svg" xmlns:xlink="http://www.w3.org/1999/xlink">
 <metadata>
  <rdf:RDF xmlns:cc="http://creativecommons.org/ns#" xmlns:dc="http://purl.org/dc/elements/1.1/" xmlns:rdf="http://www.w3.org/1999/02/22-rdf-syntax-ns#">
   <cc:Work>
    <dc:type rdf:resource="http://purl.org/dc/dcmitype/StillImage"/>
    <dc:date>2020-11-21T00:27:53.900201</dc:date>
    <dc:format>image/svg+xml</dc:format>
    <dc:creator>
     <cc:Agent>
      <dc:title>Matplotlib v3.3.2, https://matplotlib.org/</dc:title>
     </cc:Agent>
    </dc:creator>
   </cc:Work>
  </rdf:RDF>
 </metadata>
 <defs>
  <style type="text/css">*{stroke-linecap:butt;stroke-linejoin:round;}</style>
 </defs>
 <g id="figure_1">
  <g id="patch_1">
   <path d="M 0 720 
L 720 720 
L 720 0 
L 0 0 
z
" style="fill:#f1f6f4;"/>
  </g>
  <g id="axes_1">
   <g id="LineCollection_1">
    <path clip-path="url(#pb6c12cdc37)" d="M 477.701299 111.6 
L 477.701299 135.6 
" style="fill:none;stroke:#f7fbff;stroke-width:2;"/>
    <path clip-path="url(#pb6c12cdc37)" d="M 477.701299 135.6 
L 405.233766 159.6 
" style="fill:none;stroke:#f1f7fd;stroke-width:2;"/>
    <path clip-path="url(#pb6c12cdc37)" d="M 477.701299 135.6 
L 550.168831 159.6 
" style="fill:none;stroke:#eaf3fb;stroke-width:2;"/>
    <path clip-path="url(#pb6c12cdc37)" d="M 550.168831 159.6 
L 550.168831 183.6 
" style="fill:none;stroke:#e4eff9;stroke-width:2;"/>
    <path clip-path="url(#pb6c12cdc37)" d="M 550.168831 183.6 
L 550.168831 207.6 
" style="fill:none;stroke:#deebf7;stroke-width:2;"/>
    <path clip-path="url(#pb6c12cdc37)" d="M 550.168831 207.6 
L 550.168831 231.6 
" style="fill:none;stroke:#d8e7f5;stroke-width:2;"/>
    <path clip-path="url(#pb6c12cdc37)" d="M 550.168831 231.6 
L 550.168831 255.6 
" style="fill:none;stroke:#d2e3f3;stroke-width:2;"/>
    <path clip-path="url(#pb6c12cdc37)" d="M 550.168831 255.6 
L 550.168831 279.6 
" style="fill:none;stroke:#ccdff1;stroke-width:2;"/>
    <path clip-path="url(#pb6c12cdc37)" d="M 550.168831 279.6 
L 477.701299 303.6 
" style="fill:none;stroke:#c6dbef;stroke-width:2;"/>
    <path clip-path="url(#pb6c12cdc37)" d="M 550.168831 279.6 
L 622.636364 303.6 
" style="fill:none;stroke:#bcd7eb;stroke-width:2;"/>
    <path clip-path="url(#pb6c12cdc37)" d="M 477.701299 303.6 
L 405.233766 327.6 
" style="fill:none;stroke:#b2d2e8;stroke-width:2;"/>
    <path clip-path="url(#pb6c12cdc37)" d="M 477.701299 303.6 
L 550.168831 327.6 
" style="fill:none;stroke:#a8cee4;stroke-width:2;"/>
    <path clip-path="url(#pb6c12cdc37)" d="M 405.233766 327.6 
L 260.298701 351.6 
" style="fill:none;stroke:#9dcae1;stroke-width:2;"/>
    <path clip-path="url(#pb6c12cdc37)" d="M 405.233766 327.6 
L 405.233766 351.6 
" style="fill:none;stroke:#91c3de;stroke-width:2;"/>
    <path clip-path="url(#pb6c12cdc37)" d="M 260.298701 351.6 
L 115.363636 375.6 
" style="fill:none;stroke:#84bcdb;stroke-width:2;"/>
    <path clip-path="url(#pb6c12cdc37)" d="M 260.298701 351.6 
L 260.298701 375.6 
" style="fill:none;stroke:#77b5d9;stroke-width:2;"/>
    <path clip-path="url(#pb6c12cdc37)" d="M 260.298701 375.6 
L 260.298701 399.6 
" style="fill:none;stroke:#6aaed6;stroke-width:2;"/>
    <path clip-path="url(#pb6c12cdc37)" d="M 550.168831 327.6 
L 550.168831 351.6 
" style="fill:none;stroke:#60a7d2;stroke-width:2;"/>
    <path clip-path="url(#pb6c12cdc37)" d="M 550.168831 351.6 
L 550.168831 375.6 
" style="fill:none;stroke:#56a0ce;stroke-width:2;"/>
    <path clip-path="url(#pb6c12cdc37)" d="M 550.168831 375.6 
L 405.233766 399.6 
" style="fill:none;stroke:#4b98ca;stroke-width:2;"/>
    <path clip-path="url(#pb6c12cdc37)" d="M 550.168831 375.6 
L 550.168831 399.6 
" style="fill:none;stroke:#4191c6;stroke-width:2;"/>
    <path clip-path="url(#pb6c12cdc37)" d="M 405.233766 399.6 
L 405.233766 423.6 
" style="fill:none;stroke:#3989c1;stroke-width:2;"/>
    <path clip-path="url(#pb6c12cdc37)" d="M 405.233766 423.6 
L 405.233766 447.6 
" style="fill:none;stroke:#3181bd;stroke-width:2;"/>
    <path clip-path="url(#pb6c12cdc37)" d="M 405.233766 447.6 
L 405.233766 471.6 
" style="fill:none;stroke:#2979b9;stroke-width:2;"/>
    <path clip-path="url(#pb6c12cdc37)" d="M 405.233766 471.6 
L 405.233766 495.6 
" style="fill:none;stroke:#2070b4;stroke-width:2;"/>
    <path clip-path="url(#pb6c12cdc37)" d="M 405.233766 495.6 
L 405.233766 519.6 
" style="fill:none;stroke:#1a68ae;stroke-width:2;"/>
    <path clip-path="url(#pb6c12cdc37)" d="M 405.233766 519.6 
L 405.233766 543.6 
" style="fill:none;stroke:#1460a8;stroke-width:2;"/>
    <path clip-path="url(#pb6c12cdc37)" d="M 405.233766 543.6 
L 332.766234 567.6 
" style="fill:none;stroke:#0e58a2;stroke-width:2;"/>
    <path clip-path="url(#pb6c12cdc37)" d="M 405.233766 543.6 
L 477.701299 567.6 
" style="fill:none;stroke:#08509b;stroke-width:2;"/>
    <path clip-path="url(#pb6c12cdc37)" d="M 332.766234 567.6 
L 332.766234 591.6 
" style="fill:none;stroke:#08488e;stroke-width:2;"/>
    <path clip-path="url(#pb6c12cdc37)" d="M 332.766234 591.6 
L 332.766234 615.6 
" style="fill:none;stroke:#084082;stroke-width:2;"/>
    <path clip-path="url(#pb6c12cdc37)" d="M 477.701299 567.6 
L 477.701299 591.6 
" style="fill:none;stroke:#083776;stroke-width:2;"/>
    <path clip-path="url(#pb6c12cdc37)" d="M 477.701299 567.6 
L 622.636364 591.6 
" style="fill:none;stroke:#08306b;stroke-width:2;"/>
   </g>
   <g id="PathCollection_1">
    <path clip-path="url(#pb6c12cdc37)" d="M 477.701299 113.181139 
C 478.120622 113.181139 478.522827 113.01454 478.819333 112.718034 
C 479.115839 112.421528 479.282438 112.019323 479.282438 111.6 
C 479.282438 111.180677 479.115839 110.778472 478.819333 110.481966 
C 478.522827 110.18546 478.120622 110.018861 477.701299 110.018861 
C 477.281976 110.018861 476.879771 110.18546 476.583265 110.481966 
C 476.286759 110.778472 476.12016 111.180677 476.12016 111.6 
C 476.12016 112.019323 476.286759 112.421528 476.583265 112.718034 
C 476.879771 113.01454 477.281976 113.181139 477.701299 113.181139 
z
" style="fill:#0000ff;stroke:#0000ff;"/>
    <path clip-path="url(#pb6c12cdc37)" d="M 477.701299 138.338613 
C 478.427587 138.338613 479.124227 138.050055 479.63779 137.536492 
C 480.151354 137.022928 480.439911 136.326289 480.439911 135.6 
C 480.439911 134.873711 480.151354 134.177072 479.63779 133.663508 
C 479.124227 133.149945 478.427587 132.861387 477.701299 132.861387 
C 476.97501 132.861387 476.278371 133.149945 475.764807 133.663508 
C 475.251243 134.177072 474.962686 134.873711 474.962686 135.6 
C 474.962686 136.326289 475.251243 137.022928 475.764807 137.536492 
C 476.278371 138.050055 476.97501 138.338613 477.701299 138.338613 
z
" style="fill:#00ff80;stroke:#00ff80;"/>
    <path clip-path="url(#pb6c12cdc37)" d="M 405.233766 161.181139 
C 405.653089 161.181139 406.055294 161.01454 406.3518 160.718034 
C 406.648306 160.421528 406.814905 160.019323 406.814905 159.6 
C 406.814905 159.180677 406.648306 158.778472 406.3518 158.481966 
C 406.055294 158.18546 405.653089 158.018861 405.233766 158.018861 
C 404.814443 158.018861 404.412238 158.18546 404.115732 158.481966 
C 403.819226 158.778472 403.652627 159.180677 403.652627 159.6 
C 403.652627 160.019323 403.819226 160.421528 404.115732 160.718034 
C 404.412238 161.01454 404.814443 161.181139 405.233766 161.181139 
z
" style="fill:#0000ff;stroke:#0000ff;"/>
    <path clip-path="url(#pb6c12cdc37)" d="M 550.168831 161.836068 
C 550.761843 161.836068 551.330647 161.600462 551.74997 161.181139 
C 552.169293 160.761816 552.404899 160.193012 552.404899 159.6 
C 552.404899 159.006988 552.169293 158.438184 551.74997 158.018861 
C 551.330647 157.599538 550.761843 157.363932 550.168831 157.363932 
C 549.575819 157.363932 549.007015 157.599538 548.587692 158.018861 
C 548.168369 158.438184 547.932763 159.006988 547.932763 159.6 
C 547.932763 160.193012 548.168369 160.761816 548.587692 161.181139 
C 549.007015 161.600462 549.575819 161.836068 550.168831 161.836068 
z
" style="fill:#0080bf;stroke:#0080bf;"/>
    <path clip-path="url(#pb6c12cdc37)" d="M 550.168831 185.836068 
C 550.761843 185.836068 551.330647 185.600462 551.74997 185.181139 
C 552.169293 184.761816 552.404899 184.193012 552.404899 183.6 
C 552.404899 183.006988 552.169293 182.438184 551.74997 182.018861 
C 551.330647 181.599538 550.761843 181.363932 550.168831 181.363932 
C 549.575819 181.363932 549.007015 181.599538 548.587692 182.018861 
C 548.168369 182.438184 547.932763 183.006988 547.932763 183.6 
C 547.932763 184.193012 548.168369 184.761816 548.587692 185.181139 
C 549.007015 185.600462 549.575819 185.836068 550.168831 185.836068 
z
" style="fill:#0080bf;stroke:#0080bf;"/>
    <path clip-path="url(#pb6c12cdc37)" d="M 550.168831 209.836068 
C 550.761843 209.836068 551.330647 209.600462 551.74997 209.181139 
C 552.169293 208.761816 552.404899 208.193012 552.404899 207.6 
C 552.404899 207.006988 552.169293 206.438184 551.74997 206.018861 
C 551.330647 205.599538 550.761843 205.363932 550.168831 205.363932 
C 549.575819 205.363932 549.007015 205.599538 548.587692 206.018861 
C 548.168369 206.438184 547.932763 207.006988 547.932763 207.6 
C 547.932763 208.193012 548.168369 208.761816 548.587692 209.181139 
C 549.007015 209.600462 549.575819 209.836068 550.168831 209.836068 
z
" style="fill:#0080bf;stroke:#0080bf;"/>
    <path clip-path="url(#pb6c12cdc37)" d="M 550.168831 233.836068 
C 550.761843 233.836068 551.330647 233.600462 551.74997 233.181139 
C 552.169293 232.761816 552.404899 232.193012 552.404899 231.6 
C 552.404899 231.006988 552.169293 230.438184 551.74997 230.018861 
C 551.330647 229.599538 550.761843 229.363932 550.168831 229.363932 
C 549.575819 229.363932 549.007015 229.599538 548.587692 230.018861 
C 548.168369 230.438184 547.932763 231.006988 547.932763 231.6 
C 547.932763 232.193012 548.168369 232.761816 548.587692 233.181139 
C 549.007015 233.600462 549.575819 233.836068 550.168831 233.836068 
z
" style="fill:#0080bf;stroke:#0080bf;"/>
    <path clip-path="url(#pb6c12cdc37)" d="M 550.168831 257.836068 
C 550.761843 257.836068 551.330647 257.600462 551.74997 257.181139 
C 552.169293 256.761816 552.404899 256.193012 552.404899 255.6 
C 552.404899 255.006988 552.169293 254.438184 551.74997 254.018861 
C 551.330647 253.599538 550.761843 253.363932 550.168831 253.363932 
C 549.575819 253.363932 549.007015 253.599538 548.587692 254.018861 
C 548.168369 254.438184 547.932763 255.006988 547.932763 255.6 
C 547.932763 256.193012 548.168369 256.761816 548.587692 257.181139 
C 549.007015 257.600462 549.575819 257.836068 550.168831 257.836068 
z
" style="fill:#0080bf;stroke:#0080bf;"/>
    <path clip-path="url(#pb6c12cdc37)" d="M 550.168831 282.338613 
C 550.89512 282.338613 551.591759 282.050055 552.105323 281.536492 
C 552.618886 281.022928 552.907444 280.326289 552.907444 279.6 
C 552.907444 278.873711 552.618886 278.177072 552.105323 277.663508 
C 551.591759 277.149945 550.89512 276.861387 550.168831 276.861387 
C 549.442543 276.861387 548.745903 277.149945 548.232339 277.663508 
C 547.718776 278.177072 547.430218 278.873711 547.430218 279.6 
C 547.430218 280.326289 547.718776 281.022928 548.232339 281.536492 
C 548.745903 282.050055 549.442543 282.338613 550.168831 282.338613 
z
" style="fill:#00ff80;stroke:#00ff80;"/>
    <path clip-path="url(#pb6c12cdc37)" d="M 477.701299 306.338613 
C 478.427587 306.338613 479.124227 306.050055 479.63779 305.536492 
C 480.151354 305.022928 480.439911 304.326289 480.439911 303.6 
C 480.439911 302.873711 480.151354 302.177072 479.63779 301.663508 
C 479.124227 301.149945 478.427587 300.861387 477.701299 300.861387 
C 476.97501 300.861387 476.278371 301.149945 475.764807 301.663508 
C 475.251243 302.177072 474.962686 302.873711 474.962686 303.6 
C 474.962686 304.326289 475.251243 305.022928 475.764807 305.536492 
C 476.278371 306.050055 476.97501 306.338613 477.701299 306.338613 
z
" style="fill:#00ff80;stroke:#00ff80;"/>
    <path clip-path="url(#pb6c12cdc37)" d="M 405.233766 330.338613 
C 405.960055 330.338613 406.656694 330.050055 407.170258 329.536492 
C 407.683822 329.022928 407.972379 328.326289 407.972379 327.6 
C 407.972379 326.873711 407.683822 326.177072 407.170258 325.663508 
C 406.656694 325.149945 405.960055 324.861387 405.233766 324.861387 
C 404.507478 324.861387 403.810838 325.149945 403.297275 325.663508 
C 402.783711 326.177072 402.495153 326.873711 402.495153 327.6 
C 402.495153 328.326289 402.783711 329.022928 403.297275 329.536492 
C 403.810838 330.050055 404.507478 330.338613 405.233766 330.338613 
z
" style="fill:#00ff80;stroke:#00ff80;"/>
    <path clip-path="url(#pb6c12cdc37)" d="M 260.298701 354.338613 
C 261.02499 354.338613 261.721629 354.050055 262.235193 353.536492 
C 262.748757 353.022928 263.037314 352.326289 263.037314 351.6 
C 263.037314 350.873711 262.748757 350.177072 262.235193 349.663508 
C 261.721629 349.149945 261.02499 348.861387 260.298701 348.861387 
C 259.572413 348.861387 258.875773 349.149945 258.36221 349.663508 
C 257.848646 350.177072 257.560089 350.873711 257.560089 351.6 
C 257.560089 352.326289 257.848646 353.022928 258.36221 353.536492 
C 258.875773 354.050055 259.572413 354.338613 260.298701 354.338613 
z
" style="fill:#00ff80;stroke:#00ff80;"/>
    <path clip-path="url(#pb6c12cdc37)" d="M 115.363636 377.181139 
C 115.782959 377.181139 116.185164 377.01454 116.48167 376.718034 
C 116.778176 376.421528 116.944775 376.019323 116.944775 375.6 
C 116.944775 375.180677 116.778176 374.778472 116.48167 374.481966 
C 116.185164 374.18546 115.782959 374.018861 115.363636 374.018861 
C 114.944313 374.018861 114.542108 374.18546 114.245602 374.481966 
C 113.949096 374.778472 113.782498 375.180677 113.782498 375.6 
C 113.782498 376.019323 113.949096 376.421528 114.245602 376.718034 
C 114.542108 377.01454 114.944313 377.181139 115.363636 377.181139 
z
" style="fill:#0000ff;stroke:#0000ff;"/>
    <path clip-path="url(#pb6c12cdc37)" d="M 260.298701 377.836068 
C 260.891713 377.836068 261.460517 377.600462 261.87984 377.181139 
C 262.299163 376.761816 262.534769 376.193012 262.534769 375.6 
C 262.534769 375.006988 262.299163 374.438184 261.87984 374.018861 
C 261.460517 373.599538 260.891713 373.363932 260.298701 373.363932 
C 259.705689 373.363932 259.136885 373.599538 258.717562 374.018861 
C 258.29824 374.438184 258.062633 375.006988 258.062633 375.6 
C 258.062633 376.193012 258.29824 376.761816 258.717562 377.181139 
C 259.136885 377.600462 259.705689 377.836068 260.298701 377.836068 
z
" style="fill:#0080bf;stroke:#0080bf;"/>
    <path clip-path="url(#pb6c12cdc37)" d="M 260.298701 401.181139 
C 260.718024 401.181139 261.120229 401.01454 261.416735 400.718034 
C 261.713241 400.421528 261.87984 400.019323 261.87984 399.6 
C 261.87984 399.180677 261.713241 398.778472 261.416735 398.481966 
C 261.120229 398.18546 260.718024 398.018861 260.298701 398.018861 
C 259.879378 398.018861 259.477173 398.18546 259.180667 398.481966 
C 258.884161 398.778472 258.717562 399.180677 258.717562 399.6 
C 258.717562 400.019323 258.884161 400.421528 259.180667 400.718034 
C 259.477173 401.01454 259.879378 401.181139 260.298701 401.181139 
z
" style="fill:#0000ff;stroke:#0000ff;"/>
    <path clip-path="url(#pb6c12cdc37)" d="M 405.233766 353.181139 
C 405.653089 353.181139 406.055294 353.01454 406.3518 352.718034 
C 406.648306 352.421528 406.814905 352.019323 406.814905 351.6 
C 406.814905 351.180677 406.648306 350.778472 406.3518 350.481966 
C 406.055294 350.18546 405.653089 350.018861 405.233766 350.018861 
C 404.814443 350.018861 404.412238 350.18546 404.115732 350.481966 
C 403.819226 350.778472 403.652627 351.180677 403.652627 351.6 
C 403.652627 352.019323 403.819226 352.421528 404.115732 352.718034 
C 404.412238 353.01454 404.814443 353.181139 405.233766 353.181139 
z
" style="fill:#0000ff;stroke:#0000ff;"/>
    <path clip-path="url(#pb6c12cdc37)" d="M 550.168831 329.836068 
C 550.761843 329.836068 551.330647 329.600462 551.74997 329.181139 
C 552.169293 328.761816 552.404899 328.193012 552.404899 327.6 
C 552.404899 327.006988 552.169293 326.438184 551.74997 326.018861 
C 551.330647 325.599538 550.761843 325.363932 550.168831 325.363932 
C 549.575819 325.363932 549.007015 325.599538 548.587692 326.018861 
C 548.168369 326.438184 547.932763 327.006988 547.932763 327.6 
C 547.932763 328.193012 548.168369 328.761816 548.587692 329.181139 
C 549.007015 329.600462 549.575819 329.836068 550.168831 329.836068 
z
" style="fill:#0080bf;stroke:#0080bf;"/>
    <path clip-path="url(#pb6c12cdc37)" d="M 550.168831 353.836068 
C 550.761843 353.836068 551.330647 353.600462 551.74997 353.181139 
C 552.169293 352.761816 552.404899 352.193012 552.404899 351.6 
C 552.404899 351.006988 552.169293 350.438184 551.74997 350.018861 
C 551.330647 349.599538 550.761843 349.363932 550.168831 349.363932 
C 549.575819 349.363932 549.007015 349.599538 548.587692 350.018861 
C 548.168369 350.438184 547.932763 351.006988 547.932763 351.6 
C 547.932763 352.193012 548.168369 352.761816 548.587692 353.181139 
C 549.007015 353.600462 549.575819 353.836068 550.168831 353.836068 
z
" style="fill:#0080bf;stroke:#0080bf;"/>
    <path clip-path="url(#pb6c12cdc37)" d="M 550.168831 378.338613 
C 550.89512 378.338613 551.591759 378.050055 552.105323 377.536492 
C 552.618886 377.022928 552.907444 376.326289 552.907444 375.6 
C 552.907444 374.873711 552.618886 374.177072 552.105323 373.663508 
C 551.591759 373.149945 550.89512 372.861387 550.168831 372.861387 
C 549.442543 372.861387 548.745903 373.149945 548.232339 373.663508 
C 547.718776 374.177072 547.430218 374.873711 547.430218 375.6 
C 547.430218 376.326289 547.718776 377.022928 548.232339 377.536492 
C 548.745903 378.050055 549.442543 378.338613 550.168831 378.338613 
z
" style="fill:#00ff80;stroke:#00ff80;"/>
    <path clip-path="url(#pb6c12cdc37)" d="M 405.233766 401.836068 
C 405.826778 401.836068 406.395582 401.600462 406.814905 401.181139 
C 407.234228 400.761816 407.469834 400.193012 407.469834 399.6 
C 407.469834 399.006988 407.234228 398.438184 406.814905 398.018861 
C 406.395582 397.599538 405.826778 397.363932 405.233766 397.363932 
C 404.640754 397.363932 404.07195 397.599538 403.652627 398.018861 
C 403.233304 398.438184 402.997698 399.006988 402.997698 399.6 
C 402.997698 400.193012 403.233304 400.761816 403.652627 401.181139 
C 404.07195 401.600462 404.640754 401.836068 405.233766 401.836068 
z
" style="fill:#0080bf;stroke:#0080bf;"/>
    <path clip-path="url(#pb6c12cdc37)" d="M 405.233766 425.836068 
C 405.826778 425.836068 406.395582 425.600462 406.814905 425.181139 
C 407.234228 424.761816 407.469834 424.193012 407.469834 423.6 
C 407.469834 423.006988 407.234228 422.438184 406.814905 422.018861 
C 406.395582 421.599538 405.826778 421.363932 405.233766 421.363932 
C 404.640754 421.363932 404.07195 421.599538 403.652627 422.018861 
C 403.233304 422.438184 402.997698 423.006988 402.997698 423.6 
C 402.997698 424.193012 403.233304 424.761816 403.652627 425.181139 
C 404.07195 425.600462 404.640754 425.836068 405.233766 425.836068 
z
" style="fill:#0080bf;stroke:#0080bf;"/>
    <path clip-path="url(#pb6c12cdc37)" d="M 405.233766 449.836068 
C 405.826778 449.836068 406.395582 449.600462 406.814905 449.181139 
C 407.234228 448.761816 407.469834 448.193012 407.469834 447.6 
C 407.469834 447.006988 407.234228 446.438184 406.814905 446.018861 
C 406.395582 445.599538 405.826778 445.363932 405.233766 445.363932 
C 404.640754 445.363932 404.07195 445.599538 403.652627 446.018861 
C 403.233304 446.438184 402.997698 447.006988 402.997698 447.6 
C 402.997698 448.193012 403.233304 448.761816 403.652627 449.181139 
C 404.07195 449.600462 404.640754 449.836068 405.233766 449.836068 
z
" style="fill:#0080bf;stroke:#0080bf;"/>
    <path clip-path="url(#pb6c12cdc37)" d="M 405.233766 473.836068 
C 405.826778 473.836068 406.395582 473.600462 406.814905 473.181139 
C 407.234228 472.761816 407.469834 472.193012 407.469834 471.6 
C 407.469834 471.006988 407.234228 470.438184 406.814905 470.018861 
C 406.395582 469.599538 405.826778 469.363932 405.233766 469.363932 
C 404.640754 469.363932 404.07195 469.599538 403.652627 470.018861 
C 403.233304 470.438184 402.997698 471.006988 402.997698 471.6 
C 402.997698 472.193012 403.233304 472.761816 403.652627 473.181139 
C 404.07195 473.600462 404.640754 473.836068 405.233766 473.836068 
z
" style="fill:#0080bf;stroke:#0080bf;"/>
    <path clip-path="url(#pb6c12cdc37)" d="M 405.233766 497.836068 
C 405.826778 497.836068 406.395582 497.600462 406.814905 497.181139 
C 407.234228 496.761816 407.469834 496.193012 407.469834 495.6 
C 407.469834 495.006988 407.234228 494.438184 406.814905 494.018861 
C 406.395582 493.599538 405.826778 493.363932 405.233766 493.363932 
C 404.640754 493.363932 404.07195 493.599538 403.652627 494.018861 
C 403.233304 494.438184 402.997698 495.006988 402.997698 495.6 
C 402.997698 496.193012 403.233304 496.761816 403.652627 497.181139 
C 404.07195 497.600462 404.640754 497.836068 405.233766 497.836068 
z
" style="fill:#0080bf;stroke:#0080bf;"/>
    <path clip-path="url(#pb6c12cdc37)" d="M 405.233766 521.836068 
C 405.826778 521.836068 406.395582 521.600462 406.814905 521.181139 
C 407.234228 520.761816 407.469834 520.193012 407.469834 519.6 
C 407.469834 519.006988 407.234228 518.438184 406.814905 518.018861 
C 406.395582 517.599538 405.826778 517.363932 405.233766 517.363932 
C 404.640754 517.363932 404.07195 517.599538 403.652627 518.018861 
C 403.233304 518.438184 402.997698 519.006988 402.997698 519.6 
C 402.997698 520.193012 403.233304 520.761816 403.652627 521.181139 
C 404.07195 521.600462 404.640754 521.836068 405.233766 521.836068 
z
" style="fill:#0080bf;stroke:#0080bf;"/>
    <path clip-path="url(#pb6c12cdc37)" d="M 405.233766 546.338613 
C 405.960055 546.338613 406.656694 546.050055 407.170258 545.536492 
C 407.683822 545.022928 407.972379 544.326289 407.972379 543.6 
C 407.972379 542.873711 407.683822 542.177072 407.170258 541.663508 
C 406.656694 541.149945 405.960055 540.861387 405.233766 540.861387 
C 404.507478 540.861387 403.810838 541.149945 403.297275 541.663508 
C 402.783711 542.177072 402.495153 542.873711 402.495153 543.6 
C 402.495153 544.326289 402.783711 545.022928 403.297275 545.536492 
C 403.810838 546.050055 404.507478 546.338613 405.233766 546.338613 
z
" style="fill:#00ff80;stroke:#00ff80;"/>
    <path clip-path="url(#pb6c12cdc37)" d="M 332.766234 569.836068 
C 333.359246 569.836068 333.92805 569.600462 334.347373 569.181139 
C 334.766696 568.761816 335.002302 568.193012 335.002302 567.6 
C 335.002302 567.006988 334.766696 566.438184 334.347373 566.018861 
C 333.92805 565.599538 333.359246 565.363932 332.766234 565.363932 
C 332.173222 565.363932 331.604418 565.599538 331.185095 566.018861 
C 330.765772 566.438184 330.530166 567.006988 330.530166 567.6 
C 330.530166 568.193012 330.765772 568.761816 331.185095 569.181139 
C 331.604418 569.600462 332.173222 569.836068 332.766234 569.836068 
z
" style="fill:#0080bf;stroke:#0080bf;"/>
    <path clip-path="url(#pb6c12cdc37)" d="M 332.766234 593.836068 
C 333.359246 593.836068 333.92805 593.600462 334.347373 593.181139 
C 334.766696 592.761816 335.002302 592.193012 335.002302 591.6 
C 335.002302 591.006988 334.766696 590.438184 334.347373 590.018861 
C 333.92805 589.599538 333.359246 589.363932 332.766234 589.363932 
C 332.173222 589.363932 331.604418 589.599538 331.185095 590.018861 
C 330.765772 590.438184 330.530166 591.006988 330.530166 591.6 
C 330.530166 592.193012 330.765772 592.761816 331.185095 593.181139 
C 331.604418 593.600462 332.173222 593.836068 332.766234 593.836068 
z
" style="fill:#0080bf;stroke:#0080bf;"/>
    <path clip-path="url(#pb6c12cdc37)" d="M 332.766234 617.181139 
C 333.185557 617.181139 333.587762 617.01454 333.884268 616.718034 
C 334.180774 616.421528 334.347373 616.019323 334.347373 615.6 
C 334.347373 615.180677 334.180774 614.778472 333.884268 614.481966 
C 333.587762 614.18546 333.185557 614.018861 332.766234 614.018861 
C 332.346911 614.018861 331.944706 614.18546 331.6482 614.481966 
C 331.351694 614.778472 331.185095 615.180677 331.185095 615.6 
C 331.185095 616.019323 331.351694 616.421528 331.6482 616.718034 
C 331.944706 617.01454 332.346911 617.181139 332.766234 617.181139 
z
" style="fill:#0000ff;stroke:#0000ff;"/>
    <path clip-path="url(#pb6c12cdc37)" d="M 477.701299 570.338613 
C 478.427587 570.338613 479.124227 570.050055 479.63779 569.536492 
C 480.151354 569.022928 480.439911 568.326289 480.439911 567.6 
C 480.439911 566.873711 480.151354 566.177072 479.63779 565.663508 
C 479.124227 565.149945 478.427587 564.861387 477.701299 564.861387 
C 476.97501 564.861387 476.278371 565.149945 475.764807 565.663508 
C 475.251243 566.177072 474.962686 566.873711 474.962686 567.6 
C 474.962686 568.326289 475.251243 569.022928 475.764807 569.536492 
C 476.278371 570.050055 476.97501 570.338613 477.701299 570.338613 
z
" style="fill:#00ff80;stroke:#00ff80;"/>
    <path clip-path="url(#pb6c12cdc37)" d="M 477.701299 593.181139 
C 478.120622 593.181139 478.522827 593.01454 478.819333 592.718034 
C 479.115839 592.421528 479.282438 592.019323 479.282438 591.6 
C 479.282438 591.180677 479.115839 590.778472 478.819333 590.481966 
C 478.522827 590.18546 478.120622 590.018861 477.701299 590.018861 
C 477.281976 590.018861 476.879771 590.18546 476.583265 590.481966 
C 476.286759 590.778472 476.12016 591.180677 476.12016 591.6 
C 476.12016 592.019323 476.286759 592.421528 476.583265 592.718034 
C 476.879771 593.01454 477.281976 593.181139 477.701299 593.181139 
z
" style="fill:#0000ff;stroke:#0000ff;"/>
    <path clip-path="url(#pb6c12cdc37)" d="M 622.636364 593.181139 
C 623.055687 593.181139 623.457892 593.01454 623.754398 592.718034 
C 624.050904 592.421528 624.217502 592.019323 624.217502 591.6 
C 624.217502 591.180677 624.050904 590.778472 623.754398 590.481966 
C 623.457892 590.18546 623.055687 590.018861 622.636364 590.018861 
C 622.217041 590.018861 621.814836 590.18546 621.51833 590.481966 
C 621.221824 590.778472 621.055225 591.180677 621.055225 591.6 
C 621.055225 592.019323 621.221824 592.421528 621.51833 592.718034 
C 621.814836 593.01454 622.217041 593.181139 622.636364 593.181139 
z
" style="fill:#0000ff;stroke:#0000ff;"/>
    <path clip-path="url(#pb6c12cdc37)" d="M 550.168831 401.181139 
C 550.588154 401.181139 550.990359 401.01454 551.286865 400.718034 
C 551.583371 400.421528 551.74997 400.019323 551.74997 399.6 
C 551.74997 399.180677 551.583371 398.778472 551.286865 398.481966 
C 550.990359 398.18546 550.588154 398.018861 550.168831 398.018861 
C 549.749508 398.018861 549.347303 398.18546 549.050797 398.481966 
C 548.754291 398.778472 548.587692 399.180677 548.587692 399.6 
C 548.587692 400.019323 548.754291 400.421528 549.050797 400.718034 
C 549.347303 401.01454 549.749508 401.181139 550.168831 401.181139 
z
" style="fill:#0000ff;stroke:#0000ff;"/>
    <path clip-path="url(#pb6c12cdc37)" d="M 622.636364 305.181139 
C 623.055687 305.181139 623.457892 305.01454 623.754398 304.718034 
C 624.050904 304.421528 624.217502 304.019323 624.217502 303.6 
C 624.217502 303.180677 624.050904 302.778472 623.754398 302.481966 
C 623.457892 302.18546 623.055687 302.018861 622.636364 302.018861 
C 622.217041 302.018861 621.814836 302.18546 621.51833 302.481966 
C 621.221824 302.778472 621.055225 303.180677 621.055225 303.6 
C 621.055225 304.019323 621.221824 304.421528 621.51833 304.718034 
C 621.814836 305.01454 622.217041 305.181139 622.636364 305.181139 
z
" style="fill:#0000ff;stroke:#0000ff;"/>
   </g>
   <g id="text_1">
    <g clip-path="url(#pb6c12cdc37)">
     <!-- G5 -->
     <g style="fill:#0f1010;" transform="translate(472.39333 113.531562)scale(0.07 -0.07)">
      <defs>
       <path d="M 74.703125 5.421875 
Q 67.671875 2 60.109375 0.28125 
Q 52.546875 -1.421875 44.484375 -1.421875 
Q 26.265625 -1.421875 15.625 8.765625 
Q 4.984375 18.953125 4.984375 36.375 
Q 4.984375 54 15.8125 64.109375 
Q 26.65625 74.21875 45.515625 74.21875 
Q 52.78125 74.21875 59.4375 72.84375 
Q 66.109375 71.484375 72.015625 68.796875 
L 72.015625 53.71875 
Q 65.921875 57.171875 59.890625 58.875 
Q 53.859375 60.59375 47.796875 60.59375 
Q 36.578125 60.59375 30.5 54.3125 
Q 24.421875 48.046875 24.421875 36.375 
Q 24.421875 24.8125 30.28125 18.5 
Q 36.140625 12.203125 46.921875 12.203125 
Q 49.859375 12.203125 52.375 12.5625 
Q 54.890625 12.9375 56.890625 13.71875 
L 56.890625 27.875 
L 45.40625 27.875 
L 45.40625 40.484375 
L 74.703125 40.484375 
z
" id="DejaVuSans-Bold-71"/>
       <path d="M 10.59375 72.90625 
L 57.328125 72.90625 
L 57.328125 59.078125 
L 25.59375 59.078125 
L 25.59375 47.796875 
Q 27.734375 48.390625 29.90625 48.703125 
Q 32.078125 49.03125 34.421875 49.03125 
Q 47.75 49.03125 55.171875 42.359375 
Q 62.59375 35.6875 62.59375 23.78125 
Q 62.59375 11.96875 54.515625 5.265625 
Q 46.4375 -1.421875 32.078125 -1.421875 
Q 25.875 -1.421875 19.796875 -0.21875 
Q 13.71875 0.984375 7.71875 3.421875 
L 7.71875 18.21875 
Q 13.671875 14.796875 19.015625 13.078125 
Q 24.359375 11.375 29.109375 11.375 
Q 35.9375 11.375 39.859375 14.71875 
Q 43.796875 18.0625 43.796875 23.78125 
Q 43.796875 29.546875 39.859375 32.859375 
Q 35.9375 36.1875 29.109375 36.1875 
Q 25.046875 36.1875 20.453125 35.125 
Q 15.875 34.078125 10.59375 31.890625 
z
" id="DejaVuSans-Bold-53"/>
      </defs>
      <use xlink:href="#DejaVuSans-Bold-71"/>
      <use x="82.080078" xlink:href="#DejaVuSans-Bold-53"/>
     </g>
    </g>
   </g>
   <g id="text_2">
    <g clip-path="url(#pb6c12cdc37)">
     <!-- A5 -->
     <g style="fill:#0f1010;" transform="translate(472.557392 137.531562)scale(0.07 -0.07)">
      <defs>
       <path d="M 53.421875 13.28125 
L 24.03125 13.28125 
L 19.390625 0 
L 0.484375 0 
L 27.484375 72.90625 
L 49.90625 72.90625 
L 76.90625 0 
L 58.015625 0 
z
M 28.71875 26.8125 
L 48.6875 26.8125 
L 38.71875 55.8125 
z
" id="DejaVuSans-Bold-65"/>
      </defs>
      <use xlink:href="#DejaVuSans-Bold-65"/>
      <use x="77.392578" xlink:href="#DejaVuSans-Bold-53"/>
     </g>
    </g>
   </g>
   <g id="text_3">
    <g clip-path="url(#pb6c12cdc37)">
     <!-- B5 -->
     <g style="fill:#0f1010;" transform="translate(400.130876 161.531562)scale(0.07 -0.07)">
      <defs>
       <path d="M 38.375 44.671875 
Q 42.828125 44.671875 45.109375 46.625 
Q 47.40625 48.578125 47.40625 52.390625 
Q 47.40625 56.15625 45.109375 58.125 
Q 42.828125 60.109375 38.375 60.109375 
L 27.984375 60.109375 
L 27.984375 44.671875 
z
M 39.015625 12.796875 
Q 44.671875 12.796875 47.53125 15.1875 
Q 50.390625 17.578125 50.390625 22.40625 
Q 50.390625 27.15625 47.5625 29.515625 
Q 44.734375 31.890625 39.015625 31.890625 
L 27.984375 31.890625 
L 27.984375 12.796875 
z
M 56.5 39.015625 
Q 62.546875 37.25 65.859375 32.515625 
Q 69.1875 27.78125 69.1875 20.90625 
Q 69.1875 10.359375 62.0625 5.171875 
Q 54.9375 0 40.375 0 
L 9.1875 0 
L 9.1875 72.90625 
L 37.40625 72.90625 
Q 52.59375 72.90625 59.40625 68.3125 
Q 66.21875 63.71875 66.21875 53.609375 
Q 66.21875 48.296875 63.71875 44.5625 
Q 61.234375 40.828125 56.5 39.015625 
z
" id="DejaVuSans-Bold-66"/>
      </defs>
      <use xlink:href="#DejaVuSans-Bold-66"/>
      <use x="76.220703" xlink:href="#DejaVuSans-Bold-53"/>
     </g>
    </g>
   </g>
   <g id="text_4">
    <g clip-path="url(#pb6c12cdc37)">
     <!-- C5 -->
     <g style="fill:#0f1010;" transform="translate(545.164925 161.531562)scale(0.07 -0.07)">
      <defs>
       <path d="M 67 4 
Q 61.8125 1.3125 56.203125 -0.046875 
Q 50.59375 -1.421875 44.484375 -1.421875 
Q 26.265625 -1.421875 15.625 8.765625 
Q 4.984375 18.953125 4.984375 36.375 
Q 4.984375 53.859375 15.625 64.03125 
Q 26.265625 74.21875 44.484375 74.21875 
Q 50.59375 74.21875 56.203125 72.84375 
Q 61.8125 71.484375 67 68.796875 
L 67 53.71875 
Q 61.765625 57.28125 56.6875 58.9375 
Q 51.609375 60.59375 46 60.59375 
Q 35.9375 60.59375 30.171875 54.140625 
Q 24.421875 47.703125 24.421875 36.375 
Q 24.421875 25.09375 30.171875 18.640625 
Q 35.9375 12.203125 46 12.203125 
Q 51.609375 12.203125 56.6875 13.859375 
Q 61.765625 15.53125 67 19.09375 
z
" id="DejaVuSans-Bold-67"/>
      </defs>
      <use xlink:href="#DejaVuSans-Bold-67"/>
      <use x="73.388672" xlink:href="#DejaVuSans-Bold-53"/>
     </g>
    </g>
   </g>
   <g id="text_5">
    <g clip-path="url(#pb6c12cdc37)">
     <!-- B4 -->
     <g style="fill:#0f1010;" transform="translate(545.065941 185.531562)scale(0.07 -0.07)">
      <defs>
       <path d="M 36.8125 57.421875 
L 16.21875 26.90625 
L 36.8125 26.90625 
z
M 33.6875 72.90625 
L 54.59375 72.90625 
L 54.59375 26.90625 
L 64.984375 26.90625 
L 64.984375 13.28125 
L 54.59375 13.28125 
L 54.59375 0 
L 36.8125 0 
L 36.8125 13.28125 
L 4.5 13.28125 
L 4.5 29.390625 
z
" id="DejaVuSans-Bold-52"/>
      </defs>
      <use xlink:href="#DejaVuSans-Bold-66"/>
      <use x="76.220703" xlink:href="#DejaVuSans-Bold-52"/>
     </g>
    </g>
   </g>
   <g id="text_6">
    <g clip-path="url(#pb6c12cdc37)">
     <!-- A4 -->
     <g style="fill:#0f1010;" transform="translate(545.024925 209.531562)scale(0.07 -0.07)">
      <use xlink:href="#DejaVuSans-Bold-65"/>
      <use x="77.392578" xlink:href="#DejaVuSans-Bold-52"/>
     </g>
    </g>
   </g>
   <g id="text_7">
    <g clip-path="url(#pb6c12cdc37)">
     <!-- G4 -->
     <g style="fill:#0f1010;" transform="translate(544.860862 233.531562)scale(0.07 -0.07)">
      <use xlink:href="#DejaVuSans-Bold-71"/>
      <use x="82.080078" xlink:href="#DejaVuSans-Bold-52"/>
     </g>
    </g>
   </g>
   <g id="text_8">
    <g clip-path="url(#pb6c12cdc37)">
     <!-- F#4 -->
     <g style="fill:#0f1010;" transform="translate(542.409769 257.531562)scale(0.07 -0.07)">
      <defs>
       <path d="M 9.1875 72.90625 
L 59.90625 72.90625 
L 59.90625 58.6875 
L 27.984375 58.6875 
L 27.984375 45.125 
L 58.015625 45.125 
L 58.015625 30.90625 
L 27.984375 30.90625 
L 27.984375 0 
L 9.1875 0 
z
" id="DejaVuSans-Bold-70"/>
       <path d="M 44.484375 71.78125 
L 39.796875 52.984375 
L 52.6875 52.984375 
L 57.421875 71.78125 
L 68.21875 71.78125 
L 63.484375 52.984375 
L 77 52.984375 
L 77 42.578125 
L 60.890625 42.578125 
L 57.515625 29.203125 
L 71.390625 29.203125 
L 71.390625 18.703125 
L 54.984375 18.703125 
L 50.296875 0 
L 39.5 0 
L 44.1875 18.703125 
L 31.296875 18.703125 
L 26.609375 0 
L 15.71875 0 
L 20.40625 18.703125 
L 6.78125 18.703125 
L 6.78125 29.203125 
L 22.796875 29.203125 
L 26.21875 42.578125 
L 12.40625 42.578125 
L 12.40625 52.984375 
L 28.90625 52.984375 
L 33.59375 71.78125 
z
M 50 42.578125 
L 37.109375 42.578125 
L 33.6875 29.203125 
L 46.578125 29.203125 
z
" id="DejaVuSans-Bold-35"/>
      </defs>
      <use xlink:href="#DejaVuSans-Bold-70"/>
      <use x="68.310547" xlink:href="#DejaVuSans-Bold-35"/>
      <use x="152.099609" xlink:href="#DejaVuSans-Bold-52"/>
     </g>
    </g>
   </g>
   <g id="text_9">
    <g clip-path="url(#pb6c12cdc37)">
     <!-- E4 -->
     <g style="fill:#0f1010;" transform="translate(545.342659 281.531562)scale(0.07 -0.07)">
      <defs>
       <path d="M 9.1875 72.90625 
L 59.90625 72.90625 
L 59.90625 58.6875 
L 27.984375 58.6875 
L 27.984375 45.125 
L 58.015625 45.125 
L 58.015625 30.90625 
L 27.984375 30.90625 
L 27.984375 14.203125 
L 60.984375 14.203125 
L 60.984375 0 
L 9.1875 0 
z
" id="DejaVuSans-Bold-69"/>
      </defs>
      <use xlink:href="#DejaVuSans-Bold-69"/>
      <use x="68.310547" xlink:href="#DejaVuSans-Bold-52"/>
     </g>
    </g>
   </g>
   <g id="text_10">
    <g clip-path="url(#pb6c12cdc37)">
     <!-- D4 -->
     <g style="fill:#0f1010;" transform="translate(472.360517 305.531562)scale(0.07 -0.07)">
      <defs>
       <path d="M 27.984375 58.6875 
L 27.984375 14.203125 
L 34.71875 14.203125 
Q 46.234375 14.203125 52.3125 19.921875 
Q 58.40625 25.640625 58.40625 36.53125 
Q 58.40625 47.359375 52.34375 53.015625 
Q 46.296875 58.6875 34.71875 58.6875 
z
M 9.1875 72.90625 
L 29 72.90625 
Q 45.609375 72.90625 53.734375 70.53125 
Q 61.859375 68.171875 67.671875 62.5 
Q 72.796875 57.5625 75.28125 51.109375 
Q 77.78125 44.671875 77.78125 36.53125 
Q 77.78125 28.265625 75.28125 21.796875 
Q 72.796875 15.328125 67.671875 10.40625 
Q 61.8125 4.734375 53.609375 2.359375 
Q 45.40625 0 29 0 
L 9.1875 0 
z
" id="DejaVuSans-Bold-68"/>
      </defs>
      <use xlink:href="#DejaVuSans-Bold-68"/>
      <use x="83.007812" xlink:href="#DejaVuSans-Bold-52"/>
     </g>
    </g>
   </g>
   <g id="text_11">
    <g clip-path="url(#pb6c12cdc37)">
     <!-- D5 -->
     <g style="fill:#0f1010;" transform="translate(399.892985 329.531562)scale(0.07 -0.07)">
      <use xlink:href="#DejaVuSans-Bold-68"/>
      <use x="83.007812" xlink:href="#DejaVuSans-Bold-53"/>
     </g>
    </g>
   </g>
   <g id="text_12">
    <g clip-path="url(#pb6c12cdc37)">
     <!-- E5 -->
     <g style="fill:#0f1010;" transform="translate(255.472529 353.531562)scale(0.07 -0.07)">
      <use xlink:href="#DejaVuSans-Bold-69"/>
      <use x="68.310547" xlink:href="#DejaVuSans-Bold-53"/>
     </g>
    </g>
   </g>
   <g id="text_13">
    <g clip-path="url(#pb6c12cdc37)">
     <!-- F5 -->
     <g style="fill:#0f1010;" transform="translate(110.537464 377.531562)scale(0.07 -0.07)">
      <use xlink:href="#DejaVuSans-Bold-70"/>
      <use x="68.310547" xlink:href="#DejaVuSans-Bold-53"/>
     </g>
    </g>
   </g>
   <g id="text_14">
    <g clip-path="url(#pb6c12cdc37)">
     <!-- F#5 -->
     <g style="fill:#0f1010;" transform="translate(252.539639 377.531562)scale(0.07 -0.07)">
      <use xlink:href="#DejaVuSans-Bold-70"/>
      <use x="68.310547" xlink:href="#DejaVuSans-Bold-35"/>
      <use x="152.099609" xlink:href="#DejaVuSans-Bold-53"/>
     </g>
    </g>
   </g>
   <g id="text_15">
    <g clip-path="url(#pb6c12cdc37)">
     <!-- D#5 -->
     <g style="fill:#0f1010;" transform="translate(252.025029 401.531562)scale(0.07 -0.07)">
      <use xlink:href="#DejaVuSans-Bold-68"/>
      <use x="83.007812" xlink:href="#DejaVuSans-Bold-35"/>
      <use x="166.796875" xlink:href="#DejaVuSans-Bold-53"/>
     </g>
    </g>
   </g>
   <g id="text_16">
    <g clip-path="url(#pb6c12cdc37)">
     <!-- C#5 -->
     <g style="fill:#0f1010;" transform="translate(397.296969 353.531562)scale(0.07 -0.07)">
      <use xlink:href="#DejaVuSans-Bold-67"/>
      <use x="73.388672" xlink:href="#DejaVuSans-Bold-35"/>
      <use x="157.177734" xlink:href="#DejaVuSans-Bold-53"/>
     </g>
    </g>
   </g>
   <g id="text_17">
    <g clip-path="url(#pb6c12cdc37)">
     <!-- C#4 -->
     <g style="fill:#0f1010;" transform="translate(542.232034 329.531562)scale(0.07 -0.07)">
      <use xlink:href="#DejaVuSans-Bold-67"/>
      <use x="73.388672" xlink:href="#DejaVuSans-Bold-35"/>
      <use x="157.177734" xlink:href="#DejaVuSans-Bold-52"/>
     </g>
    </g>
   </g>
   <g id="text_18">
    <g clip-path="url(#pb6c12cdc37)">
     <!-- A3 -->
     <g style="fill:#0f1010;" transform="translate(545.024925 353.531562)scale(0.07 -0.07)">
      <defs>
       <path d="M 46.578125 39.3125 
Q 53.953125 37.40625 57.78125 32.6875 
Q 61.625 27.984375 61.625 20.703125 
Q 61.625 9.859375 53.3125 4.21875 
Q 45.015625 -1.421875 29.109375 -1.421875 
Q 23.484375 -1.421875 17.84375 -0.515625 
Q 12.203125 0.390625 6.6875 2.203125 
L 6.6875 16.703125 
Q 11.96875 14.0625 17.15625 12.71875 
Q 22.359375 11.375 27.390625 11.375 
Q 34.859375 11.375 38.84375 13.953125 
Q 42.828125 16.546875 42.828125 21.390625 
Q 42.828125 26.375 38.75 28.9375 
Q 34.671875 31.5 26.703125 31.5 
L 19.1875 31.5 
L 19.1875 43.609375 
L 27.09375 43.609375 
Q 34.1875 43.609375 37.640625 45.828125 
Q 41.109375 48.046875 41.109375 52.59375 
Q 41.109375 56.78125 37.734375 59.078125 
Q 34.375 61.375 28.21875 61.375 
Q 23.6875 61.375 19.046875 60.34375 
Q 14.40625 59.328125 9.8125 57.328125 
L 9.8125 71.09375 
Q 15.375 72.65625 20.84375 73.4375 
Q 26.3125 74.21875 31.59375 74.21875 
Q 45.796875 74.21875 52.84375 69.546875 
Q 59.90625 64.890625 59.90625 55.515625 
Q 59.90625 49.125 56.53125 45.046875 
Q 53.171875 40.96875 46.578125 39.3125 
z
" id="DejaVuSans-Bold-51"/>
      </defs>
      <use xlink:href="#DejaVuSans-Bold-65"/>
      <use x="77.392578" xlink:href="#DejaVuSans-Bold-51"/>
     </g>
    </g>
   </g>
   <g id="text_19">
    <g clip-path="url(#pb6c12cdc37)">
     <!-- G3 -->
     <g style="fill:#0f1010;" transform="translate(544.860862 377.531562)scale(0.07 -0.07)">
      <use xlink:href="#DejaVuSans-Bold-71"/>
      <use x="82.080078" xlink:href="#DejaVuSans-Bold-51"/>
     </g>
    </g>
   </g>
   <g id="text_20">
    <g clip-path="url(#pb6c12cdc37)">
     <!-- F#3 -->
     <g style="fill:#0f1010;" transform="translate(397.474704 401.531562)scale(0.07 -0.07)">
      <use xlink:href="#DejaVuSans-Bold-70"/>
      <use x="68.310547" xlink:href="#DejaVuSans-Bold-35"/>
      <use x="152.099609" xlink:href="#DejaVuSans-Bold-51"/>
     </g>
    </g>
   </g>
   <g id="text_21">
    <g clip-path="url(#pb6c12cdc37)">
     <!-- E3 -->
     <g style="fill:#0f1010;" transform="translate(400.407594 425.531562)scale(0.07 -0.07)">
      <use xlink:href="#DejaVuSans-Bold-69"/>
      <use x="68.310547" xlink:href="#DejaVuSans-Bold-51"/>
     </g>
    </g>
   </g>
   <g id="text_22">
    <g clip-path="url(#pb6c12cdc37)">
     <!-- D3 -->
     <g style="fill:#0f1010;" transform="translate(399.892985 449.531562)scale(0.07 -0.07)">
      <use xlink:href="#DejaVuSans-Bold-68"/>
      <use x="83.007812" xlink:href="#DejaVuSans-Bold-51"/>
     </g>
    </g>
   </g>
   <g id="text_23">
    <g clip-path="url(#pb6c12cdc37)">
     <!-- C3 -->
     <g style="fill:#0f1010;" transform="translate(400.22986 473.531562)scale(0.07 -0.07)">
      <use xlink:href="#DejaVuSans-Bold-67"/>
      <use x="73.388672" xlink:href="#DejaVuSans-Bold-51"/>
     </g>
    </g>
   </g>
   <g id="text_24">
    <g clip-path="url(#pb6c12cdc37)">
     <!-- B2 -->
     <g style="fill:#0f1010;" transform="translate(400.130876 497.531562)scale(0.07 -0.07)">
      <defs>
       <path d="M 28.8125 13.8125 
L 60.890625 13.8125 
L 60.890625 0 
L 7.90625 0 
L 7.90625 13.8125 
L 34.515625 37.3125 
Q 38.09375 40.53125 39.796875 43.609375 
Q 41.5 46.6875 41.5 50 
Q 41.5 55.125 38.0625 58.25 
Q 34.625 61.375 28.90625 61.375 
Q 24.515625 61.375 19.28125 59.5 
Q 14.0625 57.625 8.109375 53.90625 
L 8.109375 69.921875 
Q 14.453125 72.015625 20.65625 73.109375 
Q 26.859375 74.21875 32.8125 74.21875 
Q 45.90625 74.21875 53.15625 68.453125 
Q 60.40625 62.703125 60.40625 52.390625 
Q 60.40625 46.4375 57.328125 41.28125 
Q 54.25 36.140625 44.390625 27.484375 
z
" id="DejaVuSans-Bold-50"/>
      </defs>
      <use xlink:href="#DejaVuSans-Bold-66"/>
      <use x="76.220703" xlink:href="#DejaVuSans-Bold-50"/>
     </g>
    </g>
   </g>
   <g id="text_25">
    <g clip-path="url(#pb6c12cdc37)">
     <!-- A2 -->
     <g style="fill:#0f1010;" transform="translate(400.08986 521.531562)scale(0.07 -0.07)">
      <use xlink:href="#DejaVuSans-Bold-65"/>
      <use x="77.392578" xlink:href="#DejaVuSans-Bold-50"/>
     </g>
    </g>
   </g>
   <g id="text_26">
    <g clip-path="url(#pb6c12cdc37)">
     <!-- G2 -->
     <g style="fill:#0f1010;" transform="translate(399.925797 545.531562)scale(0.07 -0.07)">
      <use xlink:href="#DejaVuSans-Bold-71"/>
      <use x="82.080078" xlink:href="#DejaVuSans-Bold-50"/>
     </g>
    </g>
   </g>
   <g id="text_27">
    <g clip-path="url(#pb6c12cdc37)">
     <!-- F#2 -->
     <g style="fill:#0f1010;" transform="translate(325.007171 569.531563)scale(0.07 -0.07)">
      <use xlink:href="#DejaVuSans-Bold-70"/>
      <use x="68.310547" xlink:href="#DejaVuSans-Bold-35"/>
      <use x="152.099609" xlink:href="#DejaVuSans-Bold-50"/>
     </g>
    </g>
   </g>
   <g id="text_28">
    <g clip-path="url(#pb6c12cdc37)">
     <!-- E2 -->
     <g style="fill:#0f1010;" transform="translate(327.940062 593.531562)scale(0.07 -0.07)">
      <use xlink:href="#DejaVuSans-Bold-69"/>
      <use x="68.310547" xlink:href="#DejaVuSans-Bold-50"/>
     </g>
    </g>
   </g>
   <g id="text_29">
    <g clip-path="url(#pb6c12cdc37)">
     <!-- D2 -->
     <g style="fill:#0f1010;" transform="translate(327.425453 617.531563)scale(0.07 -0.07)">
      <use xlink:href="#DejaVuSans-Bold-68"/>
      <use x="83.007812" xlink:href="#DejaVuSans-Bold-50"/>
     </g>
    </g>
   </g>
   <g id="text_30">
    <g clip-path="url(#pb6c12cdc37)">
     <!-- B3 -->
     <g style="fill:#0f1010;" transform="translate(472.598408 569.531563)scale(0.07 -0.07)">
      <use xlink:href="#DejaVuSans-Bold-66"/>
      <use x="76.220703" xlink:href="#DejaVuSans-Bold-51"/>
     </g>
    </g>
   </g>
   <g id="text_31">
    <g clip-path="url(#pb6c12cdc37)">
     <!-- C4 -->
     <g style="fill:#0f1010;" transform="translate(472.697392 593.531562)scale(0.07 -0.07)">
      <use xlink:href="#DejaVuSans-Bold-67"/>
      <use x="73.388672" xlink:href="#DejaVuSans-Bold-52"/>
     </g>
    </g>
   </g>
   <g id="text_32">
    <g clip-path="url(#pb6c12cdc37)">
     <!-- D#3 -->
     <g style="fill:#0f1010;" transform="translate(614.362692 593.531562)scale(0.07 -0.07)">
      <use xlink:href="#DejaVuSans-Bold-68"/>
      <use x="83.007812" xlink:href="#DejaVuSans-Bold-35"/>
      <use x="166.796875" xlink:href="#DejaVuSans-Bold-51"/>
     </g>
    </g>
   </g>
   <g id="text_33">
    <g clip-path="url(#pb6c12cdc37)">
     <!-- F3 -->
     <g style="fill:#0f1010;" transform="translate(545.342659 401.531562)scale(0.07 -0.07)">
      <use xlink:href="#DejaVuSans-Bold-70"/>
      <use x="68.310547" xlink:href="#DejaVuSans-Bold-51"/>
     </g>
    </g>
   </g>
   <g id="text_34">
    <g clip-path="url(#pb6c12cdc37)">
     <!-- D#4 -->
     <g style="fill:#0f1010;" transform="translate(614.362692 305.531562)scale(0.07 -0.07)">
      <use xlink:href="#DejaVuSans-Bold-68"/>
      <use x="83.007812" xlink:href="#DejaVuSans-Bold-35"/>
      <use x="166.796875" xlink:href="#DejaVuSans-Bold-52"/>
     </g>
    </g>
   </g>
  </g>
 </g>
 <defs>
  <clipPath id="pb6c12cdc37">
   <rect height="554.4" width="558" x="90" y="86.4"/>
  </clipPath>
 </defs>
</svg>
