<?xml version="1.0" encoding="UTF-8" standalone="no"?>
<!DOCTYPE svg PUBLIC "-//W3C//DTD SVG 1.1//EN"
 "http://www.w3.org/Graphics/SVG/1.1/DTD/svg11.dtd">
<!-- Generated by graphviz version 2.43.0 (0)
 -->
<!-- Pages: 1 -->
<svg width="233pt" height="1556pt"
 viewBox="0.00 0.00 233.00 1556.00" xmlns="http://www.w3.org/2000/svg" xmlns:xlink="http://www.w3.org/1999/xlink">
<g id="graph0" class="graph" transform="scale(1 1) rotate(0) translate(4 1552)">
<polygon fill="white" stroke="transparent" points="-4,4 -4,-1552 229,-1552 229,4 -4,4"/>
<!-- G5 -->
<g id="node1" class="node">
<title>G5</title>
<ellipse fill="#32cd32" stroke="black" cx="153" cy="-1530" rx="18" ry="18"/>
<text text-anchor="middle" x="153" y="-1526.3" font-family="Times,serif" font-size="14.00">G5</text>
</g>
<!-- A5 -->
<g id="node2" class="node">
<title>A5</title>
<ellipse fill="lightgrey" stroke="black" cx="153" cy="-1458" rx="18" ry="18"/>
<text text-anchor="middle" x="153" y="-1454.3" font-family="Times,serif" font-size="14.00">A5</text>
</g>
<!-- G5&#45;&gt;A5 -->
<g id="edge1" class="edge">
<title>G5&#45;&gt;A5</title>
<path fill="none" stroke="black" d="M153,-1511.7C153,-1502.8 153,-1491.8 153,-1482.2"/>
<polygon fill="black" stroke="black" points="155.1,-1482.1 153,-1476.1 150.9,-1482.1 155.1,-1482.1"/>
</g>
<!-- B5 -->
<g id="node3" class="node">
<title>B5</title>
<ellipse fill="lightgrey" stroke="black" cx="126" cy="-1386" rx="18" ry="18"/>
<text text-anchor="middle" x="126" y="-1382.3" font-family="Times,serif" font-size="14.00">B5</text>
</g>
<!-- A5&#45;&gt;B5 -->
<g id="edge2" class="edge">
<title>A5&#45;&gt;B5</title>
<path fill="none" stroke="black" d="M146.74,-1440.8C143.09,-1431.3 138.45,-1419.3 134.47,-1409"/>
<polygon fill="black" stroke="black" points="136.32,-1407.96 132.23,-1403.1 132.4,-1409.45 136.32,-1407.96"/>
</g>
<!-- C5 -->
<g id="node4" class="node">
<title>C5</title>
<ellipse fill="lightgrey" stroke="black" cx="180" cy="-1386" rx="18" ry="18"/>
<text text-anchor="middle" x="180" y="-1382.3" font-family="Times,serif" font-size="14.00">C5</text>
</g>
<!-- A5&#45;&gt;C5 -->
<g id="edge3" class="edge">
<title>A5&#45;&gt;C5</title>
<path fill="none" stroke="black" d="M159.26,-1440.8C162.91,-1431.3 167.55,-1419.3 171.53,-1409"/>
<polygon fill="black" stroke="black" points="173.6,-1409.45 173.77,-1403.1 169.68,-1407.96 173.6,-1409.45"/>
</g>
<!-- B4 -->
<g id="node5" class="node">
<title>B4</title>
<ellipse fill="lightgrey" stroke="black" cx="180" cy="-1314" rx="18" ry="18"/>
<text text-anchor="middle" x="180" y="-1310.3" font-family="Times,serif" font-size="14.00">B4</text>
</g>
<!-- C5&#45;&gt;B4 -->
<g id="edge4" class="edge">
<title>C5&#45;&gt;B4</title>
<path fill="none" stroke="black" d="M180,-1367.7C180,-1358.8 180,-1347.8 180,-1338.2"/>
<polygon fill="black" stroke="black" points="182.1,-1338.1 180,-1332.1 177.9,-1338.1 182.1,-1338.1"/>
</g>
<!-- A4 -->
<g id="node6" class="node">
<title>A4</title>
<ellipse fill="lightgrey" stroke="black" cx="180" cy="-1242" rx="18" ry="18"/>
<text text-anchor="middle" x="180" y="-1238.3" font-family="Times,serif" font-size="14.00">A4</text>
</g>
<!-- B4&#45;&gt;A4 -->
<g id="edge5" class="edge">
<title>B4&#45;&gt;A4</title>
<path fill="none" stroke="black" d="M180,-1295.7C180,-1286.8 180,-1275.8 180,-1266.2"/>
<polygon fill="black" stroke="black" points="182.1,-1266.1 180,-1260.1 177.9,-1266.1 182.1,-1266.1"/>
</g>
<!-- G4 -->
<g id="node7" class="node">
<title>G4</title>
<ellipse fill="lightgrey" stroke="black" cx="180" cy="-1170" rx="18" ry="18"/>
<text text-anchor="middle" x="180" y="-1166.3" font-family="Times,serif" font-size="14.00">G4</text>
</g>
<!-- A4&#45;&gt;G4 -->
<g id="edge6" class="edge">
<title>A4&#45;&gt;G4</title>
<path fill="none" stroke="black" d="M180,-1223.7C180,-1214.8 180,-1203.8 180,-1194.2"/>
<polygon fill="black" stroke="black" points="182.1,-1194.1 180,-1188.1 177.9,-1194.1 182.1,-1194.1"/>
</g>
<!-- F#4 -->
<g id="node8" class="node">
<title>F#4</title>
<ellipse fill="lightgrey" stroke="black" cx="180" cy="-1098" rx="18" ry="18"/>
<text text-anchor="middle" x="180" y="-1094.3" font-family="Times,serif" font-size="14.00">F#4</text>
</g>
<!-- G4&#45;&gt;F#4 -->
<g id="edge7" class="edge">
<title>G4&#45;&gt;F#4</title>
<path fill="none" stroke="black" d="M180,-1151.7C180,-1142.8 180,-1131.8 180,-1122.2"/>
<polygon fill="black" stroke="black" points="182.1,-1122.1 180,-1116.1 177.9,-1122.1 182.1,-1122.1"/>
</g>
<!-- E4 -->
<g id="node9" class="node">
<title>E4</title>
<ellipse fill="lightgrey" stroke="black" cx="180" cy="-1026" rx="18" ry="18"/>
<text text-anchor="middle" x="180" y="-1022.3" font-family="Times,serif" font-size="14.00">E4</text>
</g>
<!-- F#4&#45;&gt;E4 -->
<g id="edge8" class="edge">
<title>F#4&#45;&gt;E4</title>
<path fill="none" stroke="black" d="M180,-1079.7C180,-1070.8 180,-1059.8 180,-1050.2"/>
<polygon fill="black" stroke="black" points="182.1,-1050.1 180,-1044.1 177.9,-1050.1 182.1,-1050.1"/>
</g>
<!-- D4 -->
<g id="node10" class="node">
<title>D4</title>
<ellipse fill="lightgrey" stroke="black" cx="153" cy="-954" rx="18" ry="18"/>
<text text-anchor="middle" x="153" y="-950.3" font-family="Times,serif" font-size="14.00">D4</text>
</g>
<!-- E4&#45;&gt;D4 -->
<g id="edge9" class="edge">
<title>E4&#45;&gt;D4</title>
<path fill="none" stroke="black" d="M173.74,-1008.8C170.09,-999.31 165.45,-987.26 161.47,-976.97"/>
<polygon fill="black" stroke="black" points="163.35,-976 159.23,-971.15 159.43,-977.5 163.35,-976"/>
</g>
<!-- D#4 -->
<g id="node11" class="node">
<title>D#4</title>
<ellipse fill="#dc143c" stroke="black" cx="207" cy="-954" rx="18" ry="18"/>
<text text-anchor="middle" x="207" y="-950.3" font-family="Times,serif" font-size="14.00">D#4</text>
</g>
<!-- E4&#45;&gt;D#4 -->
<g id="edge10" class="edge">
<title>E4&#45;&gt;D#4</title>
<path fill="none" stroke="black" d="M186.26,-1008.8C189.91,-999.31 194.55,-987.26 198.53,-976.97"/>
<polygon fill="black" stroke="black" points="200.57,-977.5 200.77,-971.15 196.65,-976 200.57,-977.5"/>
</g>
<!-- D5 -->
<g id="node12" class="node">
<title>D5</title>
<ellipse fill="lightgrey" stroke="black" cx="126" cy="-882" rx="18" ry="18"/>
<text text-anchor="middle" x="126" y="-878.3" font-family="Times,serif" font-size="14.00">D5</text>
</g>
<!-- D4&#45;&gt;D5 -->
<g id="edge11" class="edge">
<title>D4&#45;&gt;D5</title>
<path fill="none" stroke="black" d="M146.74,-936.76C143.09,-927.31 138.45,-915.26 134.47,-904.97"/>
<polygon fill="black" stroke="black" points="136.35,-904 132.23,-899.15 132.43,-905.5 136.35,-904"/>
</g>
<!-- C#4 -->
<g id="node13" class="node">
<title>C#4</title>
<ellipse fill="lightgrey" stroke="black" cx="180" cy="-882" rx="18" ry="18"/>
<text text-anchor="middle" x="180" y="-878.3" font-family="Times,serif" font-size="14.00">C#4</text>
</g>
<!-- D4&#45;&gt;C#4 -->
<g id="edge12" class="edge">
<title>D4&#45;&gt;C#4</title>
<path fill="none" stroke="black" d="M159.26,-936.76C162.91,-927.31 167.55,-915.26 171.53,-904.97"/>
<polygon fill="black" stroke="black" points="173.57,-905.5 173.77,-899.15 169.65,-904 173.57,-905.5"/>
</g>
<!-- E5 -->
<g id="node14" class="node">
<title>E5</title>
<ellipse fill="lightgrey" stroke="black" cx="72" cy="-810" rx="18" ry="18"/>
<text text-anchor="middle" x="72" y="-806.3" font-family="Times,serif" font-size="14.00">E5</text>
</g>
<!-- D5&#45;&gt;E5 -->
<g id="edge13" class="edge">
<title>D5&#45;&gt;E5</title>
<path fill="none" stroke="black" d="M115.33,-867.17C107.05,-856.43 95.48,-841.44 86.38,-829.64"/>
<polygon fill="black" stroke="black" points="87.97,-828.27 82.65,-824.8 84.65,-830.83 87.97,-828.27"/>
</g>
<!-- C#5 -->
<g id="node15" class="node">
<title>C#5</title>
<ellipse fill="lightgrey" stroke="black" cx="126" cy="-810" rx="18" ry="18"/>
<text text-anchor="middle" x="126" y="-806.3" font-family="Times,serif" font-size="14.00">C#5</text>
</g>
<!-- D5&#45;&gt;C#5 -->
<g id="edge14" class="edge">
<title>D5&#45;&gt;C#5</title>
<path fill="none" stroke="black" d="M126,-863.7C126,-854.8 126,-843.82 126,-834.2"/>
<polygon fill="black" stroke="black" points="128.1,-834.1 126,-828.1 123.9,-834.1 128.1,-834.1"/>
</g>
<!-- A3 -->
<g id="node16" class="node">
<title>A3</title>
<ellipse fill="lightgrey" stroke="black" cx="180" cy="-810" rx="18" ry="18"/>
<text text-anchor="middle" x="180" y="-806.3" font-family="Times,serif" font-size="14.00">A3</text>
</g>
<!-- C#4&#45;&gt;A3 -->
<g id="edge15" class="edge">
<title>C#4&#45;&gt;A3</title>
<path fill="none" stroke="black" d="M180,-863.7C180,-854.8 180,-843.82 180,-834.2"/>
<polygon fill="black" stroke="black" points="182.1,-834.1 180,-828.1 177.9,-834.1 182.1,-834.1"/>
</g>
<!-- F5 -->
<g id="node17" class="node">
<title>F5</title>
<ellipse fill="lightgrey" stroke="black" cx="18" cy="-738" rx="18" ry="18"/>
<text text-anchor="middle" x="18" y="-734.3" font-family="Times,serif" font-size="14.00">F5</text>
</g>
<!-- E5&#45;&gt;F5 -->
<g id="edge16" class="edge">
<title>E5&#45;&gt;F5</title>
<path fill="none" stroke="black" d="M61.33,-795.17C53.05,-784.43 41.48,-769.44 32.38,-757.64"/>
<polygon fill="black" stroke="black" points="33.97,-756.27 28.65,-752.8 30.65,-758.83 33.97,-756.27"/>
</g>
<!-- F#5 -->
<g id="node18" class="node">
<title>F#5</title>
<ellipse fill="lightgrey" stroke="black" cx="72" cy="-738" rx="18" ry="18"/>
<text text-anchor="middle" x="72" y="-734.3" font-family="Times,serif" font-size="14.00">F#5</text>
</g>
<!-- E5&#45;&gt;F#5 -->
<g id="edge17" class="edge">
<title>E5&#45;&gt;F#5</title>
<path fill="none" stroke="black" d="M72,-791.7C72,-782.8 72,-771.82 72,-762.2"/>
<polygon fill="black" stroke="black" points="74.1,-762.1 72,-756.1 69.9,-762.1 74.1,-762.1"/>
</g>
<!-- G3 -->
<g id="node19" class="node">
<title>G3</title>
<ellipse fill="lightgrey" stroke="black" cx="180" cy="-738" rx="18" ry="18"/>
<text text-anchor="middle" x="180" y="-734.3" font-family="Times,serif" font-size="14.00">G3</text>
</g>
<!-- A3&#45;&gt;G3 -->
<g id="edge18" class="edge">
<title>A3&#45;&gt;G3</title>
<path fill="none" stroke="black" d="M180,-791.7C180,-782.8 180,-771.82 180,-762.2"/>
<polygon fill="black" stroke="black" points="182.1,-762.1 180,-756.1 177.9,-762.1 182.1,-762.1"/>
</g>
<!-- D#5 -->
<g id="node20" class="node">
<title>D#5</title>
<ellipse fill="lightgrey" stroke="black" cx="72" cy="-666" rx="18" ry="18"/>
<text text-anchor="middle" x="72" y="-662.3" font-family="Times,serif" font-size="14.00">D#5</text>
</g>
<!-- F#5&#45;&gt;D#5 -->
<g id="edge19" class="edge">
<title>F#5&#45;&gt;D#5</title>
<path fill="none" stroke="black" d="M72,-719.7C72,-710.8 72,-699.82 72,-690.2"/>
<polygon fill="black" stroke="black" points="74.1,-690.1 72,-684.1 69.9,-690.1 74.1,-690.1"/>
</g>
<!-- F#3 -->
<g id="node21" class="node">
<title>F#3</title>
<ellipse fill="lightgrey" stroke="black" cx="126" cy="-666" rx="18" ry="18"/>
<text text-anchor="middle" x="126" y="-662.3" font-family="Times,serif" font-size="14.00">F#3</text>
</g>
<!-- G3&#45;&gt;F#3 -->
<g id="edge20" class="edge">
<title>G3&#45;&gt;F#3</title>
<path fill="none" stroke="black" d="M169.33,-723.17C161.05,-712.43 149.48,-697.44 140.38,-685.64"/>
<polygon fill="black" stroke="black" points="141.98,-684.27 136.65,-680.8 138.65,-686.83 141.98,-684.27"/>
</g>
<!-- F3 -->
<g id="node22" class="node">
<title>F3</title>
<ellipse fill="lightgrey" stroke="black" cx="180" cy="-666" rx="18" ry="18"/>
<text text-anchor="middle" x="180" y="-662.3" font-family="Times,serif" font-size="14.00">F3</text>
</g>
<!-- G3&#45;&gt;F3 -->
<g id="edge21" class="edge">
<title>G3&#45;&gt;F3</title>
<path fill="none" stroke="black" d="M180,-719.7C180,-710.8 180,-699.82 180,-690.2"/>
<polygon fill="black" stroke="black" points="182.1,-690.1 180,-684.1 177.9,-690.1 182.1,-690.1"/>
</g>
<!-- E3 -->
<g id="node23" class="node">
<title>E3</title>
<ellipse fill="lightgrey" stroke="black" cx="126" cy="-594" rx="18" ry="18"/>
<text text-anchor="middle" x="126" y="-590.3" font-family="Times,serif" font-size="14.00">E3</text>
</g>
<!-- F#3&#45;&gt;E3 -->
<g id="edge22" class="edge">
<title>F#3&#45;&gt;E3</title>
<path fill="none" stroke="black" d="M126,-647.7C126,-638.8 126,-627.82 126,-618.2"/>
<polygon fill="black" stroke="black" points="128.1,-618.1 126,-612.1 123.9,-618.1 128.1,-618.1"/>
</g>
<!-- D3 -->
<g id="node24" class="node">
<title>D3</title>
<ellipse fill="lightgrey" stroke="black" cx="126" cy="-522" rx="18" ry="18"/>
<text text-anchor="middle" x="126" y="-518.3" font-family="Times,serif" font-size="14.00">D3</text>
</g>
<!-- E3&#45;&gt;D3 -->
<g id="edge23" class="edge">
<title>E3&#45;&gt;D3</title>
<path fill="none" stroke="black" d="M126,-575.7C126,-566.8 126,-555.82 126,-546.2"/>
<polygon fill="black" stroke="black" points="128.1,-546.1 126,-540.1 123.9,-546.1 128.1,-546.1"/>
</g>
<!-- C3 -->
<g id="node25" class="node">
<title>C3</title>
<ellipse fill="lightgrey" stroke="black" cx="126" cy="-450" rx="18" ry="18"/>
<text text-anchor="middle" x="126" y="-446.3" font-family="Times,serif" font-size="14.00">C3</text>
</g>
<!-- D3&#45;&gt;C3 -->
<g id="edge24" class="edge">
<title>D3&#45;&gt;C3</title>
<path fill="none" stroke="black" d="M126,-503.7C126,-494.8 126,-483.82 126,-474.2"/>
<polygon fill="black" stroke="black" points="128.1,-474.1 126,-468.1 123.9,-474.1 128.1,-474.1"/>
</g>
<!-- B2 -->
<g id="node26" class="node">
<title>B2</title>
<ellipse fill="lightgrey" stroke="black" cx="126" cy="-378" rx="18" ry="18"/>
<text text-anchor="middle" x="126" y="-374.3" font-family="Times,serif" font-size="14.00">B2</text>
</g>
<!-- C3&#45;&gt;B2 -->
<g id="edge25" class="edge">
<title>C3&#45;&gt;B2</title>
<path fill="none" stroke="black" d="M126,-431.7C126,-422.8 126,-411.82 126,-402.2"/>
<polygon fill="black" stroke="black" points="128.1,-402.1 126,-396.1 123.9,-402.1 128.1,-402.1"/>
</g>
<!-- A2 -->
<g id="node27" class="node">
<title>A2</title>
<ellipse fill="lightgrey" stroke="black" cx="126" cy="-306" rx="18" ry="18"/>
<text text-anchor="middle" x="126" y="-302.3" font-family="Times,serif" font-size="14.00">A2</text>
</g>
<!-- B2&#45;&gt;A2 -->
<g id="edge26" class="edge">
<title>B2&#45;&gt;A2</title>
<path fill="none" stroke="black" d="M126,-359.7C126,-350.8 126,-339.82 126,-330.2"/>
<polygon fill="black" stroke="black" points="128.1,-330.1 126,-324.1 123.9,-330.1 128.1,-330.1"/>
</g>
<!-- G2 -->
<g id="node28" class="node">
<title>G2</title>
<ellipse fill="lightgrey" stroke="black" cx="126" cy="-234" rx="18" ry="18"/>
<text text-anchor="middle" x="126" y="-230.3" font-family="Times,serif" font-size="14.00">G2</text>
</g>
<!-- A2&#45;&gt;G2 -->
<g id="edge27" class="edge">
<title>A2&#45;&gt;G2</title>
<path fill="none" stroke="black" d="M126,-287.7C126,-278.8 126,-267.82 126,-258.2"/>
<polygon fill="black" stroke="black" points="128.1,-258.1 126,-252.1 123.9,-258.1 128.1,-258.1"/>
</g>
<!-- F#2 -->
<g id="node29" class="node">
<title>F#2</title>
<ellipse fill="lightgrey" stroke="black" cx="99" cy="-162" rx="18" ry="18"/>
<text text-anchor="middle" x="99" y="-158.3" font-family="Times,serif" font-size="14.00">F#2</text>
</g>
<!-- G2&#45;&gt;F#2 -->
<g id="edge28" class="edge">
<title>G2&#45;&gt;F#2</title>
<path fill="none" stroke="black" d="M119.74,-216.76C116.09,-207.31 111.45,-195.26 107.47,-184.97"/>
<polygon fill="black" stroke="black" points="109.35,-184 105.23,-179.15 105.43,-185.5 109.35,-184"/>
</g>
<!-- B3 -->
<g id="node30" class="node">
<title>B3</title>
<ellipse fill="lightgrey" stroke="black" cx="153" cy="-162" rx="18" ry="18"/>
<text text-anchor="middle" x="153" y="-158.3" font-family="Times,serif" font-size="14.00">B3</text>
</g>
<!-- G2&#45;&gt;B3 -->
<g id="edge29" class="edge">
<title>G2&#45;&gt;B3</title>
<path fill="none" stroke="black" d="M132.26,-216.76C135.91,-207.31 140.55,-195.26 144.53,-184.97"/>
<polygon fill="black" stroke="black" points="146.57,-185.5 146.77,-179.15 142.65,-184 146.57,-185.5"/>
</g>
<!-- E2 -->
<g id="node31" class="node">
<title>E2</title>
<ellipse fill="lightgrey" stroke="black" cx="99" cy="-90" rx="18" ry="18"/>
<text text-anchor="middle" x="99" y="-86.3" font-family="Times,serif" font-size="14.00">E2</text>
</g>
<!-- F#2&#45;&gt;E2 -->
<g id="edge30" class="edge">
<title>F#2&#45;&gt;E2</title>
<path fill="none" stroke="black" d="M99,-143.7C99,-134.8 99,-123.82 99,-114.2"/>
<polygon fill="black" stroke="black" points="101.1,-114.1 99,-108.1 96.9,-114.1 101.1,-114.1"/>
</g>
<!-- C4 -->
<g id="node32" class="node">
<title>C4</title>
<ellipse fill="lightgrey" stroke="black" cx="153" cy="-90" rx="18" ry="18"/>
<text text-anchor="middle" x="153" y="-86.3" font-family="Times,serif" font-size="14.00">C4</text>
</g>
<!-- B3&#45;&gt;C4 -->
<g id="edge31" class="edge">
<title>B3&#45;&gt;C4</title>
<path fill="none" stroke="black" d="M153,-143.7C153,-134.8 153,-123.82 153,-114.2"/>
<polygon fill="black" stroke="black" points="155.1,-114.1 153,-108.1 150.9,-114.1 155.1,-114.1"/>
</g>
<!-- D#3 -->
<g id="node33" class="node">
<title>D#3</title>
<ellipse fill="lightgrey" stroke="black" cx="207" cy="-90" rx="18" ry="18"/>
<text text-anchor="middle" x="207" y="-86.3" font-family="Times,serif" font-size="14.00">D#3</text>
</g>
<!-- B3&#45;&gt;D#3 -->
<g id="edge32" class="edge">
<title>B3&#45;&gt;D#3</title>
<path fill="none" stroke="black" d="M163.67,-147.17C171.95,-136.43 183.52,-121.44 192.62,-109.64"/>
<polygon fill="black" stroke="black" points="194.35,-110.83 196.35,-104.8 191.02,-108.27 194.35,-110.83"/>
</g>
<!-- D2 -->
<g id="node34" class="node">
<title>D2</title>
<ellipse fill="lightgrey" stroke="black" cx="99" cy="-18" rx="18" ry="18"/>
<text text-anchor="middle" x="99" y="-14.3" font-family="Times,serif" font-size="14.00">D2</text>
</g>
<!-- E2&#45;&gt;D2 -->
<g id="edge33" class="edge">
<title>E2&#45;&gt;D2</title>
<path fill="none" stroke="black" d="M99,-71.7C99,-62.8 99,-51.82 99,-42.2"/>
<polygon fill="black" stroke="black" points="101.1,-42.1 99,-36.1 96.9,-42.1 101.1,-42.1"/>
</g>
</g>
</svg>
