<?xml version="1.0" encoding="utf-8" standalone="no"?>
<!DOCTYPE svg PUBLIC "-//W3C//DTD SVG 1.1//EN"
  "http://www.w3.org/Graphics/SVG/1.1/DTD/svg11.dtd">
<!-- Created with matplotlib (https://matplotlib.org/) -->
<svg height="504pt" version="1.1" viewBox="0 0 504 504" width="504pt" xmlns="http://www.w3.org/2000/svg" xmlns:xlink="http://www.w3.org/1999/xlink">
 <metadata>
  <rdf:RDF xmlns:cc="http://creativecommons.org/ns#" xmlns:dc="http://purl.org/dc/elements/1.1/" xmlns:rdf="http://www.w3.org/1999/02/22-rdf-syntax-ns#">
   <cc:Work>
    <dc:type rdf:resource="http://purl.org/dc/dcmitype/StillImage"/>
    <dc:date>2020-11-20T00:05:55.676497</dc:date>
    <dc:format>image/svg+xml</dc:format>
    <dc:creator>
     <cc:Agent>
      <dc:title>Matplotlib v3.3.2, https://matplotlib.org/</dc:title>
     </cc:Agent>
    </dc:creator>
   </cc:Work>
  </rdf:RDF>
 </metadata>
 <defs>
  <style type="text/css">*{stroke-linecap:butt;stroke-linejoin:round;}</style>
 </defs>
 <g id="figure_1">
  <g id="patch_1">
   <path d="M 0 504 
L 504 504 
L 504 0 
L 0 0 
z
" style="fill:none;"/>
  </g>
  <g id="axes_1">
   <g id="patch_2">
    <path clip-path="url(#pbf5392cb8c)" d="M 162.972434 123.004158 
Q 139.489084 136.366299 124.857267 161.699397 
" style="fill:none;stroke:#000000;stroke-linecap:round;stroke-width:2;"/>
    <path clip-path="url(#pbf5392cb8c)" d="M 158.506737 123.24406 
L 162.972434 123.004158 
L 160.484937 126.720657 
" style="fill:none;stroke:#000000;stroke-linecap:round;stroke-width:2;"/>
   </g>
   <g id="patch_3">
    <path clip-path="url(#pbf5392cb8c)" d="M 109.55871 188.04552 
Q 96.01339 211.275216 96.044132 240.401659 
" style="fill:none;stroke:#000000;stroke-linecap:round;stroke-width:2;"/>
    <path clip-path="url(#pbf5392cb8c)" d="M 105.816088 190.493535 
L 109.55871 188.04552 
L 109.271549 192.508427 
" style="fill:none;stroke:#000000;stroke-linecap:round;stroke-width:2;"/>
   </g>
   <g id="patch_4">
    <path clip-path="url(#pbf5392cb8c)" d="M 96.041762 270.874029 
Q 96.01329 297.764431 110.684875 322.925816 
" style="fill:none;stroke:#000000;stroke-linecap:round;stroke-width:2;"/>
    <path clip-path="url(#pbf5392cb8c)" d="M 94.037528 274.871909 
L 96.041762 270.874029 
L 98.037525 274.876144 
" style="fill:none;stroke:#000000;stroke-linecap:round;stroke-width:2;"/>
   </g>
   <g id="patch_5">
    <path clip-path="url(#pbf5392cb8c)" d="M 125.976864 349.278965 
Q 139.490722 372.675337 164.917996 387.142878 
" style="fill:none;stroke:#000000;stroke-linecap:round;stroke-width:2;"/>
    <path clip-path="url(#pbf5392cb8c)" d="M 126.245665 353.743016 
L 125.976864 349.278965 
L 129.709385 351.742354 
" style="fill:none;stroke:#000000;stroke-linecap:round;stroke-width:2;"/>
   </g>
   <g id="patch_6">
    <path clip-path="url(#pbf5392cb8c)" d="M 191.33082 402.32052 
Q 214.811226 415.931787 244.187416 415.78489 
" style="fill:none;stroke:#000000;stroke-linecap:round;stroke-width:2;"/>
    <path clip-path="url(#pbf5392cb8c)" d="M 193.788386 406.056878 
L 191.33082 402.32052 
L 195.794446 402.596282 
" style="fill:none;stroke:#000000;stroke-linecap:round;stroke-width:2;"/>
   </g>
   <g id="patch_7">
    <path clip-path="url(#pbf5392cb8c)" d="M 274.651284 415.796037 
Q 301.791263 415.931125 327.206033 401.197751 
" style="fill:none;stroke:#000000;stroke-linecap:round;stroke-width:2;"/>
    <path clip-path="url(#pbf5392cb8c)" d="M 278.64128 417.815922 
L 274.651284 415.796037 
L 278.66119 413.815972 
" style="fill:none;stroke:#000000;stroke-linecap:round;stroke-width:2;"/>
   </g>
   <g id="patch_8">
    <path clip-path="url(#pbf5392cb8c)" d="M 353.627577 386.03584 
Q 377.110927 372.673696 391.742743 347.340595 
" style="fill:none;stroke:#000000;stroke-linecap:round;stroke-width:2;"/>
    <path clip-path="url(#pbf5392cb8c)" d="M 358.093273 385.795938 
L 353.627577 386.03584 
L 356.115073 382.319341 
" style="fill:none;stroke:#000000;stroke-linecap:round;stroke-width:2;"/>
   </g>
   <g id="patch_9">
    <path clip-path="url(#pbf5392cb8c)" d="M 407.041298 320.994469 
Q 420.586616 297.764771 420.555869 268.638327 
" style="fill:none;stroke:#000000;stroke-linecap:round;stroke-width:2;"/>
    <path clip-path="url(#pbf5392cb8c)" d="M 410.78392 318.546453 
L 407.041298 320.994469 
L 407.328459 316.531562 
" style="fill:none;stroke:#000000;stroke-linecap:round;stroke-width:2;"/>
   </g>
   <g id="patch_10">
    <path clip-path="url(#pbf5392cb8c)" d="M 420.558238 238.165964 
Q 420.586709 211.275576 405.915131 186.114202 
" style="fill:none;stroke:#000000;stroke-linecap:round;stroke-width:2;"/>
    <path clip-path="url(#pbf5392cb8c)" d="M 422.562472 234.168084 
L 420.558238 238.165964 
L 418.562474 234.163848 
" style="fill:none;stroke:#000000;stroke-linecap:round;stroke-width:2;"/>
   </g>
   <g id="patch_11">
    <path clip-path="url(#pbf5392cb8c)" d="M 390.623148 159.761057 
Q 377.109294 136.364681 351.682023 121.897134 
" style="fill:none;stroke:#000000;stroke-linecap:round;stroke-width:2;"/>
    <path clip-path="url(#pbf5392cb8c)" d="M 390.354348 155.297006 
L 390.623148 159.761057 
L 386.890628 157.297667 
" style="fill:none;stroke:#000000;stroke-linecap:round;stroke-width:2;"/>
   </g>
   <g id="patch_12">
    <path clip-path="url(#pbf5392cb8c)" d="M 325.269201 106.719488 
Q 301.788797 93.108219 272.412608 93.255111 
" style="fill:none;stroke:#000000;stroke-linecap:round;stroke-width:2;"/>
    <path clip-path="url(#pbf5392cb8c)" d="M 322.811635 102.98313 
L 325.269201 106.719488 
L 320.805575 106.443726 
" style="fill:none;stroke:#000000;stroke-linecap:round;stroke-width:2;"/>
   </g>
   <g id="patch_13">
    <path clip-path="url(#pbf5392cb8c)" d="M 241.948738 93.243962 
Q 214.808754 93.108873 189.393979 107.842248 
" style="fill:none;stroke:#000000;stroke-linecap:round;stroke-width:2;"/>
    <path clip-path="url(#pbf5392cb8c)" d="M 237.958742 91.224077 
L 241.948738 93.243962 
L 237.938832 95.224027 
" style="fill:none;stroke:#000000;stroke-linecap:round;stroke-width:2;"/>
   </g>
   <g id="text_1">
    <g id="patch_14">
     <path clip-path="url(#pbf5392cb8c)" d="M 140.011506 152.828644 
L 156.105256 152.828644 
Q 159.105256 152.828644 159.105256 149.828644 
L 159.105256 140.150519 
Q 159.105256 137.150519 156.105256 137.150519 
L 140.011506 137.150519 
Q 137.011506 137.150519 137.011506 140.150519 
L 137.011506 149.828644 
Q 137.011506 152.828644 140.011506 152.828644 
z
" style="fill:#ffffff;stroke:#ffffff;stroke-linejoin:miter;"/>
    </g>
    <g clip-path="url(#pbf5392cb8c)">
     <!-- 1/2 -->
     <g transform="translate(140.011506 147.748957)scale(0.1 -0.1)">
      <defs>
       <path d="M 12.40625 8.296875 
L 28.515625 8.296875 
L 28.515625 63.921875 
L 10.984375 60.40625 
L 10.984375 69.390625 
L 28.421875 72.90625 
L 38.28125 72.90625 
L 38.28125 8.296875 
L 54.390625 8.296875 
L 54.390625 0 
L 12.40625 0 
z
" id="DejaVuSans-49"/>
       <path d="M 25.390625 72.90625 
L 33.6875 72.90625 
L 8.296875 -9.28125 
L 0 -9.28125 
z
" id="DejaVuSans-47"/>
       <path d="M 19.1875 8.296875 
L 53.609375 8.296875 
L 53.609375 0 
L 7.328125 0 
L 7.328125 8.296875 
Q 12.9375 14.109375 22.625 23.890625 
Q 32.328125 33.6875 34.8125 36.53125 
Q 39.546875 41.84375 41.421875 45.53125 
Q 43.3125 49.21875 43.3125 52.78125 
Q 43.3125 58.59375 39.234375 62.25 
Q 35.15625 65.921875 28.609375 65.921875 
Q 23.96875 65.921875 18.8125 64.3125 
Q 13.671875 62.703125 7.8125 59.421875 
L 7.8125 69.390625 
Q 13.765625 71.78125 18.9375 73 
Q 24.125 74.21875 28.421875 74.21875 
Q 39.75 74.21875 46.484375 68.546875 
Q 53.21875 62.890625 53.21875 53.421875 
Q 53.21875 48.921875 51.53125 44.890625 
Q 49.859375 40.875 45.40625 35.40625 
Q 44.1875 33.984375 37.640625 27.21875 
Q 31.109375 20.453125 19.1875 8.296875 
z
" id="DejaVuSans-50"/>
      </defs>
      <use xlink:href="#DejaVuSans-49"/>
      <use x="63.623047" xlink:href="#DejaVuSans-47"/>
      <use x="97.314453" xlink:href="#DejaVuSans-50"/>
     </g>
    </g>
   </g>
   <g id="text_2">
    <g id="patch_15">
     <path clip-path="url(#pbf5392cb8c)" d="M 99.660259 222.268132 
L 115.754009 222.268132 
Q 118.754009 222.268132 118.754009 219.268132 
L 118.754009 209.590007 
Q 118.754009 206.590007 115.754009 206.590007 
L 99.660259 206.590007 
Q 96.660259 206.590007 96.660259 209.590007 
L 96.660259 219.268132 
Q 96.660259 222.268132 99.660259 222.268132 
z
" style="fill:#ffffff;stroke:#ffffff;stroke-linejoin:miter;"/>
    </g>
    <g clip-path="url(#pbf5392cb8c)">
     <!-- 1/2 -->
     <g transform="translate(99.660259 217.188445)scale(0.1 -0.1)">
      <use xlink:href="#DejaVuSans-49"/>
      <use x="63.623047" xlink:href="#DejaVuSans-47"/>
      <use x="97.314453" xlink:href="#DejaVuSans-50"/>
     </g>
    </g>
   </g>
   <g id="text_3">
    <g id="patch_16">
     <path clip-path="url(#pbf5392cb8c)" d="M 99.66025 302.449969 
L 115.754 302.449969 
Q 118.754 302.449969 118.754 299.449969 
L 118.754 289.771844 
Q 118.754 286.771844 115.754 286.771844 
L 99.66025 286.771844 
Q 96.66025 286.771844 96.66025 289.771844 
L 96.66025 299.449969 
Q 96.66025 302.449969 99.66025 302.449969 
z
" style="fill:#ffffff;stroke:#ffffff;stroke-linejoin:miter;"/>
    </g>
    <g clip-path="url(#pbf5392cb8c)">
     <!-- 1/2 -->
     <g transform="translate(99.66025 297.370282)scale(0.1 -0.1)">
      <use xlink:href="#DejaVuSans-49"/>
      <use x="63.623047" xlink:href="#DejaVuSans-47"/>
      <use x="97.314453" xlink:href="#DejaVuSans-50"/>
     </g>
    </g>
   </g>
   <g id="text_4">
    <g id="patch_17">
     <path clip-path="url(#pbf5392cb8c)" d="M 140.011485 371.889467 
L 156.105235 371.889467 
Q 159.105235 371.889467 159.105235 368.889467 
L 159.105235 359.211342 
Q 159.105235 356.211342 156.105235 356.211342 
L 140.011485 356.211342 
Q 137.011485 356.211342 137.011485 359.211342 
L 137.011485 368.889467 
Q 137.011485 371.889467 140.011485 371.889467 
z
" style="fill:#ffffff;stroke:#ffffff;stroke-linejoin:miter;"/>
    </g>
    <g clip-path="url(#pbf5392cb8c)">
     <!-- 1/2 -->
     <g transform="translate(140.011485 366.809779)scale(0.1 -0.1)">
      <use xlink:href="#DejaVuSans-49"/>
      <use x="63.623047" xlink:href="#DejaVuSans-47"/>
      <use x="97.314453" xlink:href="#DejaVuSans-50"/>
     </g>
    </g>
   </g>
   <g id="text_5">
    <g id="patch_18">
     <path clip-path="url(#pbf5392cb8c)" d="M 209.901867 411.980371 
L 225.995617 411.980371 
Q 228.995617 411.980371 228.995617 408.980371 
L 228.995617 399.302246 
Q 228.995617 396.302246 225.995617 396.302246 
L 209.901867 396.302246 
Q 206.901867 396.302246 206.901867 399.302246 
L 206.901867 408.980371 
Q 206.901867 411.980371 209.901867 411.980371 
z
" style="fill:#ffffff;stroke:#ffffff;stroke-linejoin:miter;"/>
    </g>
    <g clip-path="url(#pbf5392cb8c)">
     <!-- 1/2 -->
     <g transform="translate(209.901867 406.900683)scale(0.1 -0.1)">
      <use xlink:href="#DejaVuSans-49"/>
      <use x="63.623047" xlink:href="#DejaVuSans-47"/>
      <use x="97.314453" xlink:href="#DejaVuSans-50"/>
     </g>
    </g>
   </g>
   <g id="text_6">
    <g id="patch_19">
     <path clip-path="url(#pbf5392cb8c)" d="M 290.604349 411.980376 
L 306.698099 411.980376 
Q 309.698099 411.980376 309.698099 408.980376 
L 309.698099 399.302251 
Q 309.698099 396.302251 306.698099 396.302251 
L 290.604349 396.302251 
Q 287.604349 396.302251 287.604349 399.302251 
L 287.604349 408.980376 
Q 287.604349 411.980376 290.604349 411.980376 
z
" style="fill:#ffffff;stroke:#ffffff;stroke-linejoin:miter;"/>
    </g>
    <g clip-path="url(#pbf5392cb8c)">
     <!-- 1/2 -->
     <g transform="translate(290.604349 406.900688)scale(0.1 -0.1)">
      <use xlink:href="#DejaVuSans-49"/>
      <use x="63.623047" xlink:href="#DejaVuSans-47"/>
      <use x="97.314453" xlink:href="#DejaVuSans-50"/>
     </g>
    </g>
   </g>
   <g id="text_7">
    <g id="patch_20">
     <path clip-path="url(#pbf5392cb8c)" d="M 360.494753 371.889476 
L 376.588503 371.889476 
Q 379.588503 371.889476 379.588503 368.889476 
L 379.588503 359.211351 
Q 379.588503 356.211351 376.588503 356.211351 
L 360.494753 356.211351 
Q 357.494753 356.211351 357.494753 359.211351 
L 357.494753 368.889476 
Q 357.494753 371.889476 360.494753 371.889476 
z
" style="fill:#ffffff;stroke:#ffffff;stroke-linejoin:miter;"/>
    </g>
    <g clip-path="url(#pbf5392cb8c)">
     <!-- 1/2 -->
     <g transform="translate(360.494753 366.809789)scale(0.1 -0.1)">
      <use xlink:href="#DejaVuSans-49"/>
      <use x="63.623047" xlink:href="#DejaVuSans-47"/>
      <use x="97.314453" xlink:href="#DejaVuSans-50"/>
     </g>
    </g>
   </g>
   <g id="text_8">
    <g id="patch_21">
     <path clip-path="url(#pbf5392cb8c)" d="M 400.845996 302.449981 
L 416.939746 302.449981 
Q 419.939746 302.449981 419.939746 299.449981 
L 419.939746 289.771856 
Q 419.939746 286.771856 416.939746 286.771856 
L 400.845996 286.771856 
Q 397.845996 286.771856 397.845996 289.771856 
L 397.845996 299.449981 
Q 397.845996 302.449981 400.845996 302.449981 
z
" style="fill:#ffffff;stroke:#ffffff;stroke-linejoin:miter;"/>
    </g>
    <g clip-path="url(#pbf5392cb8c)">
     <!-- 1/2 -->
     <g transform="translate(400.845996 297.370294)scale(0.1 -0.1)">
      <use xlink:href="#DejaVuSans-49"/>
      <use x="63.623047" xlink:href="#DejaVuSans-47"/>
      <use x="97.314453" xlink:href="#DejaVuSans-50"/>
     </g>
    </g>
   </g>
   <g id="text_9">
    <g id="patch_22">
     <path clip-path="url(#pbf5392cb8c)" d="M 400.846005 222.268161 
L 416.939755 222.268161 
Q 419.939755 222.268161 419.939755 219.268161 
L 419.939755 209.590036 
Q 419.939755 206.590036 416.939755 206.590036 
L 400.846005 206.590036 
Q 397.846005 206.590036 397.846005 209.590036 
L 397.846005 219.268161 
Q 397.846005 222.268161 400.846005 222.268161 
z
" style="fill:#ffffff;stroke:#ffffff;stroke-linejoin:miter;"/>
    </g>
    <g clip-path="url(#pbf5392cb8c)">
     <!-- 1/2 -->
     <g transform="translate(400.846005 217.188473)scale(0.1 -0.1)">
      <use xlink:href="#DejaVuSans-49"/>
      <use x="63.623047" xlink:href="#DejaVuSans-47"/>
      <use x="97.314453" xlink:href="#DejaVuSans-50"/>
     </g>
    </g>
   </g>
   <g id="text_10">
    <g id="patch_23">
     <path clip-path="url(#pbf5392cb8c)" d="M 360.49478 152.828675 
L 376.58853 152.828675 
Q 379.58853 152.828675 379.58853 149.828675 
L 379.58853 140.15055 
Q 379.58853 137.15055 376.58853 137.15055 
L 360.49478 137.15055 
Q 357.49478 137.15055 357.49478 140.15055 
L 357.49478 149.828675 
Q 357.49478 152.828675 360.49478 152.828675 
z
" style="fill:#ffffff;stroke:#ffffff;stroke-linejoin:miter;"/>
    </g>
    <g clip-path="url(#pbf5392cb8c)">
     <!-- 1/2 -->
     <g transform="translate(360.49478 147.748988)scale(0.1 -0.1)">
      <use xlink:href="#DejaVuSans-49"/>
      <use x="63.623047" xlink:href="#DejaVuSans-47"/>
      <use x="97.314453" xlink:href="#DejaVuSans-50"/>
     </g>
    </g>
   </g>
   <g id="text_11">
    <g id="patch_24">
     <path clip-path="url(#pbf5392cb8c)" d="M 290.604404 112.737759 
L 306.698154 112.737759 
Q 309.698154 112.737759 309.698154 109.737759 
L 309.698154 100.059634 
Q 309.698154 97.059634 306.698154 97.059634 
L 290.604404 97.059634 
Q 287.604404 97.059634 287.604404 100.059634 
L 287.604404 109.737759 
Q 287.604404 112.737759 290.604404 112.737759 
z
" style="fill:#ffffff;stroke:#ffffff;stroke-linejoin:miter;"/>
    </g>
    <g clip-path="url(#pbf5392cb8c)">
     <!-- 1/2 -->
     <g transform="translate(290.604404 107.658071)scale(0.1 -0.1)">
      <use xlink:href="#DejaVuSans-49"/>
      <use x="63.623047" xlink:href="#DejaVuSans-47"/>
      <use x="97.314453" xlink:href="#DejaVuSans-50"/>
     </g>
    </g>
   </g>
   <g id="text_12">
    <g id="patch_25">
     <path clip-path="url(#pbf5392cb8c)" d="M 209.901918 112.737749 
L 225.995668 112.737749 
Q 228.995668 112.737749 228.995668 109.737749 
L 228.995668 100.059624 
Q 228.995668 97.059624 225.995668 97.059624 
L 209.901918 97.059624 
Q 206.901918 97.059624 206.901918 100.059624 
L 206.901918 109.737749 
Q 206.901918 112.737749 209.901918 112.737749 
z
" style="fill:#ffffff;stroke:#ffffff;stroke-linejoin:miter;"/>
    </g>
    <g clip-path="url(#pbf5392cb8c)">
     <!-- 1/2 -->
     <g transform="translate(209.901918 107.658062)scale(0.1 -0.1)">
      <use xlink:href="#DejaVuSans-49"/>
      <use x="63.623047" xlink:href="#DejaVuSans-47"/>
      <use x="97.314453" xlink:href="#DejaVuSans-50"/>
     </g>
    </g>
   </g>
   <g id="PathCollection_1">
    <defs>
     <path d="M 0 14.142136 
C 3.750538 14.142136 7.347969 12.652031 10 10 
C 12.652031 7.347969 14.142136 3.750538 14.142136 -0 
C 14.142136 -3.750538 12.652031 -7.347969 10 -10 
C 7.347969 -12.652031 3.750538 -14.142136 0 -14.142136 
C -3.750538 -14.142136 -7.347969 -12.652031 -10 -10 
C -12.652031 -7.347969 -14.142136 -3.750538 -14.142136 0 
C -14.142136 3.750538 -12.652031 7.347969 -10 10 
C -7.347969 12.652031 -3.750538 14.142136 0 14.142136 
z
" id="C0_0_16951edc3e"/>
    </defs>
    <g clip-path="url(#pbf5392cb8c)">
     <use style="fill:#ffffff;stroke:#ffffff;" x="177.597535" xlink:href="#C0_0_16951edc3e" y="115.64101"/>
    </g>
    <g clip-path="url(#pbf5392cb8c)">
     <use style="stroke:#000000;" x="118.519227" xlink:href="#C0_0_16951edc3e" y="174.338153"/>
    </g>
    <g clip-path="url(#pbf5392cb8c)">
     <use style="fill:#ffffff;stroke:#ffffff;" x="96.895041" xlink:href="#C0_0_16951edc3e" y="254.519986"/>
    </g>
    <g clip-path="url(#pbf5392cb8c)">
     <use style="stroke:#000000;" x="118.519208" xlink:href="#C0_0_16951edc3e" y="334.701828"/>
    </g>
    <g clip-path="url(#pbf5392cb8c)">
     <use style="fill:#ffffff;stroke:#ffffff;" x="177.597511" xlink:href="#C0_0_16951edc3e" y="393.39898"/>
    </g>
    <g clip-path="url(#pbf5392cb8c)">
     <use style="stroke:#000000;" x="258.299974" xlink:href="#C0_0_16951edc3e" y="414.883636"/>
    </g>
    <g clip-path="url(#pbf5392cb8c)">
     <use style="fill:#ffffff;stroke:#ffffff;" x="339.002475" xlink:href="#C0_0_16951edc3e" y="393.39899"/>
    </g>
    <g clip-path="url(#pbf5392cb8c)">
     <use style="fill:#ffffff;stroke:#ffffff;" x="398.080782" xlink:href="#C0_0_16951edc3e" y="334.701837"/>
    </g>
    <g clip-path="url(#pbf5392cb8c)">
     <use style="stroke:#000000;" x="419.704959" xlink:href="#C0_0_16951edc3e" y="254.52"/>
    </g>
    <g clip-path="url(#pbf5392cb8c)">
     <use style="fill:#ffffff;stroke:#ffffff;" x="398.080802" xlink:href="#C0_0_16951edc3e" y="174.338196"/>
    </g>
    <g clip-path="url(#pbf5392cb8c)">
     <use style="stroke:#000000;" x="339.002508" xlink:href="#C0_0_16951edc3e" y="115.641029"/>
    </g>
    <g clip-path="url(#pbf5392cb8c)">
     <use style="fill:#ffffff;stroke:#ffffff;" x="258.300051" xlink:href="#C0_0_16951edc3e" y="94.156364"/>
    </g>
   </g>
   <g id="text_13">
    <g clip-path="url(#pbf5392cb8c)">
     <!-- B -->
     <g style="fill:#ffa500;" transform="translate(173.480973 118.95226)scale(0.12 -0.12)">
      <defs>
       <path d="M 19.671875 34.8125 
L 19.671875 8.109375 
L 35.5 8.109375 
Q 43.453125 8.109375 47.28125 11.40625 
Q 51.125 14.703125 51.125 21.484375 
Q 51.125 28.328125 47.28125 31.5625 
Q 43.453125 34.8125 35.5 34.8125 
z
M 19.671875 64.796875 
L 19.671875 42.828125 
L 34.28125 42.828125 
Q 41.5 42.828125 45.03125 45.53125 
Q 48.578125 48.25 48.578125 53.8125 
Q 48.578125 59.328125 45.03125 62.0625 
Q 41.5 64.796875 34.28125 64.796875 
z
M 9.8125 72.90625 
L 35.015625 72.90625 
Q 46.296875 72.90625 52.390625 68.21875 
Q 58.5 63.53125 58.5 54.890625 
Q 58.5 48.1875 55.375 44.234375 
Q 52.25 40.28125 46.1875 39.3125 
Q 53.46875 37.75 57.5 32.78125 
Q 61.53125 27.828125 61.53125 20.40625 
Q 61.53125 10.640625 54.890625 5.3125 
Q 48.25 0 35.984375 0 
L 9.8125 0 
z
" id="DejaVuSans-66"/>
      </defs>
      <use xlink:href="#DejaVuSans-66"/>
     </g>
    </g>
   </g>
   <g id="text_14">
    <g clip-path="url(#pbf5392cb8c)">
     <!-- A# -->
     <g style="fill:#ffa500;" transform="translate(109.38704 177.649403)scale(0.12 -0.12)">
      <defs>
       <path d="M 34.1875 63.1875 
L 20.796875 26.90625 
L 47.609375 26.90625 
z
M 28.609375 72.90625 
L 39.796875 72.90625 
L 67.578125 0 
L 57.328125 0 
L 50.6875 18.703125 
L 17.828125 18.703125 
L 11.1875 0 
L 0.78125 0 
z
" id="DejaVuSans-65"/>
       <path d="M 51.125 44 
L 36.921875 44 
L 32.8125 27.6875 
L 47.125 27.6875 
z
M 43.796875 71.78125 
L 38.71875 51.515625 
L 52.984375 51.515625 
L 58.109375 71.78125 
L 65.921875 71.78125 
L 60.890625 51.515625 
L 76.125 51.515625 
L 76.125 44 
L 58.984375 44 
L 54.984375 27.6875 
L 70.515625 27.6875 
L 70.515625 20.21875 
L 53.078125 20.21875 
L 48 0 
L 40.1875 0 
L 45.21875 20.21875 
L 30.90625 20.21875 
L 25.875 0 
L 18.015625 0 
L 23.09375 20.21875 
L 7.71875 20.21875 
L 7.71875 27.6875 
L 24.90625 27.6875 
L 29 44 
L 13.28125 44 
L 13.28125 51.515625 
L 30.90625 51.515625 
L 35.890625 71.78125 
z
" id="DejaVuSans-35"/>
      </defs>
      <use xlink:href="#DejaVuSans-65"/>
      <use x="68.408203" xlink:href="#DejaVuSans-35"/>
     </g>
    </g>
   </g>
   <g id="text_15">
    <g clip-path="url(#pbf5392cb8c)">
     <!-- A -->
     <g style="fill:#ffa500;" transform="translate(92.790666 257.831236)scale(0.12 -0.12)">
      <use xlink:href="#DejaVuSans-65"/>
     </g>
    </g>
   </g>
   <g id="text_16">
    <g clip-path="url(#pbf5392cb8c)">
     <!-- G# -->
     <g style="fill:#ffa500;" transform="translate(108.842333 338.013078)scale(0.12 -0.12)">
      <defs>
       <path d="M 59.515625 10.40625 
L 59.515625 29.984375 
L 43.40625 29.984375 
L 43.40625 38.09375 
L 69.28125 38.09375 
L 69.28125 6.78125 
Q 63.578125 2.734375 56.6875 0.65625 
Q 49.8125 -1.421875 42 -1.421875 
Q 24.90625 -1.421875 15.25 8.5625 
Q 5.609375 18.5625 5.609375 36.375 
Q 5.609375 54.25 15.25 64.234375 
Q 24.90625 74.21875 42 74.21875 
Q 49.125 74.21875 55.546875 72.453125 
Q 61.96875 70.703125 67.390625 67.28125 
L 67.390625 56.78125 
Q 61.921875 61.421875 55.765625 63.765625 
Q 49.609375 66.109375 42.828125 66.109375 
Q 29.4375 66.109375 22.71875 58.640625 
Q 16.015625 51.171875 16.015625 36.375 
Q 16.015625 21.625 22.71875 14.15625 
Q 29.4375 6.6875 42.828125 6.6875 
Q 48.046875 6.6875 52.140625 7.59375 
Q 56.25 8.5 59.515625 10.40625 
z
" id="DejaVuSans-71"/>
      </defs>
      <use xlink:href="#DejaVuSans-71"/>
      <use x="77.490234" xlink:href="#DejaVuSans-35"/>
     </g>
    </g>
   </g>
   <g id="text_17">
    <g clip-path="url(#pbf5392cb8c)">
     <!-- G -->
     <g style="fill:#ffa500;" transform="translate(172.948449 396.71023)scale(0.12 -0.12)">
      <use xlink:href="#DejaVuSans-71"/>
     </g>
    </g>
   </g>
   <g id="text_18">
    <g clip-path="url(#pbf5392cb8c)">
     <!-- F# -->
     <g style="fill:#ffa500;" transform="translate(249.821224 418.194886)scale(0.12 -0.12)">
      <defs>
       <path d="M 9.8125 72.90625 
L 51.703125 72.90625 
L 51.703125 64.59375 
L 19.671875 64.59375 
L 19.671875 43.109375 
L 48.578125 43.109375 
L 48.578125 34.8125 
L 19.671875 34.8125 
L 19.671875 0 
L 9.8125 0 
z
" id="DejaVuSans-70"/>
      </defs>
      <use xlink:href="#DejaVuSans-70"/>
      <use x="57.519531" xlink:href="#DejaVuSans-35"/>
     </g>
    </g>
   </g>
   <g id="text_19">
    <g clip-path="url(#pbf5392cb8c)">
     <!-- F -->
     <g style="fill:#ffa500;" transform="translate(335.551537 396.71024)scale(0.12 -0.12)">
      <use xlink:href="#DejaVuSans-70"/>
     </g>
    </g>
   </g>
   <g id="text_20">
    <g clip-path="url(#pbf5392cb8c)">
     <!-- E -->
     <g style="fill:#ffa500;" transform="translate(394.289532 338.013087)scale(0.12 -0.12)">
      <defs>
       <path d="M 9.8125 72.90625 
L 55.90625 72.90625 
L 55.90625 64.59375 
L 19.671875 64.59375 
L 19.671875 43.015625 
L 54.390625 43.015625 
L 54.390625 34.71875 
L 19.671875 34.71875 
L 19.671875 8.296875 
L 56.78125 8.296875 
L 56.78125 0 
L 9.8125 0 
z
" id="DejaVuSans-69"/>
      </defs>
      <use xlink:href="#DejaVuSans-69"/>
     </g>
    </g>
   </g>
   <g id="text_21">
    <g clip-path="url(#pbf5392cb8c)">
     <!-- D# -->
     <g style="fill:#ffa500;" transform="translate(410.057146 257.83125)scale(0.12 -0.12)">
      <defs>
       <path d="M 19.671875 64.796875 
L 19.671875 8.109375 
L 31.59375 8.109375 
Q 46.6875 8.109375 53.6875 14.9375 
Q 60.6875 21.78125 60.6875 36.53125 
Q 60.6875 51.171875 53.6875 57.984375 
Q 46.6875 64.796875 31.59375 64.796875 
z
M 9.8125 72.90625 
L 30.078125 72.90625 
Q 51.265625 72.90625 61.171875 64.09375 
Q 71.09375 55.28125 71.09375 36.53125 
Q 71.09375 17.671875 61.125 8.828125 
Q 51.171875 0 30.078125 0 
L 9.8125 0 
z
" id="DejaVuSans-68"/>
      </defs>
      <use xlink:href="#DejaVuSans-68"/>
      <use x="77.001953" xlink:href="#DejaVuSans-35"/>
     </g>
    </g>
   </g>
   <g id="text_22">
    <g clip-path="url(#pbf5392cb8c)">
     <!-- D -->
     <g style="fill:#ffa500;" transform="translate(393.460802 177.649446)scale(0.12 -0.12)">
      <use xlink:href="#DejaVuSans-68"/>
     </g>
    </g>
   </g>
   <g id="text_23">
    <g clip-path="url(#pbf5392cb8c)">
     <!-- C# -->
     <g style="fill:#ffa500;" transform="translate(329.785008 118.952279)scale(0.12 -0.12)">
      <defs>
       <path d="M 64.40625 67.28125 
L 64.40625 56.890625 
Q 59.421875 61.53125 53.78125 63.8125 
Q 48.140625 66.109375 41.796875 66.109375 
Q 29.296875 66.109375 22.65625 58.46875 
Q 16.015625 50.828125 16.015625 36.375 
Q 16.015625 21.96875 22.65625 14.328125 
Q 29.296875 6.6875 41.796875 6.6875 
Q 48.140625 6.6875 53.78125 8.984375 
Q 59.421875 11.28125 64.40625 15.921875 
L 64.40625 5.609375 
Q 59.234375 2.09375 53.4375 0.328125 
Q 47.65625 -1.421875 41.21875 -1.421875 
Q 24.65625 -1.421875 15.125 8.703125 
Q 5.609375 18.84375 5.609375 36.375 
Q 5.609375 53.953125 15.125 64.078125 
Q 24.65625 74.21875 41.21875 74.21875 
Q 47.75 74.21875 53.53125 72.484375 
Q 59.328125 70.75 64.40625 67.28125 
z
" id="DejaVuSans-67"/>
      </defs>
      <use xlink:href="#DejaVuSans-67"/>
      <use x="69.824219" xlink:href="#DejaVuSans-35"/>
     </g>
    </g>
   </g>
   <g id="text_24">
    <g clip-path="url(#pbf5392cb8c)">
     <!-- C -->
     <g style="fill:#ffa500;" transform="translate(254.110363 97.467614)scale(0.12 -0.12)">
      <use xlink:href="#DejaVuSans-67"/>
     </g>
    </g>
   </g>
  </g>
 </g>
 <defs>
  <clipPath id="pbf5392cb8c">
   <rect height="388.08" width="390.6" x="63" y="60.48"/>
  </clipPath>
 </defs>
</svg>
